STARTFONT 2.3
FONT -FontForge-Pacifico-Book-R-Normal--24-240-72-72-P-141-ISO10646-1
SIZE 24 72 72  4
FONTBOUNDINGBOX 55 47 -15 -11
COMMENT "Generated by fontforge, http://fontforge.sourceforge.net"
COMMENT "Copyright 2018 The Pacifico Project Authors (https://github.com/googlefonts/Pacifico)"
STARTPROPERTIES 41
FOUNDRY "FontForge"
FAMILY_NAME "Pacifico"
WEIGHT_NAME "Book"
SLANT "R"
SETWIDTH_NAME "Normal"
ADD_STYLE_NAME ""
PIXEL_SIZE 24
POINT_SIZE 240
RESOLUTION_X 72
RESOLUTION_Y 72
SPACING "P"
AVERAGE_WIDTH 141
CHARSET_REGISTRY "ISO10646"
CHARSET_ENCODING "1"
FONTNAME_REGISTRY ""
CHARSET_COLLECTIONS "ISO8859-2 ISO8859-5 ISO8859-9 ISO8859-4 ISO10646-1"
BITS_PER_PIXEL 4
FONT_NAME "Pacifico-Regular"
FACE_NAME "Pacifico Regular"
COPYRIGHT "Copyright 2018 The Pacifico Project Authors (https://github.com/googlefonts/Pacifico)"
FONT_VERSION "3.001"
FONT_ASCENT 19
FONT_DESCENT 5
UNDERLINE_POSITION -2
UNDERLINE_THICKNESS 2
X_HEIGHT 10
CAP_HEIGHT 19
DEFAULT_CHAR 1
RAW_ASCENT 800
RAW_DESCENT 200
NORM_SPACE 6
RELATIVE_WEIGHT 40
RELATIVE_SETWIDTH 50
SUPERSCRIPT_X 0
SUPERSCRIPT_Y 8
SUPERSCRIPT_SIZE 14
SUBSCRIPT_X 0
SUBSCRIPT_Y 1
SUBSCRIPT_SIZE 14
AVG_LOWERCASE_WIDTH 113
AVG_UPPERCASE_WIDTH 195
ENDPROPERTIES
CHARS 1514
STARTCHAR NULL.dup1
ENCODING 0
SWIDTH 0 0
DWIDTH 0 0
BBX 1 1 0 0
BITMAP
00
ENDCHAR
STARTCHAR nonmarkingreturn
ENCODING 13
SWIDTH 265 0
DWIDTH 6 0
BBX 1 1 0 0
BITMAP
00
ENDCHAR
STARTCHAR space
ENCODING 32
SWIDTH 265 0
DWIDTH 6 0
BBX 1 1 0 0
BITMAP
00
ENDCHAR
STARTCHAR exclam
ENCODING 33
SWIDTH 340 0
DWIDTH 8 0
BBX 9 20 0 0
BITMAP
000004DF80
00000CFFA0
00001FFF70
00004FFF30
00008FFE00
0000BFFA00
0000EFF600
0002FFF200
0005FFC000
0008FF8000
000BFF3000
000DFD0000
001FF90000
003FF40000
001A800000
0000000000
06EE900000
1FFFF30000
2FFFF20000
08EE600000
ENDCHAR
STARTCHAR quotedbl
ENCODING 34
SWIDTH 510 0
DWIDTH 12 0
BBX 11 8 2 12
BITMAP
02CE800AEB00
09FFD05FFF20
0CFFB08FFF00
0EFF80AFFC00
1FFF40BFF800
2FFF10DFF500
4FFC00EFF200
2DE500BE8000
ENDCHAR
STARTCHAR numbersign
ENCODING 35
SWIDTH 700 0
DWIDTH 17 0
BBX 17 14 0 0
BITMAP
000000BE6002CE3000
000006FF9008FF6000
00000AFF500DFF2000
01DFFFFFFFFFFFFE20
02FFFFFFFFFFFFFF40
0068DFFB88EFF98700
0000DFF201FFE00000
0002FFD005FFA00000
068BFFD88CFFB87100
2FFFFFFFFFFFFFF500
1CFFFFFFFFFFFFE200
005FFA008FF7000000
009FF500CFF2000000
005EA0008E70000000
ENDCHAR
STARTCHAR dollar
ENCODING 36
SWIDTH 524 0
DWIDTH 13 0
BBX 11 20 1 -3
BITMAP
000001D80000
000004F80000
000005F60000
0029DFFEA200
04EFFFFFFE20
0DFF6CF9FF70
2FFA0DD1FF80
2FFC1FB06910
0DFFDF800000
03EFFFD71000
0029FFFFD300
02008FEFFD00
BF70AF1BFF30
FFC0CE08FF30
DFF9ED7EFD00
4EFFFFFFE300
029DFEB71000
0005F6000000
0007F5000000
0007D2000000
ENDCHAR
STARTCHAR percent
ENCODING 37
SWIDTH 896 0
DWIDTH 22 0
BBX 21 18 1 0
BITMAP
006CFD50000005E7000000
08FFFFF400002EFC000000
3FF97FFC0002CFF7000000
9FF15FFF238EFFD1000000
CFD02FFFFFFFFF50000000
CFD009FFFFFFFB00000000
9FF51BFD85DFF200000000
2EFFFFF407FF8000000000
03CFFC402EFE1000100000
00011000AFF602AFFE7000
00000004FFC01DFFFFF700
0000000DFF309FF42DFE00
0000007FF900EFB008FF20
000002EFE101FF8008FF20
00000BFF6001FF900AFE00
00004FFC0000DFE45FF800
0000AFF300005FFFFFD100
00005E80000005CFD91000
ENDCHAR
STARTCHAR ampersand
ENCODING 38
SWIDTH 851 0
DWIDTH 20 0
BBX 19 23 1 -2
BITMAP
0000017CEEC500000000
00001CFFFFFF70000000
0000BFFEABFFF1000000
0003FFE2009FF5000000
0008FF90006FF6000000
0009FF70008FF5000000
0009FF9001EFF1000000
0006FFD01BFF90000000
0001FFF7DFFC10000000
0000AFFFFFB100000000
0001AFFFF80000000000
003DFFFFF40000002630
03EFFEDFFE200003EFD0
1EFFC13FFFC1001DFF70
8FFE1006FFFA01BFFC00
CFF800009FFF9BFFE200
DFF800000BFFFFFE3000
BFFD200003FFFFE20000
4FFFFA9ACFFFFFF50000
06FFFFFFFFFCFFFF4000
0028CEFEC8305FFFE200
00000000000007FFF300
00000000000000374000
ENDCHAR
STARTCHAR quotesingle
ENCODING 39
SWIDTH 290 0
DWIDTH 7 0
BBX 5 8 2 12
BITMAP
02CE80
09FFD0
0CFFB0
0EFF80
1FFF40
2FFF10
4FFC00
2DE500
ENDCHAR
STARTCHAR parenleft
ENCODING 40
SWIDTH 613 0
DWIDTH 15 0
BBX 16 26 2 -4
BITMAP
000000017CEFD930
0000005EFFFFFFF6
000007FFFE99DFFA
00006FFF800006B3
0002EFF800000000
000AFFC000000000
003FFF4000000000
00AFFC0000000000
01FFF50000000000
05FFE00000000000
0AFFA00000000000
0EFF600000000000
2FFF200000000000
5FFE000000000000
7FFB000000000000
AFF9000000000000
BFF8000000000000
CFF7000000000000
CFF6000000000000
BFF7000000000000
AFF9000001400000
7FFC00001CF70000
1FFF7116EFF60000
08FFFFFFFF900000
008FFFFFE6000000
0002687400000000
ENDCHAR
STARTCHAR parenright
ENCODING 41
SWIDTH 613 0
DWIDTH 15 0
BBX 16 26 -2 -4
BITMAP
00000017CEEC6000
000004DFFFFFFB10
00005FFFD9AFFF80
0000BFF60005FFE1
00006D300000EFF4
000000000000BFF7
000000000000AFF8
000000000000AFF8
000000000000BFF8
000000000000CFF7
000000000000EFF5
000000000001FFF3
000000000004FFF1
000000000007FFC0
00000000000BFF90
00000000001FFF50
00000000005FFE00
0000000000BFF900
0000000003FFF300
000000000BFFB000
000000006FFF3000
03000003EFF80000
AFB4027FFFB00000
EFFFFFFFFB100000
4DFFFFFE60000000
0047874000000000
ENDCHAR
STARTCHAR asterisk
ENCODING 42
SWIDTH 520 0
DWIDTH 12 0
BBX 11 10 2 12
BITMAP
000008E40000
04E70DF80000
08FF4DF40000
02CFDDD4BE50
0007FFFFFE50
1CFFFFFB2000
2DD79FBFE500
0000DF4DFD00
0003FF33E800
0001CC100000
ENDCHAR
STARTCHAR plus
ENCODING 43
SWIDTH 700 0
DWIDTH 17 0
BBX 14 14 2 0
BITMAP
000000AE500000
000002FF900000
000004FF700000
000005FF600000
000007FF400000
000009FF200000
8FFFFFFFFFFFD0
FFFFFFFFFFFFF1
7AAAAFFEAAAA50
00001FFA000000
00003FF8000000
00005FF6000000
00007FF4000000
00005EB0000000
ENDCHAR
STARTCHAR comma
ENCODING 44
SWIDTH 257 0
DWIDTH 6 0
BBX 5 8 0 -4
BITMAP
04DE40
0DFFB0
0FFFA0
1FFF60
3FFE10
5FF800
8FE100
6E6000
ENDCHAR
STARTCHAR hyphen
ENCODING 45
SWIDTH 403 0
DWIDTH 10 0
BBX 8 5 1 5
BITMAP
00000010
29BCEFF9
9FFFFFFB
6FFECB93
01000000
ENDCHAR
STARTCHAR period
ENCODING 46
SWIDTH 257 0
DWIDTH 6 0
BBX 6 4 0 0
BITMAP
08EE80
3FFFF1
4FFFF0
09ED50
ENDCHAR
STARTCHAR slash
ENCODING 47
SWIDTH 509 0
DWIDTH 12 0
BBX 14 22 0 0
BITMAP
00000000001CD1
0000000000AFF5
0000000003FFF2
000000000BFF80
000000004FFE10
00000000CFF700
00000006FFD000
0000000DFF5000
0000007FFC0000
000001EFF40000
000008FFB00000
00002FFF300000
0000AFF9000000
0003FFE2000000
000BFF80000000
004FFE10000000
00CFF600000000
06FFD000000000
1DFF5000000000
7FFC0000000000
BFF40000000000
6E800000000000
ENDCHAR
STARTCHAR zero
ENCODING 48
SWIDTH 543 0
DWIDTH 13 0
BBX 12 14 1 0
BITMAP
0003AEFD8100
006FFFFFFC00
04FFFAAFFF70
0CFF5007FFD0
3FFC0001FFF1
7FF70000DFF2
AFF50000DFF2
BFF40000EFF0
BFF40001FFD0
AFF60006FF90
7FFC001DFF30
2FFFC9DFF900
07FFFFFFB000
005BEFC70000
ENDCHAR
STARTCHAR one
ENCODING 49
SWIDTH 376 0
DWIDTH 9 0
BBX 7 14 1 0
BITMAP
0159DF90
4EFFFFE0
9FFFFFC0
2739FF90
000CFF70
000EFF50
001FFF30
003FFF10
005FFE00
007FFC00
009FFA00
00AFF800
00CFF600
006EC100
ENDCHAR
STARTCHAR two
ENCODING 50
SWIDTH 560 0
DWIDTH 13 0
BBX 12 14 1 0
BITMAP
0005BEFEA300
00AFFFFFFF40
07FFFA9EFFD0
0DFF3005FFF1
0FFC0003FFF1
0BF80006FFD0
0010001DFF70
000000AFFC00
00001AFFD100
0003CFFC2000
03AFFF800000
7FFFFB888881
DFFFFFFFFFF6
AFFFFFFFFFD2
ENDCHAR
STARTCHAR three
ENCODING 51
SWIDTH 520 0
DWIDTH 12 0
BBX 12 14 0 0
BITMAP
00039DEFD920
007FFFFFFFE2
03FFFB9BFFF8
08FF7000BFF9
05FD1000CFF6
00100019FFC0
00003CFFF910
00007FFFE910
0000157CFFC0
1CD10000EFF4
4FF80002FFF5
3FFFB9AEFFF2
09FFFFFFFF60
005BEFED9200
ENDCHAR
STARTCHAR four
ENCODING 52
SWIDTH 577 0
DWIDTH 14 0
BBX 13 14 1 0
BITMAP
0000AEB0000000
0008FFB0000000
001EFF40000000
009FFA008EB000
01FFF302FFD000
08FFA005FFA000
1EFF3008FF7000
5FFC000BFF4000
AFFC999EFFA700
CFFFFFFFFFFF30
6FFFFFFFFFFB10
0000004FFB0000
0000005FF90000
0000002EE40000
ENDCHAR
STARTCHAR five
ENCODING 53
SWIDTH 518 0
DWIDTH 12 0
BBX 11 14 1 0
BITMAP
07CEFFFFFEA0
3FFFFFFFFFE0
18FFE9888840
05FF80000000
08FF50000000
0BFF97510000
0EFFFFFF9100
09FFFFFFFB00
000014AFFF40
5C50000BFF60
DFE1001DFF40
CFFEA9DFFE00
4FFFFFFFE400
029DEED82000
ENDCHAR
STARTCHAR six
ENCODING 54
SWIDTH 541 0
DWIDTH 13 0
BBX 12 14 1 0
BITMAP
00018DFEC500
003EFFFFFF90
02EFFC9BFFF2
0BFF9000AFF5
2FFD00001991
7FF827862000
AFFAFFFFF600
BFFFFFFFFF30
CFFF512DFF80
BFFA0008FF90
7FFC000BFF70
2FFFC9CFFE10
06FFFFFFF500
004BEFD92000
ENDCHAR
STARTCHAR seven
ENCODING 55
SWIDTH 497 0
DWIDTH 12 0
BBX 12 14 1 0
BITMAP
3AA876666891
DFFFFFFFFFF6
AFFFFFFFFFF3
0000009FFD30
00000AFFA100
00009FFB0000
0004FFD10000
000DFF600000
005FFF100000
00AFFA000000
00DFF7000000
00FFF4000000
00FFF2000000
008E90000000
ENDCHAR
STARTCHAR eight
ENCODING 56
SWIDTH 512 0
DWIDTH 12 0
BBX 11 14 1 0
BITMAP
0018CEED8200
03EFFFFFFE20
0CFFE99EFF90
1FFE1004FFA0
2FFD0006FF70
0CFFB38FFC10
03EFFFFFA100
02CFFFFFC200
3EFC46EFFD10
CFE1001CFF50
FFE1000BFF50
DFFD99CFFE10
5FFFFFFFF500
03ADFED92000
ENDCHAR
STARTCHAR nine
ENCODING 57
SWIDTH 541 0
DWIDTH 13 0
BBX 12 14 1 0
BITMAP
0017CEEC7000
01CFFFFFFB00
0AFFEAAFFF60
1FFF3008FFC0
4FFC0005FFF0
4FFE1009FFF2
1EFFD9CFFFF1
07FFFFFEFFF0
005CEEA5FFC0
36100008FF70
FFD1004FFE10
DFFD9BFFF600
5FFFFFFF7000
03ADFEA30000
ENDCHAR
STARTCHAR colon
ENCODING 58
SWIDTH 257 0
DWIDTH 6 0
BBX 6 11 0 0
BITMAP
009EE6
05FFFE
06FFFD
01BED4
000000
000000
000000
08EE80
3FFFF1
4FFFF0
09ED50
ENDCHAR
STARTCHAR semicolon
ENCODING 59
SWIDTH 257 0
DWIDTH 6 0
BBX 6 15 0 -4
BITMAP
009EE6
05FFFE
06FFFD
01BED4
000000
000000
000000
04DE40
0DFFB0
0FFFA0
1FFF60
3FFE10
5FF800
8FE100
6E6000
ENDCHAR
STARTCHAR less
ENCODING 60
SWIDTH 700 0
DWIDTH 17 0
BBX 14 11 2 2
BITMAP
00000000000471
0000000049EFF7
0000049EFFFFE3
0049EFFFFEA510
5EFFFFEA500000
EFFFB400000000
DFFFFB51000000
28DFFFFEA40000
0004AEFFFFE810
0000016BFFFF70
0000000027DE30
ENDCHAR
STARTCHAR equal
ENCODING 61
SWIDTH 700 0
DWIDTH 17 0
BBX 15 8 1 3
BITMAP
04EFFFFFFFFFFE40
09FFFFFFFFFFFF60
0288888888888600
0000000000000000
0000000000000000
0688888888888300
4FFFFFFFFFFFFB00
2EFFFFFFFFFFE600
ENDCHAR
STARTCHAR greater
ENCODING 62
SWIDTH 700 0
DWIDTH 17 0
BBX 15 11 1 2
BITMAP
0056100000000000
04FFFA5000000000
03EFFFFE83000000
0016BFFFFFC71000
0000027CFFFFF900
0000000039FFFF20
00000016BFFFFD00
00016BFFFFFC7100
06BFFFFFC7200000
4FFFFC7200000000
3EC7200000000000
ENDCHAR
STARTCHAR question
ENCODING 63
SWIDTH 476 0
DWIDTH 11 0
BBX 12 20 1 0
BITMAP
0005BEFEB500
009FFFFFFF90
05FFEA9EFFF3
0BFF3002FFF7
0CFE0000FFF6
09FD0004FFF3
0031001CFFC0
000000AFFE20
00000AFFE400
00008FFE4000
0004FFE20000
000CFE200000
002FF6000000
005FE1000000
002A50000000
000000000000
09EE60000000
5FFFE0000000
6FFFD0000000
1BED40000000
ENDCHAR
STARTCHAR at
ENCODING 64
SWIDTH 1015 0
DWIDTH 24 0
BBX 24 25 0 -7
BITMAP
000000000014678762000000
000000005BFFFFFFFFD60000
0000002CFFFFFFFFFFFFB100
000005EFFFA5210149EFFC00
00005FFFB2000000002DFF80
0003FFF8000000000002EFE1
000DFF900000000000008FF5
006FFD000007CF9000004FF7
00DFF50001CFFFFFD0003FF9
04FFE0001DFFFAEFE0003FF8
08FF90008FFD21FFC0004FF7
0BFF5001EFF304FF90008FF5
0EFF3005FFB008FF6000DFF1
0FFF2007FF700BFF3005FFA0
1FFF1008FF702FFF202EFF30
0FFF2006FFD8DFFFB8EFF800
0DFF5001EFFFF8DFFFFF8000
0AFF90003BFD702BEEB40000
05FFE1000000000000000000
00CFFB000000000000000000
003FFFB100000000006CF300
0005FFFE95210136AEFFF500
00004DFFFFFFFFFFFFFE7000
0000017DFFFFFFFFFB610000
000000002578876310000000
ENDCHAR
STARTCHAR A
ENCODING 65
SWIDTH 786 0
DWIDTH 19 0
BBX 21 20 1 0
BITMAP
0000000016ACEFEDB84000
0000002AFFFFFFFFFFF100
000007FFFFFECCDEFFC000
00009FFFE7200000241000
0009FFFA100006ED400000
005FFF9000000EFF800000
01EFFC0000002FFF500000
07FFF30000005FFF100000
0DFFB00000009FFC000000
2FFF60000000CFF9000000
6FFF20000001FFF6000000
8FFF00000006FFF3000000
9FFE0000000BFFF1000000
9FFE0000002FFFE0000000
8FFF1000009FFFD0000130
6FFF500003FFFFE0001CD0
1FFFD2004EFCFFF302CFC0
07FFFFCDFFB3FFFECEFE30
009FFFFFFC10AFFFFFE400
0005BEEC710018DFD92000
ENDCHAR
STARTCHAR B
ENCODING 66
SWIDTH 827 0
DWIDTH 20 0
BBX 21 21 0 -1
BITMAP
00000158ADEEFEDB830000
0006BFFFFFFFFFFFFFA100
06EFFFFFDBA99ADFFFFC10
5FFFE94100000003CFFF70
6FD60011000000001EFFB0
030009FF700000000BFFC0
00001FFF600000001EFF90
00005FFF10000001BFFF30
00008FFC0000148EFFF500
0000CFF900BFFFFFFB3000
0000FFF501FFFFFC300000
0003FFF20079BFFFD20000
0006FFE0000003EFFC0000
0009FFC00000007FFF2000
000BFF900000006FFF2000
000DFF80000001CFFE0000
000FFF6000004CFFF70000
002FFFB999BEFFFFA00000
003FFFFFFFFFFFD6000000
004FFFFFFEDB8400000000
002DEB0000000000000000
ENDCHAR
STARTCHAR C
ENCODING 67
SWIDTH 686 0
DWIDTH 16 0
BBX 19 20 1 0
BITMAP
00000027BEFEB5000000
000008FFFFFFFF900000
0001BFFFEA9CFFF50000
000BFFF70000BFFA0000
007FFF6000006FFC0000
02EFF90000007FFB0000
08FFE10000009FF80000
0DFFA00000004DB10000
2FFF6000000000000000
5FFF3000000000000000
6FFF2000000000000000
7FFF1000000000000000
6FFF2000000000000000
4FFF5000000000000000
1FFFB000000000000000
0AFFF600000000000410
01DFFF8100000038EF60
003EFFFFB999BEFFFF40
0002BFFFFFFFFFFFC500
0000038CEFFECA620000
ENDCHAR
STARTCHAR D
ENCODING 68
SWIDTH 836 0
DWIDTH 20 0
BBX 19 20 1 0
BITMAP
000058BDEEDC83000000
029EFFFFFFFFFFC30000
5FFFFFECBBCFFFFF5000
DFFC720000018FFFE300
AC500000000004FFFC00
0000BFF40000009FFF30
0003FFF30000003FFF60
0007FFE00000000FFF80
000BFFA00000000EFF90
000EFF600000000FFF80
003FFF300000002FFF70
006FFE000000005FFF40
009FFC00000000AFFF10
00CFF900000002FFFA00
00EFF70000000BFFF300
01FFF5000000AFFF8000
03FFF300015DFFFA0000
05FFFBABCFFFFF900000
05FFFFFFFFFFC4000000
019CEFFEDB7300000000
ENDCHAR
STARTCHAR E
ENCODING 69
SWIDTH 686 0
DWIDTH 16 0
BBX 20 20 0 0
BITMAP
00000016ADEFEB600000
000006EFFFFFFFFB1000
00008FFFFCA9CFFF9000
0005FFFB200007FFE000
000BFFE1000002FFF100
000DFFA0000003FFF000
000CFFC0000004FFB000
0007FFF6000001992000
0000AFFFD98200000000
000019FFFFF700000000
0018EFFFFFE300000000
01CFFFA5210000000000
09FFE400000000000000
1FFF8000000000000000
3FFF5000000000000000
2FFF8000000000000031
0DFFF710000000159EF6
04FFFFEBA99ABDFFFFF4
003CFFFFFFFFFFFFFC50
000048BDEFFEDB962000
ENDCHAR
STARTCHAR F
ENCODING 70
SWIDTH 712 0
DWIDTH 17 0
BBX 23 20 0 0
BITMAP
000000269BDEEFFFEEDCA810
00005CFFFFFFFFFFFFFFFF60
000AFFFECCFFF88889ABDB20
006FFC4007FFE00000000000
00CFF20008FFD00000000000
00DFF00009FFB00000000000
00BFF4000BFFA00000000000
006FF7000CFF800000000000
000440000EFF700000000000
0000007EFFFFFFFFFC000000
000000BFFFFFFFFFFE000000
00000038BFFF988883000000
000000006FFE000000000000
000000008FFB000000000000
00000000CFF9000000000000
AB000002FFF4000000000000
FFB1001CFFD0000000000000
BFFE99EFFF60000000000000
1BFFFFFFF800000000000000
005BEFDA4000000000000000
ENDCHAR
STARTCHAR G
ENCODING 71
SWIDTH 811 0
DWIDTH 19 0
BBX 21 31 1 -11
BITMAP
00000016BDFED920000000
000007EFFFFFFFE4000000
0001BFFFEA9AEFFE100000
000BFFF810002EFF500000
007FFF5000000BFF700000
01EFF90000000CFF700000
08FFE10000000EFF400000
0DFFA00000000AFA000000
2FFF600000000000000000
5FFF300000000000000000
6FFF200000000000000000
7FFF100000388888600000
6FFF200000CFFFFFF10000
4FFF5000008FFFFFF00000
1FFFB000000001FFD00000
0AFFF500000003FFA008C0
01DFFF71000007FF83DFF0
003EFFFEB99AEFFFCFFE50
0002BFFFFFFFFFFFFFB200
0000049CEFEC8DFFE60000
000000000001AFFE200000
00000000001CFFFA000000
0000000002DFEFF7000000
000000001DFA8FF3000000
00000000BFB0BFD0000000
00000005FE11FF90000000
0000000BF807FF30000000
0000000FF51EFB00000000
0000000FFCCFF400000000
0000000BFFFF8000000000
00000002BED60000000000
ENDCHAR
STARTCHAR H
ENCODING 72
SWIDTH 873 0
DWIDTH 21 0
BBX 25 21 -1 0
BITMAP
00000000000000000007DE9000
00005BEEB200000000AFFFF600
002CFFFFFC00000006FFDCFB00
02EFEACFFF3000001EFE24FC00
0DFC201FFF5000008FF804FC00
5FD1000DFF600000EFF206F900
2C20000DFF500004FFC00BF500
0000000FFF400009FF704FD000
0000002FFF20000CFF44EF5000
0000004FFF00000FFFBFF70000
0000006FFE55558FFFFD500000
0005EFFFFFFFFFFFFE71000000
000AFFFFFFFFFEEFFB00000000
000389FFF732108FFB00000000
000004FFF100008FFB00000000
000008FFD000008FFC00000010
00000BFF9000005FFF000009E0
00001FFF5000002FFF70009FE0
00004FFF2000000AFFFA9DFF50
00006FFC00000001DFFFFFE500
00003ED30000000018DFD92000
ENDCHAR
STARTCHAR I
ENCODING 73
SWIDTH 495 0
DWIDTH 12 0
BBX 15 20 -1 0
BITMAP
0002CFFFFFFFFD20
0008FFFFFFFFFF30
0002889FFFB88500
0000003FFF300000
0000005FFF100000
0000007FFD000000
000000AFFB000000
000000CFF8000000
000000EFF6000000
000002FFF4000000
000004FFF1000000
000007FFE0000000
000009FFC0000000
00000BFF90000000
00000EFF70000000
00001FFF50000000
00003FFF30000000
0378BFFF98710000
3FFFFFFFFFF80000
3EFFFFFFFFD30000
ENDCHAR
STARTCHAR J
ENCODING 74
SWIDTH 743 0
DWIDTH 18 0
BBX 18 22 1 -2
BITMAP
000027ACEEFFEDB850
003BFFFFFFFFFFFFF5
03FFFFDA999ACFFFE3
0DFF810000005FFF10
3FFB000000007FFE00
4FF9000000009FFC00
2FFE00000000BFF900
0CFE10000000DFF700
016300000000FFF400
00000000004AFFF200
000000005CFFFFE000
0000003CFFFEFFB000
000006FFFA3BFF7000
00007FFE500EFF3000
0004FFE2004FFD0000
000DFF40009FF80000
004FFC0001EFF20000
006FF90007FFA00000
007FFB004FFE200000
004FFFBAFFF6000000
000BFFFFFF60000000
00008DFDA300000000
ENDCHAR
STARTCHAR K
ENCODING 75
SWIDTH 937 0
DWIDTH 22 0
BBX 26 20 0 0
BITMAP
000017BDEFEC83000000AEB000
0006EFFFFFFFFF200006FFF100
006FFFDA9BFFFE10000CFFB000
01EFE40005FFF100003FFF6000
05FF800007FFD00000AFFD0000
06FF70000AFFB00003FFF60000
04FFB0000CFF90001DFFB00000
00DFE0000EFF6001BFFD100000
003930001FFF404DFFC1000000
00000005AFFFBDFFF910000000
0000001FFFFFFFF93000000000
0000000CFFFFFFFC3000000000
00000000AFFA4DFFE200000000
00000000CFF703FFFB00000000
04200001FFF5009FFF30000032
3FD10005FFF1002FFFC00004F8
5FFA001CFFB0000AFFF8005EF6
1EFFC9DFFF400002EFFFEDFFB0
05EFFFFFF70000005FFFFFFB10
0029DFEB4000000004BEEC6000
ENDCHAR
STARTCHAR L
ENCODING 76
SWIDTH 673 0
DWIDTH 16 0
BBX 21 20 -1 0
BITMAP
00000000038CEFDA300000
00000001AFFFFFFFF60000
0000001CFFFC99DFFF2000
000000AFFE50001DFF7000
000004FFF6000009FF9000
000009FFE000000AFF8000
00000DFFA000000BFF4000
00000FFF70000005B70000
00002FFF50000000000000
00003FFF30000000000000
00004FFF10000000000000
00005FFF00000000000000
00006FFD00000000000000
00007FFC00000000000000
00008FFA00000000000700
05CEFFFB51000000008F30
8FFFFFFFFFA5100008FF10
EFFFFFFFFFFFFB9AEFF600
CFFFFF77CFFFFFFFFE6000
2BEEB400016ACEED920000
ENDCHAR
STARTCHAR M
ENCODING 77
SWIDTH 1232 0
DWIDTH 30 0
BBX 33 20 0 0
BITMAP
0004BEE900004BEEB200018DFE90000000
01AFFFFF7009FFFFFC002DFFFFF8000000
0BFFACFFA08FFBAFFF41DFD9EFFF100000
8FE404FFB3FE4009FF69FA005FFF300000
EF3004FFABF40007FF9FC0003FFF300000
850005FFBFA00008FFDF30005FFF200000
000007FFEF20000AFFFB00008FFE000000
000009FFFB00000CFFF50000BFFB000000
00000BFFF500000EFFE00000EFF8000000
00000DFFF100002FFF900003FFF5000000
00000FFFB000005FFF500006FFF1000000
00003FFF7000007FFF100009FFD0000000
00005FFF400000AFFD00000CFFA0000000
00008FFF100000DFFA00000FFF70000000
0000AFFD000001FFF700002FFF50000110
0000DFFA000003FFF500002FFF40002D90
0000FFF8000005FFF300001FFF7002DF80
0001FFF5000007FFF000000CFFFAAEFD10
0001FFF3000007FFC0000004FFFFFFC100
0000AFB0000003DE500000003BEEC60000
ENDCHAR
STARTCHAR N
ENCODING 78
SWIDTH 884 0
DWIDTH 21 0
BBX 25 20 0 0
BITMAP
0004ADEB100017CEEB40000000
019FFFFF9003DFFFFFF2000000
0BFFACFFD02EFD9BFFF9000000
8FE404FFE0CF9000BFFC000000
EF3004FFD6F900009FFD000000
850005FFBDD00000AFFB000000
000007FFDF500000DFF9000000
000009FFFD000001FFF6000000
00000BFFF7000005FFF3000000
00000DFFF2000008FFE0000000
00000FFFC000000BFFB0000000
00003FFF8000000EFF80000000
00005FFF4000003FFF50000000
00007FFF1000005FFF20000000
0000AFFD0000007FFE00000200
0000CFFA0000008FFE00005F30
0000FFF80000007FFF2005FF30
0001FFF50000003FFFD9BFF900
0001FFF300000009FFFFFF8000
0000AFB0000000007CFEA40000
ENDCHAR
STARTCHAR O
ENCODING 79
SWIDTH 816 0
DWIDTH 20 0
BBX 19 20 1 0
BITMAP
00000027BEFDB6100000
000008EFFFFFFFE40000
0001BFFFDA9BFFFF4000
000BFFF600004EFFE100
007FFF50000004FFF800
01EFF900000000CFFD00
07FFE1000000008FFF10
0DFFA0000000006FFF20
1FFF60000000006FFF20
4FFF30000000007FFF10
6FFF20000000008FFE00
7FFF1000000000BFFC00
6FFF2000000000EFF800
5FFF4000000005FFF200
2FFF800000000DFFB000
0CFFE10000009FFF2000
05FFFB100019FFF60000
009FFFEA9AEFFF700000
0007FFFFFFFFD4000000
000028CEFDA600000000
ENDCHAR
STARTCHAR P
ENCODING 80
SWIDTH 805 0
DWIDTH 19 0
BBX 19 22 1 -2
BITMAP
000000038BEFEC830000
000002AFFFFFFFFF8000
00005EFFEB99BFFFF800
0005FFF7100003DFFF20
002EFE300000004FFF80
00BFF400AEC0000EFFA0
05FF9004FFF1000DFFB0
0BFF1007FFE0000EFF90
1FFA0009FFC0003FFF60
5FF6000CFF9000BFFE10
8FF2000EFF701AFFF500
AFF0188FFF99EFFF7000
CFE07FFFFFFFFFD40000
DFC03DFFFFFDA6000000
DFC000AFFB0000000000
CFD000DFF80000000000
BFF101FFF50000000000
7FF505FFF20000000000
3FFD1AFFE00000000000
0AFFFFFFA00000000000
01CFFFFF400000000000
0017DED5000000000000
ENDCHAR
STARTCHAR Q
ENCODING 81
SWIDTH 816 0
DWIDTH 20 0
BBX 21 28 1 -8
BITMAP
00000027BEFDB610000000
000008EFFFFFFFD4000000
0001BFFFEA9BFFFF400000
000BFFF700003EFFD10000
007FFF50000004FFF70000
01EFF900000000CFFC0000
07FFE2000000008FFF1000
0CFFA0000000006FFF2000
1FFF60000000006FFF2000
4FFF30000000007FFF1000
6FFF20000000008FFE0000
7FFF1000000000BFFC0000
7FFF2000000001FFF70000
5FFF4000000006FFF30000
2FFF800000001DFFB00000
0DFFE2000000AFFF300000
05FFFC20002BFFF7000000
00AFFFFCACFFFF90000000
0009FFFFFFFFE600000000
000039EFFFF81000000000
00000005FFFD1000000000
000000007FFF8000000000
000000001EFFE100001800
0000000007FFF80000AF10
0000000001EFFF612BFB00
00000000005FFFFFFFE200
000000000007FFFFFC2000
0000000000002687400000
ENDCHAR
STARTCHAR R
ENCODING 82
SWIDTH 880 0
DWIDTH 21 0
BBX 24 20 1 0
BITMAP
000000059CEFEC9300000000
000005DFFFFFFFFF90000000
0000AFFFDA9ACFFFF8000000
000AFFC4000004EFFF200000
007FFA104730006FFF500000
01EFC004FFC0003FFF600000
08FF4009FFC0004FFF400000
0EFC000CFF90009FFE000000
3FF8000EFF6005FFF6000000
6FF4002FFF439FFF80000000
8FF20BFFFFFFFFD500000000
AFF00FFFFFFFF70000000000
AFE005DFFDDFFF7000000000
9FF000CFF80BFFF300000000
8FF200FFF502FFFB00000020
4FF503FFF2008FFF400006F2
1EFC06FFF0001EFFD1006FF2
07FFBDFFC00007FFFE9BFF70
00AFFFFF600000AFFFFFF700
0006CED800000007CEEA3000
ENDCHAR
STARTCHAR S
ENCODING 83
SWIDTH 693 0
DWIDTH 17 0
BBX 17 20 0 0
BITMAP
0000016ADEFEB71000
00004DFFFFFFFFE300
0005FFFFB99BFFFE10
000DFFA100002DFF70
005FFE10000008FF90
007FFD00000008FF80
006FFF30000008FF40
002FFFE40000017400
0008FFFFB500000000
00008FFFFFE8100000
000003BFFFFFE70000
000000028EFFFFA000
01630000006EFFF500
0CFE00000002EFFA00
2FFF000000009FFB00
2FFF00000000BFF900
1EFF70000007FFF400
08FFFEA99BEFFFA000
009FFFFFFFFFF80000
00038CEFFEB7200000
ENDCHAR
STARTCHAR T
ENCODING 84
SWIDTH 697 0
DWIDTH 17 0
BBX 22 20 0 0
BITMAP
0000047ACDEFFFFFFFEDB3
0018EFFFFFFFFFFFFFFFF9
02DFFFCA9AFFFA8899AAA3
0BFF920005FFF100000000
1FFD000008FFE000000000
2FFB00000BFFB000000000
0FFE10000EFF8000000000
08FE20002FFF5000000000
004200005FFF3000000000
000000007FFF0000000000
00000000AFFC0000000000
00000000CFF90000000000
00000000EFF70000000000
00000002FFF50000000000
00000004FFF30000000000
00000007FFF10000000000
00000009FFE00000000000
0000000BFFC00000000000
0000000CFFA00000000000
00000006ED400000000000
ENDCHAR
STARTCHAR U
ENCODING 85
SWIDTH 890 0
DWIDTH 21 0
BBX 25 20 0 0
BITMAP
0004ADEC400000000CE8000000
019FFFFFE10000004FFE000000
0BFFCAFFF60000007FFF000000
8FE500EFF70000009FFD000000
EF4000FFF6000000BFFB000000
960001FFF5000000EFF9000000
000004FFF2000002FFF6000000
000008FFE0000006FFF3000000
00000BFFB000000AFFF1000000
00000EFF8000000EFFD0000000
00003FFF4000005FFFB0000000
00006FFF100000BFFF90000000
00009FFC000002FFFF70000000
0000CFF900000AEEFF50000000
0000FFF600004F9FFF30000410
0001FFF60003EF3FFF30007F60
0001FFFB116EF82FFFA129FF40
0000DFFFFFFFC00EFFFFFFFA00
00006FFFFFFB1007FFFFFF9000
000005CFEC6000005CEEB40000
ENDCHAR
STARTCHAR V
ENCODING 86
SWIDTH 763 0
DWIDTH 18 0
BBX 20 20 2 0
BITMAP
00BFA0000006CED70000
05FFF100008FFFFF6000
08FFF00003FFCBFFD000
0AFFD00008FE10FFF000
0BFFB0000AFB00EFF000
0DFF90000BFA01FFD000
0EFF80000AFD04FFA000
0FFF700006FF59FF6000
0FFF600001EFFEFF2000
1FFF5000004EFFFFA984
0FFF50000002EFFFFFFB
0FFF60000004FFEBEFE5
0DFF7000000CFF600000
0CFF9000005FFD000000
09FFC00002EFF4000000
06FFF2000CFF80000000
01FFFB13CFFB00000000
00AFFFFFFFC100000000
002EFFFFFA0000000000
0002AEEB400000000000
ENDCHAR
STARTCHAR W
ENCODING 87
SWIDTH 1217 0
DWIDTH 29 0
BBX 31 20 2 0
BITMAP
00BEA000000008ED1000007DFD600000
05FFF00000002FFF40000AFFFFF40000
08FFF00000006FFF20005FFCCFFB0000
0AFFD00000009FFF0000AFD02FFD0000
0BFFB0000000CFFD0000CF901FFD0000
0DFF90000000FFFB0000DF902FFC0000
0EFF70000004FFFA0000BFB05FF90000
0FFF60000008FFFA00008FF4AFF50000
1FFF5000000CFFF900002EFEEFE10000
1FFF5000002FFFF8000005FFFFEA9830
1FFF4000006FFFF80000003FFFFFFF90
1FFF500000CFFFF90000005FFECEFE40
0EFF500003FFAFF9000000DFF5000000
0DFF70000AFE4FFA000006FFC0000000
0AFF90003FF81FFD00002EFF30000000
07FFE000CFE10DFF2000CFF700000000
02FFF71AFF7009FFB12BFFB000000000
00BFFFFFFB0003FFFFFFFB1000000000
003EFFFFC10000AFFFFFA00000000000
0004CED700000019EEB4000000000000
ENDCHAR
STARTCHAR X
ENCODING 88
SWIDTH 712 0
DWIDTH 17 0
BBX 22 20 -1 0
BITMAP
00029DFE910000007DE400
005EFFFFFC100007FFF400
04FFD9DFFF70005FFF9000
0CF9001CFFE003FFFA0000
07700004FFF42EFFC10000
00000000DFF9CFFD100000
000000009FFFFFE2000000
000000005FFFFE30000000
000000001FFFF400000000
000000004FFFB000000000
00000003EFFFE000000000
0000002EFFFFF400000000
000001DFFCEFF800000000
00001CFFE2AFFC00000000
0000BFFF305FFF10000020
000AFFF5001FFF600007F2
008FFF80000BFFC0008FF1
07FFFA000004FFFC9DFF70
3FFFC10000009FFFFFF600
3DEB1000000007DFEA3000
ENDCHAR
STARTCHAR Y
ENCODING 89
SWIDTH 851 0
DWIDTH 20 0
BBX 23 28 0 -8
BITMAP
0004ADEC400000000BEA0000
019FFFFFE10000004FFF1000
0BFFBAFFF60000007FFF0000
8FE500EFF70000009FFD0000
EF4000FFF6000000CFFB0000
950002FFF5000000EFF90000
000005FFF2000003FFF60000
000008FFE0000007FFF40000
00000BFFB000000CFFF20000
00000EFF8000003FFFE00000
00003FFF400000AFFFC00000
00005FFF100004FEFFA00000
00006FFF10001DFAFF800000
00005FFF4002CF8BFF500000
00002FFFE9AEFC0DFF314770
000008FFFFFFB10FFFDFFFF0
0000006CFEB5039FFFFFFF90
000000000006DFFFFEA74100
0000000005DFFECFF9000000
000000009FFD50AFF6000000
0000000BFF8000DFF3000000
0000007FF70002FFE0000000
000000EFD00007FF90000000
000002FFB0002EFF20000000
000003FFE414DFF800000000
000000DFFFFFFFB000000000
0000004EFFFFF80000000000
000000015886100000000000
ENDCHAR
STARTCHAR Z
ENCODING 90
SWIDTH 721 0
DWIDTH 17 0
BBX 21 20 0 0
BITMAP
000016ADEFFEDCA8520000
0008EFFFFFFFFFFFFF6000
00AFFFDA999ABDFFFF9000
03FFE400000009FFF71000
07FF600000004FFF900000
08FF50000000DFFD100000
06FFA0000008FFF5000000
01CFA000003FFFA0000000
0002000000CFFE10000000
0000000008FFF500000000
000000004FFFA000000000
00000002EFFE1000000000
0000000CFFF50000000000
0000008FFF900000000000
000005FFFD100000000610
03AEFFFFF4000000006F50
3FFFFFFFFFB6100006FF30
9FFFFFFFFFFFFC9ADFF800
7FFFFFB6BFFFFFFFFF7000
08EFC6000159CEFDA30000
ENDCHAR
STARTCHAR bracketleft
ENCODING 91
SWIDTH 405 0
DWIDTH 10 0
BBX 11 24 1 -2
BITMAP
0001BEFFFF90
0007FFFFFFD0
000AFFB88840
000CFF600000
000FFF400000
002FFF200000
004FFF000000
006FFD000000
008FFB000000
00AFF9000000
00CFF7000000
00EFF5000000
02FFF2000000
04FFF0000000
06FFD0000000
08FFB0000000
0AFF90000000
0CFF70000000
0EFF50000000
1FFF30000000
3FFF20000000
4FFF98860000
5FFFFFFF3000
1BFFFFFC1000
ENDCHAR
STARTCHAR backslash
ENCODING 92
SWIDTH 509 0
DWIDTH 12 0
BBX 9 22 2 0
BITMAP
1BE3000000
5FF9000000
4FFD000000
1FFF300000
0BFF700000
07FFC00000
02FFF10000
00DFF50000
008FFA0000
004FFE0000
000EFF3000
000AFF8000
0006FFC000
0002FFF200
0000CFF600
00008FFA00
00003FFE00
00000EFF40
00000AFF90
000005FFD0
000001FFE0
0000008E70
ENDCHAR
STARTCHAR bracketright
ENCODING 93
SWIDTH 405 0
DWIDTH 10 0
BBX 12 24 -2 -2
BITMAP
0003DFFFFE90
0007FFFFFFF2
0001788AFFF1
00000005FFE0
00000007FFD0
00000008FFB0
0000000AFF90
0000000CFF70
0000000EFF50
0000001FFF30
0000003FFF10
0000006FFE00
0000008FFC00
000000AFF900
000000CFF700
000000EFF500
000001FFF300
000003FFF100
000005FFE000
000007FFC000
000009FFA000
05888DFF7000
1FFFFFFF4000
0CFFFFE90000
ENDCHAR
STARTCHAR asciicircum
ENCODING 94
SWIDTH 700 0
DWIDTH 17 0
BBX 12 13 2 1
BITMAP
000000361000
000003EFA000
00000BFFE100
00004FFFF500
0000DFEEFA00
0006FF69FE00
001EFC04FF40
008FF400EF90
02FFB000AFE0
0AFF30005FF3
4FF900001FF8
BFE200000BFC
9E60000005E7
ENDCHAR
STARTCHAR underscore
ENCODING 95
SWIDTH 354 0
DWIDTH 9 0
BBX 9 3 -1 -3
BITMAP
1888888840
8FFFFFFFC0
4EFFFFFF80
ENDCHAR
STARTCHAR grave
ENCODING 96
SWIDTH 600 0
DWIDTH 14 0
BBX 7 7 2 13
BITMAP
09E60000
1FFF1000
0BFF8000
01DFE100
003FF700
0005FD00
00008D10
ENDCHAR
STARTCHAR a
ENCODING 97
SWIDTH 470 0
DWIDTH 11 0
BBX 15 11 0 0
BITMAP
00003AEE10000000
0007FFFFFF500000
007FFFCCFF600000
02FFF60AFF300000
09FF900DFF000000
0EFF202FFC000100
1FFE006FFA005F40
2FFE00CFF905FF40
0EFFBCFFFEBFFA00
08FFFFD8FFFFA000
009EEA109ED60000
ENDCHAR
STARTCHAR b
ENCODING 98
SWIDTH 473 0
DWIDTH 11 0
BBX 14 22 1 0
BITMAP
00001AED300000
0001DFFFD00000
000AFEBFF30000
003FF71FF40000
00AFF11FF30000
01FFB04FF10000
06FF708FB00000
0AFF30DF500000
0EFF15FC000000
1FFD0DF3000000
4FFB6F70000000
6FFADFE9100000
8FFEFFFFC00000
9FFFA8FFF70000
AFFC05FFFB1362
AFF702FFFFFFF8
9FF5007FFFFFF5
7FF6000EFC8620
4FFB007FF50000
0EFFBAFFD00000
05FFFFFE200000
005CEEA2000000
ENDCHAR
STARTCHAR c
ENCODING 99
SWIDTH 368 0
DWIDTH 9 0
BBX 12 11 0 0
BITMAP
0003AEEA1000
005FFFFF9000
03FFFADFC000
0AFF809FB000
1FFF10AF5000
2FFD00010012
3FFD000001CD
1FFF40004DFC
0BFFFA9CFFE3
02EFFFFFFC30
0029DFEB6000
ENDCHAR
STARTCHAR d
ENCODING 100
SWIDTH 515 0
DWIDTH 12 0
BBX 16 22 0 0
BITMAP
00000000004DE700
0000000004FFFF30
000000000CFDEF70
000000004FF49F90
000000009FE08F80
00000000EFB09F70
00000002FF80BF40
00000006FF50FF10
00000008FF34FB00
0000000BFF29F600
0000000DFF1EE100
00003AEFFE6F8000
0008FFFFFDCF2000
008FFFAFFFFA0000
03FFF42FFFF20000
0AFF702FFF800000
0EFF101FFE100020
1FFD000EFD0004F6
2FFE006FFF104EF5
0EFFBAFFFFCAFFA0
07FFFFF4DFFFFA00
008EEB302CEC5000
ENDCHAR
STARTCHAR e
ENCODING 101
SWIDTH 393 0
DWIDTH 9 0
BBX 13 11 0 0
BITMAP
0003AEEB200000
005FFFFFD00000
03FFFADFF30000
0AFF605FF30000
0FFD00BFD00000
2FFC6DFE400310
2FFFFFA2006F70
1FFF81002AFF60
0AFFEA9BFFFA00
01DFFFFFFF8000
0018CEEC820000
ENDCHAR
STARTCHAR f
ENCODING 102
SWIDTH 371 0
DWIDTH 9 0
BBX 11 30 1 -8
BITMAP
0000019EC200
00001CFFFC00
0000AFFBFF10
0004FF72FF30
000BFF12FF20
002FFA04FF00
008FF508FC00
00DFF10DF600
03FFC04FE100
06FF90CF7000
0AFF55FD0000
0DFF4EF30000
0FFFCF700000
3FFFF9000000
5FFFB0000000
7FFB00000000
8FF69FFFFF40
9FF7FFFFFF30
AFF6FD787300
BFF4EE000000
BFF4CF200000
BFF49F400000
BFF58F500000
AFF57F700000
8FF66F700000
7FF75F700000
4FF97F500000
1FFEDF200000
09FFFA000000
01BEB1000000
ENDCHAR
STARTCHAR g
ENCODING 103
SWIDTH 479 0
DWIDTH 12 0
BBX 15 22 0 -11
BITMAP
00003AEE10000000
0007FFFFFF400000
007FFFCCFF500000
02FFF60AFF200000
09FF900DFE000000
0EFF202FFC000200
1FFE005FF903CF10
2FFE00BFF78FFE00
0EFFBCFFFFFFD300
08FFFFEFFFF91000
009EE8BFFD400000
00001BFFD1000000
0002DFFF90000000
002DFEFF60000000
01DFA7FF20000000
0BFB0BFD00000000
5FE11FF800000000
BF806FF300000000
FF51EFB000000000
FFCCFF4000000000
BFFFF80000000000
2BED700000000000
ENDCHAR
STARTCHAR h
ENCODING 104
SWIDTH 502 0
DWIDTH 12 0
BBX 15 22 1 0
BITMAP
00001AED30000000
0001DFFFD0000000
0009FFBFF3000000
002FF81FF4000000
009FF11FF3000000
00EFB03FE0000000
04FF708FA0000000
08FF31EF30000000
0CFF08FA00000000
0FFC2FE200000000
2FFBDF5000000000
4FFFF83BEB000000
6FFFA4FFFF300000
8FFB3EFFFF200000
9FF4CFBFFE000000
9FF8FA2FFB000000
AFFEF24FF8000400
AFFF907FF500AF10
BFFF409FF409FE00
BFFE00AFFCCFF500
AFF8007FFFFE5000
6EB1001AEEA20000
ENDCHAR
STARTCHAR i
ENCODING 105
SWIDTH 246 0
DWIDTH 6 0
BBX 8 16 1 0
BITMAP
01BEC200
09FFF800
0AFFF600
03DEA100
00000000
07ED0000
0EFF0000
2FFC0000
6FF90000
9FF60000
BFF30013
DFF100BE
CFF10BFD
BFFBDFF4
5FFFFE40
08EEA200
ENDCHAR
STARTCHAR j
ENCODING 106
SWIDTH 254 0
DWIDTH 6 0
BBX 15 27 -6 -11
BITMAP
000000006EE60000
00000002FFFE0000
00000003FFFD0000
00000000AED40000
0000000000000000
000000008EC00000
00000001FFE00000
00000002FFD00000
00000004FFB00000
00000006FF900000
00000008FF600110
00000009FF405E90
0000000BFF3AFF80
0000000DFFDFF910
0000000EFFFD4000
0000001FFFA10000
000001CFF8000000
00003DFFF4000000
0004EFEFF1000000
003EF5DFC0000000
01EF52FF80000000
0AFA07FF30000000
2FF20CFC00000000
5FE05FF600000000
6FFAEFD000000000
3FFFFE3000000000
05DEB30000000000
ENDCHAR
STARTCHAR k
ENCODING 107
SWIDTH 525 0
DWIDTH 13 0
BBX 15 22 1 0
BITMAP
00001AED30000000
0001DFFFD0000000
0009FFBFF3000000
002FF71FF4000000
009FF11FF3000000
00EFB04FE0000000
04FF709F90000000
08FF31EF20000000
0CFF08F800000000
0FFC3FD100000000
2FFBDE3000000000
4FFFF53BEC400000
6FFF75FFFFE10000
8FF83FFAFFF40000
9FF4DF40CFF30000
9FF9F802EFD00000
AFFFE16EFF400330
AFFF87FFD3003EA0
AFFF39FF8003EF80
9FFD06FFFBAFFC10
7FF901DFFFFFC100
1DD20019EFD70000
ENDCHAR
STARTCHAR l
ENCODING 108
SWIDTH 326 0
DWIDTH 8 0
BBX 10 22 1 0
BITMAP
00001AED30
0001DFFFC0
0009FEBFF2
002FF72FF4
009FF11FF4
01EFB02FF3
05FF604FF0
09FF308FB0
0DFE00CF70
1FFC03FF10
3FF909FA00
6FF71FF300
8FF68FB000
9FF7FF3000
AFFEF90000
AFFFE10000
9FFF400012
8FF90001CD
4FFA001BFC
1EFFAAEFE3
06FFFFFE30
006DFD8100
ENDCHAR
STARTCHAR m
ENCODING 109
SWIDTH 744 0
DWIDTH 18 0
BBX 20 11 1 0
BITMAP
06EE005DE6004CF90000
0EFD08FFFB07FFFF0000
3FF96FFFFA5FFFFE0000
6FF7EFCFF8EFBFFB0000
9FFAF66FFBF75FF80000
AFFED08FFFD07FF50013
BFFF60AFFF60AFF201CD
CFFF10BFFF10CFF11BFC
BFFB00CFFB00DFFBDFE3
9FF700AFF600AFFFFE40
2DD1003EC1002BED9200
ENDCHAR
STARTCHAR n
ENCODING 110
SWIDTH 496 0
DWIDTH 12 0
BBX 14 11 1 0
BITMAP
06EE004CEA0000
0EFD06FFFF1000
3FF94FFFFE0000
6FF6DFBFFC0000
9FF9F84FF90000
AFFEE16FF60013
BFFF709FF300BE
CFFF20CFF21BFD
BFFC00CFFBDFF4
9FF7009FFFFE40
2DD1002BED9200
ENDCHAR
STARTCHAR o
ENCODING 111
SWIDTH 451 0
DWIDTH 11 0
BBX 14 11 0 0
BITMAP
0004BEFC400000
006FFFFFF40000
03FFFBEFFD0000
0BFF70DFFF4144
1FFE00AFFFFFFF
2FFD002DFFFFFC
2FFD0008FF9741
1FFF301DFC0000
0AFFE9DFF60000
02DFFFFF900000
0029EFC6000000
ENDCHAR
STARTCHAR p
ENCODING 112
SWIDTH 481 0
DWIDTH 12 0
BBX 18 22 -3 -11
BITMAP
00002CF53BFD400000
00007FFAEFFFE10000
00007FFFE9EFF70000
00007FFE306FF90000
00007FF8006FF90000
00007FF7009FF60011
0000AFF701EFF202E8
0003FFF709FFA03DF8
000BFFFABFFFBAFFD1
004FFFFFFFFFFFFC10
00BFBFFFC75DEC7000
03FC8FF40000000000
09F79FF30000000000
0EF2AFF10000000000
3FC0CFE00000000000
7F90DFC00000000000
AF61FF900000000000
CF53FF500000000000
DF57FF100000000000
BFCEFA000000000000
7FFFE2000000000000
1AEC40000000000000
ENDCHAR
STARTCHAR q
ENCODING 113
SWIDTH 500 0
DWIDTH 12 0
BBX 16 22 0 -10
BITMAP
000000004EE40000
00003AEEDFF50000
0006FFFFFFF10000
006FFFCBFFC00000
02FFF709FF700000
09FF900DFF300000
0EFF202FFE000000
1FFE006FFA288880
2FFE00DFF6CFFFF2
0EFFBCFFF3EFFFA0
08FFFFFFF1DF1000
009EE7FFD0CF1000
000004FFB0BF2000
000006FF90CF1000
000007FF80DF0000
000008FF70EE0000
000008FF71FC0000
000007FF74F90000
000006FFB9F50000
000002FFFFE10000
000000BFFF700000
0000001AC7000000
ENDCHAR
STARTCHAR r
ENCODING 114
SWIDTH 455 0
DWIDTH 11 0
BBX 14 11 1 0
BITMAP
06EE004CEA0000
0EFD06FFFF0000
3FF94FFFFE0000
6FF6DFBFFB0040
9FF9F92FFC19F3
AFFEE13FFFFFF2
BFFF701DFFFE40
CFFF2002897100
BFFC0000000000
9FF70000000000
2DD10000000000
ENDCHAR
STARTCHAR s
ENCODING 115
SWIDTH 427 0
DWIDTH 10 0
BBX 15 12 -1 -1
BITMAP
000003DF60000000
00000CFF30000000
00004FFD00000000
0000BFFC00000000
0003FFFF50000000
000BFFFFE1000000
007FF5DFFA001910
04FF905FFF20AF40
1EFB000EFF5AFD10
2FB17EEFFFFFD200
0200DFFFFEC81000
00004CEC40000000
ENDCHAR
STARTCHAR t
ENCODING 116
SWIDTH 393 0
DWIDTH 9 0
BBX 13 21 0 0
BITMAP
0000005DE70000
000005FFFF2000
00002EFBFF6000
00009FD0DF7000
0001FF70DF5000
0007FF21FF2000
000BFD06FC0000
001FFA1DF50000
004FF89FA00000
007FFDFB100000
AFFFFFFFFF9000
EFFFFFFFFF8000
58EFF988850000
00DFF100000000
00DFF100000000
00DFF200000100
00BFF400003E70
008FFA0004EF60
003FFFC9BFFC10
0008FFFFFFB100
00006CEEC60000
ENDCHAR
STARTCHAR u
ENCODING 117
SWIDTH 462 0
DWIDTH 11 0
BBX 14 11 1 0
BITMAP
05EE100AF60000
0DFF104FF60000
3FFC008FF30000
6FF800DFF00000
9FF503FFC00000
BFF309FF900000
CFF12FFF6006E1
CFF3CFFF506FF1
BFFFFCFFCBFF80
6FFFD3FFFFF700
09EB208EEA3000
ENDCHAR
STARTCHAR v
ENCODING 118
SWIDTH 449 0
DWIDTH 11 0
BBX 13 11 1 0
BITMAP
7EC0007ED20000
CFF105FFF70000
CFF10BFFF60000
BFF20BFFF32540
BFF308FFFFFFE0
AFF41EFFFFFFA0
9FF59FF7676300
8FF9FFA0000000
6FFFFE10000000
2FFFF400000000
07ED5000000000
ENDCHAR
STARTCHAR w
ENCODING 119
SWIDTH 700 0
DWIDTH 17 0
BBX 19 11 1 0
BITMAP
7EC0003DD0007ED20000
CFF100BFF205FFF80000
CFF102FFF20AFFF70000
BFF208FFF20BFFF32550
BFF30EFFF308FFFFFFF0
AFF46FFFF41EFFFFFFB0
9FF5DFBFF59FF7676300
8FFBFE5FFAFFB0000000
6FFFF92FFFFE20000000
2FFFE10EFFF500000000
07ED4005ED5000000000
ENDCHAR
STARTCHAR x
ENCODING 120
SWIDTH 529 0
DWIDTH 13 0
BBX 16 11 0 0
BITMAP
002BED7019EE7000
00CFFFF9DFFFF000
00FFCDFFFECFE000
00BE36FFF53E7000
000004FFF0000000
014105FFD0000022
2EF508FFC00002DB
7FF41EFFF2003DFA
8FFBCFFFFE9AFFD2
4FFFFF8FFFFFFC20
07DEB404BEEC6000
ENDCHAR
STARTCHAR y
ENCODING 121
SWIDTH 479 0
DWIDTH 12 0
BBX 16 22 -1 -11
BITMAP
0005EE100AF60000
000DFF104FF70000
003FFC008FF40000
006FF800DFF20000
009FF603FFE00000
00BFF309FFC00000
00CFF12FFF9008D0
00CFF3CFFF73CFF1
00BFFFFDFFBFFE50
006FFFD8FFFFB200
0009EB39FFE60000
0000006FFD200000
000009FFF9000000
0000BFEFF6000000
000BFA8FF2000000
009FB0BFD0000000
04FE11FF80000000
0BF707FF30000000
0FF51EFB00000000
1FFCCFF300000000
0CFFFF8000000000
02BED60000000000
ENDCHAR
STARTCHAR z
ENCODING 122
SWIDTH 445 0
DWIDTH 11 0
BBX 13 11 1 0
BITMAP
5FFFFFFFFE3000
8FFFFFFFFF5000
28889EFFFB1000
0007EFFB400000
01CFFC40000000
0CFF9000000340
5FFE0000004EB0
7FFE100018FF90
4FFFEA9BFFFC10
09FFFFFFFF9100
004ADFEC830000
ENDCHAR
STARTCHAR braceleft
ENCODING 123
SWIDTH 490 0
DWIDTH 12 0
BBX 13 24 1 -2
BITMAP
00000005BEFE70
000000AFFFFFD0
000006FFFD9830
00000BFFA00000
00000EFF400000
00001FFF200000
00003FFF000000
00005FFD000000
00007FFC000000
0001DFF8000000
28AEFFD1000000
AFFFFC20000000
7FFFFF40000000
002BFFB0000000
0006FFD0000000
0007FFC0000000
0008FFA0000000
000AFF80000000
000CFF60000000
000EFF40000000
000DFF70000000
000AFFFB960000
0002EFFFFF5000
00002ADFEB1000
ENDCHAR
STARTCHAR bar
ENCODING 124
SWIDTH 326 0
DWIDTH 8 0
BBX 8 30 0 -8
BITMAP
00002DE5
00007FF8
00009FF6
0000AFF4
0000CFF2
0000EFF0
0001FFD0
0004FFB0
0006FF90
0008FF70
000AFF50
000DFF20
000FFF00
002FFD00
005FFA00
007FF800
009FF600
00CFF300
00EFF100
01FFE000
03FFC000
05FFA000
08FF7000
0AFF5000
0CFF3000
0EFF1000
1FFE0000
3FFC0000
3FFA0000
05610000
ENDCHAR
STARTCHAR braceright
ENCODING 125
SWIDTH 490 0
DWIDTH 12 0
BBX 13 24 -1 -2
BITMAP
002CEFD9100000
007FFFFFD10000
00179CFFF70000
0000009FFB0000
0000006FFC0000
0000008FFB0000
000000AFF90000
000000CFF70000
000000EFF50000
000000DFF70000
0000009FFFA820
0000001CFFFFA0
0000009FFFFE50
000006FFF61000
00000BFF800000
00000DFF500000
00001FFF300000
00002FFF100000
00004FFE000000
00006FFD000000
0000BFFA000000
48ADFFF4000000
FFFFFF90000000
9EFEB500000000
ENDCHAR
STARTCHAR asciitilde
ENCODING 126
SWIDTH 700 0
DWIDTH 17 0
BBX 15 6 1 4
BITMAP
0003740000000000
007FFFC30002CE20
04FFFFFFA21CFF20
0DFF79FFFECFFA00
2FF9002BFFFFE200
055000004BEB2000
ENDCHAR
STARTCHAR uni00A0
ENCODING 160
SWIDTH 265 0
DWIDTH 6 0
BBX 1 1 0 0
BITMAP
00
ENDCHAR
STARTCHAR exclamdown
ENCODING 161
SWIDTH 340 0
DWIDTH 8 0
BBX 9 20 -1 -9
BITMAP
00005DEA00
0000EFFF50
0001FFFF40
00007EE800
0000000000
00007A2000
0002FF6000
0007FF3000
000CFF1000
002FFD0000
006FFA0000
00BFF70000
01FFF30000
05FFF00000
09FFC00000
0DFF900000
2FFF500000
6FFF200000
9FFC000000
2761000000
ENDCHAR
STARTCHAR cent
ENCODING 162
SWIDTH 466 0
DWIDTH 11 0
BBX 10 17 1 -3
BITMAP
0000044000
00000EB000
00001F9000
00016FA200
007EFFFF70
09FFFFDFF2
4FFA8F3FF3
AFF2AD4FE1
DFE0CB1630
EFE0E90051
BFF3F807F6
6FFEF9AFF3
0BFFFFFF70
007DFEB400
0009F00000
000BE00000
000B900000
ENDCHAR
STARTCHAR sterling
ENCODING 163
SWIDTH 525 0
DWIDTH 13 0
BBX 13 14 0 0
BITMAP
000004BEFD7100
00008FFFFFFC00
0006FFFBAFFF50
000EFF6007FF80
004FFC0001DF50
007FF700001200
009FF500000000
2EFFFFFFF60000
2CFFFDDDD40000
00DFF100000000
00EFF000000000
1AFFF888888700
7FFFFFFFFFFF20
4FFFFFFFFFFA00
ENDCHAR
STARTCHAR currency
ENCODING 164
SWIDTH 700 0
DWIDTH 17 0
BBX 12 11 3 1
BITMAP
BB1168610AD1
EFCEFFFECFF2
4FFFFFFFFF50
0CFC313BFD00
3FF10001EF50
5FD00000BF70
3FF10001EF50
0CFC313BFD00
3EFFFFFFFF40
EFDEFFFEDFE1
CC1168611AD1
ENDCHAR
STARTCHAR yen
ENCODING 165
SWIDTH 497 0
DWIDTH 12 0
BBX 13 14 0 0
BITMAP
1CE7000001BEA0
1FFF30000AFF90
0AFFB0005FFC10
02EFF402EFE200
007FFC0CFF5000
000DFFBFF80000
0004FFFFB00000
07DDFFFFDDA000
0AFFFFFFFFC000
0000AFF7000000
0CFFFFFFFF9000
0BDDFFFDDD6000
0000FFF2000000
0000CFB0000000
ENDCHAR
STARTCHAR brokenbar
ENCODING 166
SWIDTH 326 0
DWIDTH 8 0
BBX 8 30 0 -8
BITMAP
00002DE5
00007FF8
00009FF6
0000BFF4
0000DFF2
0000FFF0
0002FFD0
0005FFB0
0007FF80
0009FF60
000BFF40
000DFF20
0007C800
00000000
00000000
00000000
00043000
009FF200
00DFF200
00FFF000
02FFD000
05FFB000
07FF8000
09FF6000
0BFF4000
0DFF2000
0FFF0000
2FFD0000
4FF90000
05610000
ENDCHAR
STARTCHAR section
ENCODING 167
SWIDTH 607 0
DWIDTH 15 0
BBX 13 20 1 0
BITMAP
000018DEFD8100
0002EFFFFFFC00
000CFFD9AEFF40
002FFC0005FF60
004FF90005FF50
002FFE3002CA00
000BFFF9300000
004FFFFFFB3000
00EFB5CFFFF300
03FF7004CFFB00
03FFC1001EFD00
00EFFE811EFA00
003DFFFFDFE300
00017DFFFF5000
08B3004CFFB000
3FF70001EFE000
4FF80001FFD000
2FFFB9AEFF9000
08FFFFFFFC1000
004BDFEC710000
ENDCHAR
STARTCHAR dieresis
ENCODING 168
SWIDTH 600 0
DWIDTH 14 0
BBX 9 4 3 13
BITMAP
3DE503DE50
AFFB0AFFB0
BFFA0BFFA0
5ED305ED30
ENDCHAR
STARTCHAR copyright
ENCODING 169
SWIDTH 647 0
DWIDTH 16 0
BBX 14 14 2 8
BITMAP
00006ACCA50000
004EFFFFFFD300
04FF931139FF40
1EF406CEC35FD1
7F708F84DB08F6
CF12F900CB02FB
ED07F3002100ED
ED09F1000000DE
DF17F4000101FC
8F62FC217C07F7
2FE24DFFC33EE1
06FE612117EF50
006FFFDEFFE500
00028CEEC82000
ENDCHAR
STARTCHAR ordfeminine
ENCODING 170
SWIDTH 393 0
DWIDTH 9 0
BBX 10 9 1 11
BITMAP
00019DE430
003EFFFFF2
01EFE38FF2
08FF40BFE0
0EFC00EFC0
1FF904FFA0
1FFB1CFF90
0BFFFDFF80
02CFC3EF50
ENDCHAR
STARTCHAR guillemotleft
ENCODING 171
SWIDTH 615 0
DWIDTH 15 0
BBX 14 9 0 1
BITMAP
00004DD1002AE6
0019FFF406EFFA
04DFFE61BFFFA1
2FFFC20BFFE500
4FFE200EFF6000
1CFFD307FFF700
01BFFE507FFF90
0009FFF104EFF7
00006EA0003CD2
ENDCHAR
STARTCHAR logicalnot
ENCODING 172
SWIDTH 700 0
DWIDTH 17 0
BBX 14 8 2 0
BITMAP
38888888888840
EFFFFFFFFFFFF1
BFFFFFFFFFFFF0
0000000001FFD0
0000000003FFB0
0000000005FF90
0000000006FF60
00000000006600
ENDCHAR
STARTCHAR uni00AD
ENCODING 173
SWIDTH 403 0
DWIDTH 10 0
BBX 8 5 1 5
BITMAP
00000010
29BCEFF9
9FFFFFFB
6FFECB93
01000000
ENDCHAR
STARTCHAR registered
ENCODING 174
SWIDTH 647 0
DWIDTH 16 0
BBX 14 14 2 8
BITMAP
00006ACCA50000
004EFFFFFFD300
04FF931139FF40
1EF47DFE915FD1
7F703F82EA08F6
CF102F50CD02FB
ED005F46F600ED
ED008FFC4000DE
DF10AD5F6001FC
8F60DA0BF207F7
2FE2A602C53EE1
06FE610017EF50
006FFFDEFFE500
00028CEEC82000
ENDCHAR
STARTCHAR macron
ENCODING 175
SWIDTH 600 0
DWIDTH 14 0
BBX 9 3 3 13
BITMAP
1888888700
7FFFFFFF20
5FFFFFFC00
ENDCHAR
STARTCHAR degree
ENCODING 176
SWIDTH 385 0
DWIDTH 9 0
BBX 8 8 2 13
BITMAP
00378400
07FFFF90
3FFFFFF4
8FC22CF8
AF900AF8
8FFABFF5
2EFFFFC0
03BEE910
ENDCHAR
STARTCHAR plusminus
ENCODING 177
SWIDTH 700 0
DWIDTH 17 0
BBX 13 14 2 0
BITMAP
00000037200000
000001FF900000
000003FF800000
000005FF600000
06EFFFFFFFFE30
0CFFFFFFFFFF50
05AAAEFFAAA800
00000DFE000000
00000FFC000000
00000EF8000000
00000340000000
2AAAAAAAAAA200
AFFFFFFFFFF700
7FFFFFFFFFD200
ENDCHAR
STARTCHAR uni00B2
ENCODING 178
SWIDTH 450 0
DWIDTH 11 0
BBX 10 12 1 8
BITMAP
0019DFDA20
02DFFFFFE1
09FE42AFF7
0DF8005FF8
0AF5008FF6
001001EFF1
00000BFF70
0001AFFA00
004DFF8000
1BFFF84442
8FFFFFFFFC
6FFFFFFFF8
ENDCHAR
STARTCHAR uni00B3
ENCODING 179
SWIDTH 450 0
DWIDTH 11 0
BBX 10 12 1 8
BITMAP
0018DEEC60
01DFFFFFF7
08FE416FFC
09F8002FFB
014001AFF5
0000AEFE60
0001FFFC50
000036DFF4
2EB0005FF9
4FF712BFF8
1DFFFFFFD1
029DFEC810
ENDCHAR
STARTCHAR acute
ENCODING 180
SWIDTH 600 0
DWIDTH 14 0
BBX 6 7 6 13
BITMAP
001CE4
007FF9
00EFF4
06FF80
0DFB00
5FD100
6D3000
ENDCHAR
STARTCHAR uni00B5
ENCODING 181
SWIDTH 462 0
DWIDTH 11 0
BBX 15 17 0 -6
BITMAP
005EE100AF600000
00DFF104FF600000
02FFC008FF300000
06FF800DFF000000
09FF503FFC000000
0BFF309FF9000000
0DFF12FFF6006E10
0FFF3CFFF506FF10
1FFFFFCFFCBFF800
2FFFFD4FFFFF7000
3FFFC208EEA30000
4FF9000000000000
4FF9000000000000
5FF9000000000000
5FF9000000000000
5FF9000000000000
2DE4000000000000
ENDCHAR
STARTCHAR paragraph
ENCODING 182
SWIDTH 739 0
DWIDTH 18 0
BBX 15 20 2 0
BITMAP
00038BDEFFEC9400
01AFFFFFFFFFFF60
0CFFFFFFFB9FFFB0
5FFFFFFFF40BFFB0
8FFFFFFFF20CFF90
8FFFFFFFE00EFF60
3FFFFFFFB01FFF40
07FFFFFF903FFF10
004BFFFF606FFE00
00001FFF408FFB00
00003FFF10BFF800
00005FFE00EFF600
00008FFC01FFF400
0000AFF904FFF100
0000DFF706FFE000
0000FFF509FFC000
0002FFF40BFFA000
0004FFF20CFF8000
0004FFF00DFF6000
0001CE8008ED2000
ENDCHAR
STARTCHAR periodcentered
ENCODING 183
SWIDTH 257 0
DWIDTH 6 0
BBX 5 4 1 4
BITMAP
3CFC20
BFFF80
CFFF70
4DEA10
ENDCHAR
STARTCHAR cedilla
ENCODING 184
SWIDTH 600 0
DWIDTH 14 0
BBX 8 7 1 -6
BITMAP
00BDB710
02EFFFB0
00016FF3
00002FF4
2889EFE1
8FFFFF70
4DFEB400
ENDCHAR
STARTCHAR uni00B9
ENCODING 185
SWIDTH 450 0
DWIDTH 11 0
BBX 8 12 2 8
BITMAP
0027BEC0
2BFFFFF1
7FFDFFE0
1621FFC0
0003FFA0
0005FF80
0007FF60
0009FF40
000BFF20
000DFF00
000EFD00
000AE700
ENDCHAR
STARTCHAR ordmasculine
ENCODING 186
SWIDTH 408 0
DWIDTH 10 0
BBX 9 10 2 10
BITMAP
008DFD6000
0BFFFFF700
6FF84DFE00
CFD007FF30
EFA006FF30
FFA008FF10
CFE33EFB00
5FFFFFE300
06EFFC3000
0002100000
ENDCHAR
STARTCHAR guillemotright
ENCODING 187
SWIDTH 615 0
DWIDTH 15 0
BBX 14 9 1 1
BITMAP
4EB1001CD40000
AFFD205FFF6000
1CFFE408FFF900
00AFFF405FFFA0
0009FFB004FFF1
007FFF804DFFD0
2CFFF918FFFC20
DFFD407FFF7000
8E81004EC30000
ENDCHAR
STARTCHAR onequarter
ENCODING 188
SWIDTH 955 0
DWIDTH 23 0
BBX 21 21 2 -1
BITMAP
0027BEC000000000000000
2BFFFFF100000000000000
7FFDFFE000000000000000
1621FFC000006E70000000
0003FFA00002EFC0000000
0005FF80000BFF60000000
0007FF60005FFC00000000
0009FF4001DFF300000000
000BFF2008FF8000000000
000DFF002FFD108EA00000
000EFD00BFF504FF800000
000AE705FFB00BFE179100
0000001EFF204FF84FF400
0000009FF800BFE18FF200
000003FFD002FF80BFE000
00000CFF4008FF20EFB000
00003FFA000CFFFFFFFE20
00001CD2000AFFFFFFFF30
0000000000014448FF8200
0000000000000005FF4000
0000000000000003EC1000
ENDCHAR
STARTCHAR onehalf
ENCODING 189
SWIDTH 1024 0
DWIDTH 25 0
BBX 22 21 2 -1
BITMAP
0027BEC000000000000000
2BFFFFF100000000000000
7FFDFFE000000000000000
1621FFC000006E70000000
0003FFA00002EFC0000000
0005FF80000BFF60000000
0007FF60005FFC00000000
0009FF4001DFF300000000
000BFF2008FF8000000000
000DFF002FFD103AEFD810
000EFD00BFF504FFFFFFB0
000AE705FFB00DFC32DFF2
0000001EFF202FF4009FF4
0000009FF8001EE100CFF2
000003FFD000000004FFC0
00000CFF400000002DFF30
00003FFA00000002DFF600
00001CD20000007EFE5000
0000000000004DFFD64441
000000000000CFFFFFFFF8
000000000000BFFFFFFFE4
ENDCHAR
STARTCHAR threequarters
ENCODING 190
SWIDTH 1035 0
DWIDTH 25 0
BBX 24 21 1 -1
BITMAP
0018DEEC6000000000000000
01DFFFFFF700000000000000
08FE416FFC00000000000000
09F8002FFB000007E6000000
014001AFF500003FFA000000
0000AEFE600000CFF5000000
0001FFFC500006FFA0000000
000036DFF4001EFE20000000
2EB0005FF9009FF700000000
4FF712BFF803FFD009E80000
1DFFFFFFD10CFF405FF70000
029DFEC8107FFA00DFD18910
0000000002EFE105FF66FF30
000000000AFF600CFD0AFF00
000000004FFC004FF70DFC00
00000000DFF300AFE10FFA00
00000004FF9000EFFFFFFFE1
00000001DC1000CFFFFFFFF1
0000000000000014448FF720
0000000000000000007FF200
0000000000000000004EB000
ENDCHAR
STARTCHAR questiondown
ENCODING 191
SWIDTH 476 0
DWIDTH 11 0
BBX 11 20 -1 -9
BITMAP
0000001AED40
0000007FFFC0
0000008FFFB0
0000002CFC30
000000000000
0000002A6000
0000009FB000
000001EF8000
00000BFF3000
0001BFF90000
002CFFB00000
02DFFC100000
1DFFC1000000
8FFE20028500
DFF90007FF20
FFF70008FF30
EFFC214EFE10
9FFFFFFFF800
1BFFFFFF8000
003788620000
ENDCHAR
STARTCHAR Agrave
ENCODING 192
SWIDTH 786 0
DWIDTH 19 0
BBX 21 28 1 0
BITMAP
0000000371000000000000
0000001FFE300000000000
0000001EFFF50000000000
00000004CFFF8000000000
0000000005DFFA00000000
000000000005CC00000000
0000000000000000000000
0000000000000000000000
0000000016ACEFEDB84000
0000002AFFFFFFFFFFF100
000007FFFFFECCDEFFC000
00009FFFE7200000241000
0009FFFA100006ED400000
005FFF9000000EFF800000
01EFFC0000002FFF500000
07FFF30000005FFF100000
0DFFB00000009FFC000000
2FFF60000000CFF9000000
6FFF20000001FFF6000000
8FFF00000006FFF3000000
9FFE0000000BFFF1000000
9FFE0000002FFFE0000000
8FFF1000009FFFD0000130
6FFF500003FFFFE0001CD0
1FFFD2004EFCFFF302CFC0
07FFFFCDFFB3FFFECEFE30
009FFFFFFC10AFFFFFE400
0005BEEC710018DFD92000
ENDCHAR
STARTCHAR Aacute
ENCODING 193
SWIDTH 786 0
DWIDTH 19 0
BBX 21 28 1 0
BITMAP
0000000000000000056000
0000000000000000AFF800
000000000000001CFFF800
00000000000003DFFF8000
0000000000003EFF920000
0000000000005E92000000
0000000000000000000000
0000000000000000000000
0000000016ACEFEDB84000
0000002AFFFFFFFFFFF100
000007FFFFFECCDEFFC000
00009FFFE7200000241000
0009FFFA100006ED400000
005FFF9000000EFF800000
01EFFC0000002FFF500000
07FFF30000005FFF100000
0DFFB00000009FFC000000
2FFF60000000CFF9000000
6FFF20000001FFF6000000
8FFF00000006FFF3000000
9FFE0000000BFFF1000000
9FFE0000002FFFE0000000
8FFF1000009FFFD0000130
6FFF500003FFFFE0001CD0
1FFFD2004EFCFFF302CFC0
07FFFFCDFFB3FFFECEFE30
009FFFFFFC10AFFFFFE400
0005BEEC710018DFD92000
ENDCHAR
STARTCHAR Acircumflex
ENCODING 194
SWIDTH 786 0
DWIDTH 19 0
BBX 21 29 1 0
BITMAP
0000000000001672000000
000000000001DFFD100000
00000000000AFEFF600000
00000000005FF7CFC00000
0000000001EFD18FF30000
0000000009FF503FF70000
0000000007E9000BE40000
0000000000000000000000
0000000000000000000000
0000000016ACEFEDB84000
0000002AFFFFFFFFFFF100
000007FFFFFECCDEFFC000
00009FFFE7200000241000
0009FFFA100006ED400000
005FFF9000000EFF800000
01EFFC0000002FFF500000
07FFF30000005FFF100000
0DFFB00000009FFC000000
2FFF60000000CFF9000000
6FFF20000001FFF6000000
8FFF00000006FFF3000000
9FFE0000000BFFF1000000
9FFE0000002FFFE0000000
8FFF1000009FFFD0000130
6FFF500003FFFFE0001CD0
1FFFD2004EFCFFF302CFC0
07FFFFCDFFB3FFFECEFE30
009FFFFFFC10AFFFFFE400
0005BEEC710018DFD92000
ENDCHAR
STARTCHAR Atilde
ENCODING 195
SWIDTH 786 0
DWIDTH 19 0
BBX 21 27 1 0
BITMAP
0000000000374000064000
0000000005FFFC308FF000
000000002EFCEFFAFFA000
000000008FD12CFFFE2000
000000002720008ED40000
0000000000000000000000
0000000000000000000000
0000000016ACEFEDB84000
0000002AFFFFFFFFFFF100
000007FFFFFECCDEFFC000
00009FFFE7200000241000
0009FFFA100006ED400000
005FFF9000000EFF800000
01EFFC0000002FFF500000
07FFF30000005FFF100000
0DFFB00000009FFC000000
2FFF60000000CFF9000000
6FFF20000001FFF6000000
8FFF00000006FFF3000000
9FFE0000000BFFF1000000
9FFE0000002FFFE0000000
8FFF1000009FFFD0000130
6FFF500003FFFFE0001CD0
1FFFD2004EFCFFF302CFC0
07FFFFCDFFB3FFFECEFE30
009FFFFFFC10AFFFFFE400
0005BEEC710018DFD92000
ENDCHAR
STARTCHAR Adieresis
ENCODING 196
SWIDTH 786 0
DWIDTH 19 0
BBX 21 26 1 0
BITMAP
0000000002CE702CE60000
0000000008FFE08FFE0000
0000000009FFD09FFD0000
0000000003DE503DE50000
0000000000000000000000
0000000000000000000000
0000000016ACEFEDB84000
0000002AFFFFFFFFFFF100
000007FFFFFECCDEFFC000
00009FFFE7200000241000
0009FFFA100006ED400000
005FFF9000000EFF800000
01EFFC0000002FFF500000
07FFF30000005FFF100000
0DFFB00000009FFC000000
2FFF60000000CFF9000000
6FFF20000001FFF6000000
8FFF00000006FFF3000000
9FFE0000000BFFF1000000
9FFE0000002FFFE0000000
8FFF1000009FFFD0000130
6FFF500003FFFFE0001CD0
1FFFD2004EFCFFF302CFC0
07FFFFCDFFB3FFFECEFE30
009FFFFFFC10AFFFFFE400
0005BEEC710018DFD92000
ENDCHAR
STARTCHAR Aring
ENCODING 197
SWIDTH 786 0
DWIDTH 19 0
BBX 21 29 1 0
BITMAP
0000000000019ED8000000
00000000000CFFFF800000
00000000004FFACFE00000
00000000006FB02FF00000
00000000005FFACFD00000
00000000001DFFFF600000
000000000002BED6000000
0000000000000000000000
0000000000000000000000
0000000016ACEFEDB84000
0000002AFFFFFFFFFFF100
000007FFFFFECCDEFFC000
00009FFFE7200000241000
0009FFFA100006ED400000
005FFF9000000EFF800000
01EFFC0000002FFF500000
07FFF30000005FFF100000
0DFFB00000009FFC000000
2FFF60000000CFF9000000
6FFF20000001FFF6000000
8FFF00000006FFF3000000
9FFE0000000BFFF1000000
9FFE0000002FFFE0000000
8FFF1000009FFFD0000130
6FFF500003FFFFE0001CD0
1FFFD2004EFCFFF302CFC0
07FFFFCDFFB3FFFECEFE30
009FFFFFFC10AFFFFFE400
0005BEEC710018DFD92000
ENDCHAR
STARTCHAR AE
ENCODING 198
SWIDTH 1015 0
DWIDTH 24 0
BBX 27 20 1 0
BITMAP
0000000049CFC106DFFFFFFFA000
0000005DFFFFF45FFFFFFFFFC000
00000AFFFFFD91CFFC9988882000
0001BFFFE72001FFF30000000000
000AFFFB100005FFE00000000000
006FFFA000000AFFB00000000000
01EFFC0000000EFF800000000000
07FFF40000003FFF500000000000
0DFFB00000007FFF200000000000
3FFF70000000BFFFFFFFFFE10000
6FFF20000001FFFFFFFFFFF20000
8FFF00000005FFFB888888500000
9FFE0000000AFFF5000000000000
9FFE0000001FFFF3000000000000
8FFF0000008FFFF4000000000000
5FFF500002EFFFF9000000000400
1EFFC1002CFD9FFF60000016DF50
07FFFD9AEFF42EFFFDA99CFFFF20
009FFFFFFF5003DFFFFFFFFFC400
0004ADFD92000006BDFFEB830000
ENDCHAR
STARTCHAR Ccedilla
ENCODING 199
SWIDTH 686 0
DWIDTH 16 0
BBX 19 26 1 -6
BITMAP
00000027BEFEB5000000
000008EFFFFFFF900000
0001BFFFEA9CFFF50000
000BFFF70000BFFA0000
007FFF6000006FFC0000
01EFF90000007FFB0000
08FFE10000009FF80000
0DFFA00000004DB10000
2FFF6000000000000000
4FFF3000000000000000
6FFF2000000000000000
7FFF1000000000000000
6FFF2000000000000000
5FFF5000000000000000
1FFFB000000000000000
0AFFF600000000000410
02EFFF8100000038EF60
005FFFFFB999BEFFFF40
0003DFFFFFFFFFFFD500
00000AFFFFFEDB730000
000007DFFF7000000000
00000001BFC000000000
00000000AFD000000000
0000789BFF9000000000
0001FFFFFD2000000000
0000AEFD910000000000
ENDCHAR
STARTCHAR Egrave
ENCODING 200
SWIDTH 686 0
DWIDTH 16 0
BBX 20 28 0 0
BITMAP
00000371000000000000
00001FFE300000000000
00001FFFF50000000000
000004CFFF8000000000
00000005DFF900000000
0000000005DC00000000
00000000000000000000
00000000000000000000
00000016ADEFEB600000
000006EFFFFFFFFB1000
00008FFFFCA9CFFF9000
0005FFFB200007FFE000
000BFFE1000002FFF100
000DFFA0000003FFF000
000CFFC0000004FFB000
0007FFF6000001992000
0000AFFFD98200000000
000019FFFFF700000000
0018EFFFFFE300000000
01CFFFA5210000000000
09FFE400000000000000
1FFF8000000000000000
3FFF5000000000000000
2FFF8000000000000031
0DFFF710000000159EF6
04FFFFEBA99ABDFFFFF4
003CFFFFFFFFFFFFFC50
000048BDEFFEDB962000
ENDCHAR
STARTCHAR Eacute
ENCODING 201
SWIDTH 686 0
DWIDTH 16 0
BBX 20 28 0 0
BITMAP
00000000000000056000
00000000000000AFF800
0000000000001CFFF700
000000000003DFFF8000
00000000003EFF910000
00000000005E92000000
00000000000000000000
00000000000000000000
00000016ADEFEB600000
000006EFFFFFFFFB1000
00008FFFFCA9CFFF9000
0005FFFB200007FFE000
000BFFE1000002FFF100
000DFFA0000003FFF000
000CFFC0000004FFB000
0007FFF6000001992000
0000AFFFD98200000000
000019FFFFF700000000
0018EFFFFFE300000000
01CFFFA5210000000000
09FFE400000000000000
1FFF8000000000000000
3FFF5000000000000000
2FFF8000000000000031
0DFFF710000000159EF6
04FFFFEBA99ABDFFFFF4
003CFFFFFFFFFFFFFC50
000048BDEFFEDB962000
ENDCHAR
STARTCHAR Ecircumflex
ENCODING 202
SWIDTH 686 0
DWIDTH 16 0
BBX 20 29 0 0
BITMAP
00000000001672000000
0000000001DFFD000000
000000000AFEFF600000
000000006FF7CFC00000
00000002EFD08FF30000
00000009FF504FF70000
00000008E8000BE30000
00000000000000000000
00000000000000000000
00000016ADEFEB600000
000006EFFFFFFFFB1000
00008FFFFCA9CFFF9000
0005FFFB200007FFE000
000BFFE1000002FFF100
000DFFA0000003FFF000
000CFFC0000004FFB000
0007FFF6000001992000
0000AFFFD98200000000
000019FFFFF700000000
0018EFFFFFE300000000
01CFFFA5210000000000
09FFE400000000000000
1FFF8000000000000000
3FFF5000000000000000
2FFF8000000000000031
0DFFF710000000159EF6
04FFFFEBA99ABDFFFFF4
003CFFFFFFFFFFFFFC50
000048BDEFFEDB962000
ENDCHAR
STARTCHAR Edieresis
ENCODING 203
SWIDTH 686 0
DWIDTH 16 0
BBX 20 26 0 0
BITMAP
00000002CE602CE60000
00000008FFE09FFD0000
00000009FFD0AFFC0000
00000003DE403DE40000
00000000000000000000
00000000000000000000
00000016ADEFEB600000
000006EFFFFFFFFB1000
00008FFFFCA9CFFF9000
0005FFFB200007FFE000
000BFFE1000002FFF100
000DFFA0000003FFF000
000CFFC0000004FFB000
0007FFF6000001992000
0000AFFFD98200000000
000019FFFFF700000000
0018EFFFFFE300000000
01CFFFA5210000000000
09FFE400000000000000
1FFF8000000000000000
3FFF5000000000000000
2FFF8000000000000031
0DFFF710000000159EF6
04FFFFEBA99ABDFFFFF4
003CFFFFFFFFFFFFFC50
000048BDEFFEDB962000
ENDCHAR
STARTCHAR Igrave
ENCODING 204
SWIDTH 495 0
DWIDTH 12 0
BBX 15 28 -1 0
BITMAP
0004710000000000
002FFD3000000000
002FFFE400000000
0004DFFF70000000
000006DFF8000000
00000006DB000000
0000000000000000
0000000000000000
0002CFFFFFFFFD20
0008FFFFFFFFFF30
0002889FFFB88500
0000003FFF300000
0000005FFF100000
0000007FFD000000
000000AFFB000000
000000CFF8000000
000000EFF6000000
000002FFF4000000
000004FFF1000000
000007FFE0000000
000009FFC0000000
00000BFF90000000
00000EFF70000000
00001FFF50000000
00003FFF30000000
0378BFFF98710000
3FFFFFFFFFF80000
3EFFFFFFFFD30000
ENDCHAR
STARTCHAR Iacute
ENCODING 205
SWIDTH 495 0
DWIDTH 12 0
BBX 16 28 -1 0
BITMAP
0000000000000560
000000000001BFF6
00000000002CFFF6
0000000004EFFE70
000000004FFE8100
000000006E810000
0000000000000000
0000000000000000
0002CFFFFFFFFD20
0008FFFFFFFFFF30
0002889FFFB88500
0000003FFF300000
0000005FFF100000
0000007FFD000000
000000AFFB000000
000000CFF8000000
000000EFF6000000
000002FFF4000000
000004FFF1000000
000007FFE0000000
000009FFC0000000
00000BFF90000000
00000EFF70000000
00001FFF50000000
00003FFF30000000
0378BFFF98710000
3FFFFFFFFFF80000
3EFFFFFFFFD30000
ENDCHAR
STARTCHAR Icircumflex
ENCODING 206
SWIDTH 495 0
DWIDTH 12 0
BBX 15 29 -1 0
BITMAP
0000000016710000
00000002DFFC0000
0000000BFEFF5000
0000007FF6DFB000
000002FFC09FF200
00000AFF405FF600
000009E8001CD300
0000000000000000
0000000000000000
0002CFFFFFFFFD20
0008FFFFFFFFFF30
0002889FFFB88500
0000003FFF300000
0000005FFF100000
0000007FFD000000
000000AFFB000000
000000CFF8000000
000000EFF6000000
000002FFF4000000
000004FFF1000000
000007FFE0000000
000009FFC0000000
00000BFF90000000
00000EFF70000000
00001FFF50000000
00003FFF30000000
0378BFFF98710000
3FFFFFFFFFF80000
3EFFFFFFFFD30000
ENDCHAR
STARTCHAR Idieresis
ENCODING 207
SWIDTH 495 0
DWIDTH 12 0
BBX 15 26 -1 0
BITMAP
000003DE503DE500
00000AFFC0AFFC00
00000AFFB0BFFB00
000004ED404ED400
0000000000000000
0000000000000000
0002CFFFFFFFFD20
0008FFFFFFFFFF30
0002889FFFB88500
0000003FFF300000
0000005FFF100000
0000007FFD000000
000000AFFB000000
000000CFF8000000
000000EFF6000000
000002FFF4000000
000004FFF1000000
000007FFE0000000
000009FFC0000000
00000BFF90000000
00000EFF70000000
00001FFF50000000
00003FFF30000000
0378BFFF98710000
3FFFFFFFFFF80000
3EFFFFFFFFD30000
ENDCHAR
STARTCHAR Eth
ENCODING 208
SWIDTH 821 0
DWIDTH 20 0
BBX 20 20 0 0
BITMAP
0000007CEFFEC8300000
000003FFFFFFFFFA1000
000008FFD89BFFFFD200
00000DFF800019FFFC00
00003FFF3000008FFF60
00007FFD0000000DFFC0
0000BFF900000008FFF1
0001FFF500000005FFF3
2BEFFFFFFFE90004FFF4
9FFFFFFFFFFE0005FFF3
388EFFC888840007FFF1
000EFF700000000AFFE0
002FFF400000000EFF90
004FFF100000007FFF30
007FFE00000002EFFB00
008FFC0000003DFFE200
00AFFB000017EFFF4000
00CFFD999CFFFFD30000
00CFFFFFFFFFE8100000
004ACDEFECA510000000
ENDCHAR
STARTCHAR Ntilde
ENCODING 209
SWIDTH 884 0
DWIDTH 21 0
BBX 25 27 0 0
BITMAP
00000000003740000640000000
0000000005FFFC308FF0000000
000000002EFCEFFAFFA0000000
000000008FD12CFFFE20000000
000000002720007ED400000000
00000000000000000000000000
00000000000000000000000000
0004ADEB100017CEEB40000000
019FFFFF9003DFFFFFF2000000
0BFFACFFD02EFD9BFFF9000000
8FE404FFE0CF9000BFFC000000
EF3004FFD6F900009FFD000000
850005FFBDD00000AFFB000000
000007FFDF500000DFF9000000
000009FFFD000001FFF6000000
00000BFFF7000005FFF3000000
00000DFFF2000008FFE0000000
00000FFFC000000BFFB0000000
00003FFF8000000EFF80000000
00005FFF4000003FFF50000000
00007FFF1000005FFF20000000
0000AFFD0000007FFE00000200
0000CFFA0000008FFE00005F30
0000FFF80000007FFF2005FF30
0001FFF50000003FFFD9BFF900
0001FFF300000009FFFFFF8000
0000AFB0000000007CFEA40000
ENDCHAR
STARTCHAR Ograve
ENCODING 210
SWIDTH 816 0
DWIDTH 20 0
BBX 19 28 1 0
BITMAP
00001740000000000000
0000AFF7000000000000
0000AFFFA10000000000
00001AFFFC2000000000
0000002AFFD200000000
000000003AE300000000
00000000000000000000
00000000000000000000
00000027BEFDB6100000
000008EFFFFFFFE40000
0001BFFFDA9BFFFF4000
000BFFF600004EFFE100
007FFF50000004FFF800
01EFF900000000CFFD00
07FFE1000000008FFF10
0DFFA0000000006FFF20
1FFF60000000006FFF20
4FFF30000000007FFF10
6FFF20000000008FFE00
7FFF1000000000BFFC00
6FFF2000000000EFF800
5FFF4000000005FFF200
2FFF800000000DFFB000
0CFFE10000009FFF2000
05FFFB100019FFF60000
009FFFEA9AEFFF700000
0007FFFFFFFFD4000000
000028CEFDA600000000
ENDCHAR
STARTCHAR Oacute
ENCODING 211
SWIDTH 816 0
DWIDTH 20 0
BBX 19 28 1 0
BITMAP
00000000000000272000
00000000000005FFD000
0000000000008FFFD000
00000000001AFFFB2000
0000000000CFFB400000
0000000001DB40000000
00000000000000000000
00000000000000000000
00000027BEFDB6100000
000008EFFFFFFFE40000
0001BFFFDA9BFFFF4000
000BFFF600004EFFE100
007FFF50000004FFF800
01EFF900000000CFFD00
07FFE1000000008FFF10
0DFFA0000000006FFF20
1FFF60000000006FFF20
4FFF30000000007FFF10
6FFF20000000008FFE00
7FFF1000000000BFFC00
6FFF2000000000EFF800
5FFF4000000005FFF200
2FFF800000000DFFB000
0CFFE10000009FFF2000
05FFFB100019FFF60000
009FFFEA9AEFFF700000
0007FFFFFFFFD4000000
000028CEFDA600000000
ENDCHAR
STARTCHAR Ocircumflex
ENCODING 212
SWIDTH 816 0
DWIDTH 20 0
BBX 19 29 1 0
BITMAP
00000000004740000000
0000000009FFF4000000
000000005FFEFC000000
00000001EFD7FF200000
0000000AFF42FF800000
0000004FFB00DFD00000
0000003EC2006E800000
00000000000000000000
00000000000000000000
00000027BEFDB6100000
000008EFFFFFFFE40000
0001BFFFDA9BFFFF4000
000BFFF600004EFFE100
007FFF50000004FFF800
01EFF900000000CFFD00
07FFE1000000008FFF10
0DFFA0000000006FFF20
1FFF60000000006FFF20
4FFF30000000007FFF10
6FFF20000000008FFE00
7FFF1000000000BFFC00
6FFF2000000000EFF800
5FFF4000000005FFF200
2FFF800000000DFFB000
0CFFE10000009FFF2000
05FFFB100019FFF60000
009FFFEA9AEFFF700000
0007FFFFFFFFD4000000
000028CEFDA600000000
ENDCHAR
STARTCHAR Otilde
ENCODING 213
SWIDTH 816 0
DWIDTH 20 0
BBX 19 27 1 0
BITMAP
00000001661000361000
0000002DFFE603FF5000
000000BFECFFCDFE1000
000002FF508FFFF70000
000000640004CE800000
00000000000000000000
00000000000000000000
00000027BEFDB6100000
000008EFFFFFFFE40000
0001BFFFDA9BFFFF4000
000BFFF600004EFFE100
007FFF50000004FFF800
01EFF900000000CFFD00
07FFE1000000008FFF10
0DFFA0000000006FFF20
1FFF60000000006FFF20
4FFF30000000007FFF10
6FFF20000000008FFE00
7FFF1000000000BFFC00
6FFF2000000000EFF800
5FFF4000000005FFF200
2FFF800000000DFFB000
0CFFE10000009FFF2000
05FFFB100019FFF60000
009FFFEA9AEFFF700000
0007FFFFFFFFD4000000
000028CEFDA600000000
ENDCHAR
STARTCHAR Odieresis
ENCODING 214
SWIDTH 816 0
DWIDTH 20 0
BBX 19 26 1 0
BITMAP
00000009EB009EB00000
0000003FFF43FFF40000
0000004FFF34FFF30000
0000000BE900BE900000
00000000000000000000
00000000000000000000
00000027BEFDB6100000
000008EFFFFFFFE40000
0001BFFFDA9BFFFF4000
000BFFF600004EFFE100
007FFF50000004FFF800
01EFF900000000CFFD00
07FFE1000000008FFF10
0DFFA0000000006FFF20
1FFF60000000006FFF20
4FFF30000000007FFF10
6FFF20000000008FFE00
7FFF1000000000BFFC00
6FFF2000000000EFF800
5FFF4000000005FFF200
2FFF800000000DFFB000
0CFFE10000009FFF2000
05FFFB100019FFF60000
009FFFEA9AEFFF700000
0007FFFFFFFFD4000000
000028CEFDA600000000
ENDCHAR
STARTCHAR multiply
ENCODING 215
SWIDTH 700 0
DWIDTH 17 0
BBX 13 11 2 1
BITMAP
00460000003600
03FF900006FF60
03FFF7007FFF30
007FFF69FFE400
0009FFFFFD2000
0000BFFFC10000
0003EFFFE20000
005FFFDFFD2000
07FFF51DFFD100
4FFE4002DFF700
2DC200002DC200
ENDCHAR
STARTCHAR Oslash
ENCODING 216
SWIDTH 816 0
DWIDTH 20 0
BBX 19 25 1 -3
BITMAP
00000000000AE7000000
00000000002FF9000000
00000027BEFFF9100000
000008EFFFFFFFE40000
0001BFFFCAFFFFFF4000
000BFFE504FFAFFFE100
007FFF4008FF26FFF800
01EFF8000CFD00DFFD00
07FFE1001FF9009FFF10
0CFFA0004FF4007FFF20
1FFF60008FF1006FFF20
4FFF3000CFB0007FFF10
6FFF2001FF70008FFE00
7FFF1005FF3000BFFC00
7FFF2009FE0000EFF800
5FFF400DFB0005FFF200
2FFF802FF7000CFFB000
0DFFE16FF3008FFF2000
05FFFBBFE008FFF60000
00AFFFFFDAEFFF700000
0009FFFFFFFFD4000000
00003CFFFDA600000000
00000CFC000000000000
00000FF8000000000000
00000461000000000000
ENDCHAR
STARTCHAR Ugrave
ENCODING 217
SWIDTH 890 0
DWIDTH 21 0
BBX 25 28 0 0
BITMAP
00000006500000000000000000
0000007FFA1000000000000000
0000007FFFC200000000000000
00000008EFFE30000000000000
0000000018EFF4000000000000
000000000018E6000000000000
00000000000000000000000000
00000000000000000000000000
0004ADEC400000000CE8000000
019FFFFFE10000004FFE000000
0BFFCAFFF60000007FFF000000
8FE500EFF70000009FFD000000
EF4000FFF6000000BFFB000000
960001FFF5000000EFF9000000
000004FFF2000002FFF6000000
000008FFE0000006FFF3000000
00000BFFB000000AFFF1000000
00000EFF8000000EFFD0000000
00003FFF4000005FFFB0000000
00006FFF100000BFFF90000000
00009FFC000002FFFF70000000
0000CFF900000AEEFF50000000
0000FFF600004F9FFF30000410
0001FFF60003EF3FFF30007F60
0001FFFB116EF82FFFA129FF40
0000DFFFFFFFC00EFFFFFFFA00
00006FFFFFFB1007FFFFFF9000
000005CFEC6000005CEEB40000
ENDCHAR
STARTCHAR Uacute
ENCODING 218
SWIDTH 890 0
DWIDTH 21 0
BBX 25 28 0 0
BITMAP
00000000000000001740000000
0000000000000003DFF2000000
000000000000005EFFF2000000
00000000000007FFFD40000000
0000000000009FFD6000000000
000000000000BD600000000000
00000000000000000000000000
00000000000000000000000000
0004ADEC400000000CE8000000
019FFFFFE10000004FFE000000
0BFFCAFFF60000007FFF000000
8FE500EFF70000009FFD000000
EF4000FFF6000000BFFB000000
960001FFF5000000EFF9000000
000004FFF2000002FFF6000000
000008FFE0000006FFF3000000
00000BFFB000000AFFF1000000
00000EFF8000000EFFD0000000
00003FFF4000005FFFB0000000
00006FFF100000BFFF90000000
00009FFC000002FFFF70000000
0000CFF900000AEEFF50000000
0000FFF600004F9FFF30000410
0001FFF60003EF3FFF30007F60
0001FFFB116EF82FFFA129FF40
0000DFFFFFFFC00EFFFFFFFA00
00006FFFFFFB1007FFFFFF9000
000005CFEC6000005CEEB40000
ENDCHAR
STARTCHAR Ucircumflex
ENCODING 219
SWIDTH 890 0
DWIDTH 21 0
BBX 25 29 0 0
BITMAP
00000000000037500000000000
000000000005FFF80000000000
00000000002EFEFE1000000000
0000000000BFF5FF6000000000
0000000007FF80EFC000000000
000000001EFE10AFF100000000
000000001DD4003EB000000000
00000000000000000000000000
00000000000000000000000000
0004ADEC400000000CE8000000
019FFFFFE10000004FFE000000
0BFFCAFFF60000007FFF000000
8FE500EFF70000009FFD000000
EF4000FFF6000000BFFB000000
960001FFF5000000EFF9000000
000004FFF2000002FFF6000000
000008FFE0000006FFF3000000
00000BFFB000000AFFF1000000
00000EFF8000000EFFD0000000
00003FFF4000005FFFB0000000
00006FFF100000BFFF90000000
00009FFC000002FFFF70000000
0000CFF900000AEEFF50000000
0000FFF600004F9FFF30000410
0001FFF60003EF3FFF30007F60
0001FFFB116EF82FFFA129FF40
0000DFFFFFFFC00EFFFFFFFA00
00006FFFFFFB1007FFFFFF9000
000005CFEC6000005CEEB40000
ENDCHAR
STARTCHAR Udieresis
ENCODING 220
SWIDTH 890 0
DWIDTH 21 0
BBX 25 26 0 0
BITMAP
0000000006ED206ED200000000
000000000EFF80EFF700000000
000000000FFF70FFF700000000
0000000008EB108EB100000000
00000000000000000000000000
00000000000000000000000000
0004ADEC400000000CE8000000
019FFFFFE10000004FFE000000
0BFFCAFFF60000007FFF000000
8FE500EFF70000009FFD000000
EF4000FFF6000000BFFB000000
960001FFF5000000EFF9000000
000004FFF2000002FFF6000000
000008FFE0000006FFF3000000
00000BFFB000000AFFF1000000
00000EFF8000000EFFD0000000
00003FFF4000005FFFB0000000
00006FFF100000BFFF90000000
00009FFC000002FFFF70000000
0000CFF900000AEEFF50000000
0000FFF600004F9FFF30000410
0001FFF60003EF3FFF30007F60
0001FFFB116EF82FFFA129FF40
0000DFFFFFFFC00EFFFFFFFA00
00006FFFFFFB1007FFFFFF9000
000005CFEC6000005CEEB40000
ENDCHAR
STARTCHAR Yacute
ENCODING 221
SWIDTH 851 0
DWIDTH 20 0
BBX 23 36 0 -8
BITMAP
000000000000000005600000
0000000000000001BFF60000
000000000000002CFFF60000
00000000000004EFFE700000
0000000000004FFE81000000
0000000000006E8100000000
000000000000000000000000
000000000000000000000000
0004ADEC400000000BEA0000
019FFFFFE10000004FFF1000
0BFFBAFFF60000007FFF0000
8FE500EFF70000009FFD0000
EF4000FFF6000000CFFB0000
950002FFF5000000EFF90000
000005FFF2000003FFF60000
000008FFE0000007FFF40000
00000BFFB000000CFFF20000
00000EFF8000003FFFE00000
00003FFF400000AFFFC00000
00005FFF100004FEFFA00000
00006FFF10001DFAFF800000
00005FFF4002CF8BFF500000
00002FFFE9AEFC0DFF314770
000008FFFFFFB10FFFDFFFF0
0000006CFEB5039FFFFFFF90
000000000006DFFFFEA74100
0000000005DFFECFF9000000
000000009FFD50AFF6000000
0000000BFF8000DFF3000000
0000007FF70002FFE0000000
000000EFD00007FF90000000
000002FFB0002EFF20000000
000003FFE414DFF800000000
000000DFFFFFFFB000000000
0000004EFFFFF80000000000
000000015886100000000000
ENDCHAR
STARTCHAR Thorn
ENCODING 222
SWIDTH 776 0
DWIDTH 19 0
BBX 18 25 1 -3
BITMAP
000000009ED1000000
00000002FFF3000000
00000004FFF2000000
00000006FFF0000000
00000008FFD0000000
0000005DFFFED94000
00003DFFFFFFFFFB10
0006FFFFFFBAEFFFC0
004FFE9FFF401BFFF5
01EFE34FFF2002FFF9
07FF506FFE0000EFFB
0EFC009FFC0000EFFA
4FF600BFFA0004FFF6
8FF200EFF7001CFFD1
BFE002FFF526DFFE30
DFC0DFFFFFFFFFD400
EFB0EFFFFFFFD81000
FFA02BFFD653000000
EFB00CFF9000000000
CFD00EFF6000000000
9FF12FFF3000000000
5FF68FFE0000000000
0CFFFFFB0000000000
03EFFFF40000000000
002ADC600000000000
ENDCHAR
STARTCHAR germandbls
ENCODING 223
SWIDTH 596 0
DWIDTH 14 0
BBX 17 24 1 -5
BITMAP
000005BEFD81000000
0001BFFFFFFD100000
000CFFEAAFFF700000
008FFB1005FFB00000
02FFE10003FFA00000
07FF70000AFF600000
0CFF2002BFFA000000
1FFD004EFF80000000
4FFA03FFF500000000
7FF809FF9000000000
8FF609FFD200000000
AFF503FFFE73200000
BFF401CFFFFFFFC700
BFF32EFECFFFEEFF40
CFF3BFE207FFB05810
DFF3FFB003FFC00000
DFF3EFFB9EFF900000
DFF28FFFFFFD100000
EFF206CFFD81000000
EFF200000000000000
EFF200000000000000
EFF200000000000000
FFF200000000000000
AEB000000000000000
ENDCHAR
STARTCHAR agrave
ENCODING 224
SWIDTH 470 0
DWIDTH 11 0
BBX 15 20 0 0
BITMAP
0007E80000000000
000DFF3000000000
0008FFA000000000
0000CFF200000000
00002EF900000000
000003FF10000000
0000006E20000000
0000000000000000
0000000000000000
00003AEE10000000
0007FFFFFF500000
007FFFCCFF600000
02FFF60AFF300000
09FF900DFF000000
0EFF202FFC000100
1FFE006FFA005F40
2FFE00CFF905FF40
0EFFBCFFFEBFFA00
08FFFFD8FFFFA000
009EEA109ED60000
ENDCHAR
STARTCHAR aacute
ENCODING 225
SWIDTH 470 0
DWIDTH 11 0
BBX 15 20 0 0
BITMAP
000000000AE60000
000000005FFC0000
00000000CFF70000
00000004FFA00000
0000000BFD100000
0000003FE2000000
0000004E40000000
0000000000000000
0000000000000000
00003AEE10000000
0007FFFFFF500000
007FFFCCFF600000
02FFF60AFF300000
09FF900DFF000000
0EFF202FFC000100
1FFE006FFA005F40
2FFE00CFF905FF40
0EFFBCFFFEBFFA00
08FFFFD8FFFFA000
009EEA109ED60000
ENDCHAR
STARTCHAR acircumflex
ENCODING 226
SWIDTH 470 0
DWIDTH 11 0
BBX 15 21 0 0
BITMAP
0000000473000000
0000006FFE100000
000002EFFF600000
00000AFCBF900000
00004FF58FD00000
0000DFC06FF20000
0007FF404FF60000
0007E8001CE30000
0000000000000000
0000000000000000
00003AEE10000000
0007FFFFFF500000
007FFFCCFF600000
02FFF60AFF300000
09FF900DFF000000
0EFF202FFC000100
1FFE006FFA005F40
2FFE00CFF905FF40
0EFFBCFFFEBFFA00
08FFFFD8FFFFA000
009EEA109ED60000
ENDCHAR
STARTCHAR atilde
ENCODING 227
SWIDTH 470 0
DWIDTH 11 0
BBX 15 18 0 0
BITMAP
0000274000064000
0004EFFC307FD000
001EFBEFFAFF9000
006FD12CFFFE1000
001620007EC30000
0000000000000000
0000000000000000
00003AEE10000000
0007FFFFFF500000
007FFFCCFF600000
02FFF60AFF300000
09FF900DFF000000
0EFF202FFC000100
1FFE006FFA005F40
2FFE00CFF905FF40
0EFFBCFFFEBFFA00
08FFFFD8FFFFA000
009EEA109ED60000
ENDCHAR
STARTCHAR adieresis
ENCODING 228
SWIDTH 470 0
DWIDTH 11 0
BBX 15 17 0 0
BITMAP
0001CE701CE60000
0007FFD08FFD0000
0008FFC08FFC0000
0003DE403DE40000
0000000000000000
0000000000000000
00003AEE10000000
0007FFFFFF500000
007FFFCCFF600000
02FFF60AFF300000
09FF900DFF000000
0EFF202FFC000100
1FFE006FFA005F40
2FFE00CFF905FF40
0EFFBCFFFEBFFA00
08FFFFD8FFFFA000
009EEA109ED60000
ENDCHAR
STARTCHAR aring
ENCODING 229
SWIDTH 470 0
DWIDTH 11 0
BBX 15 20 0 0
BITMAP
0000019EE8000000
00000BFFFF800000
00003FFACFE00000
00006FC02FF00000
00004FFACFD00000
00001DFFFF600000
000002BED6000000
0000000000000000
0000000000000000
00003AEE10000000
0007FFFFFF500000
007FFFCCFF600000
02FFF60AFF300000
09FF900DFF000000
0EFF202FFC000100
1FFE006FFA005F40
2FFE00CFF905FF40
0EFFBCFFFEBFFA00
08FFFFD8FFFFA000
009EEA109ED60000
ENDCHAR
STARTCHAR ae
ENCODING 230
SWIDTH 653 0
DWIDTH 16 0
BBX 19 11 0 0
BITMAP
000028CED29DFC400000
0007FFFFFEFFFFF30000
008FFFC9FFFBBFF70000
04FFE406FF901FF70000
0AFF600BFF207FF30000
0EFF001FFF5BFF700220
1FFD004FFFFFB4003EA0
1FFE00AFFFA20018FF90
0DFFBBFEFFFB9BEFFD20
06FFFFF48FFFFFFFA100
007DFC4005BEFDA40000
ENDCHAR
STARTCHAR ccedilla
ENCODING 231
SWIDTH 368 0
DWIDTH 9 0
BBX 12 18 0 -7
BITMAP
0003AEE91000
005FFFFF8000
02EFFADFC000
09FF808FC000
0EFF10AF7000
2FFD00250000
3FFD0000008B
2FFF100008FD
0DFFA214CFF6
04FFFFFFFF60
005FFFFFA300
002EFFFA0000
000017FF2000
000001FF4000
000019FF2000
06FFFFFB0000
08FFFFC10000
016874000000
ENDCHAR
STARTCHAR egrave
ENCODING 232
SWIDTH 393 0
DWIDTH 9 0
BBX 13 20 0 0
BITMAP
007E8000000000
00DFF300000000
008FFA00000000
000CFF20000000
0002EF90000000
00003FF1000000
000006E2000000
00000000000000
00000000000000
0003AEEB200000
005FFFFFD00000
03FFFADFF30000
0AFF605FF30000
0FFD00BFD00000
2FFC6DFE400310
2FFFFFA2006F70
1FFF81002AFF60
0AFFEA9BFFFA00
01DFFFFFFF8000
0018CEEC820000
ENDCHAR
STARTCHAR eacute
ENCODING 233
SWIDTH 393 0
DWIDTH 9 0
BBX 13 20 0 0
BITMAP
00000000AE6000
00000005FFC000
0000000CFF7000
0000004FFA0000
000000BFD10000
000003FE200000
000004E4000000
00000000000000
00000000000000
0003AEEB200000
005FFFFFD00000
03FFFADFF30000
0AFF605FF30000
0FFD00BFD00000
2FFC6DFE400310
2FFFFFA2006F70
1FFF81002AFF60
0AFFEA9BFFFA00
01DFFFFFFF8000
0018CEEC820000
ENDCHAR
STARTCHAR ecircumflex
ENCODING 234
SWIDTH 393 0
DWIDTH 9 0
BBX 13 21 0 0
BITMAP
00000047300000
000006FFE10000
00002EFFF50000
0000AFCBF90000
0004FF49FD0000
000DFC06FF2000
007FF404FF5000
007E8001CE3000
00000000000000
00000000000000
0003AEEB200000
005FFFFFD00000
03FFFADFF30000
0AFF605FF30000
0FFD00BFD00000
2FFC6DFE400310
2FFFFFA2006F70
1FFF81002AFF60
0AFFEA9BFFFA00
01DFFFFFFF8000
0018CEEC820000
ENDCHAR
STARTCHAR edieresis
ENCODING 235
SWIDTH 393 0
DWIDTH 9 0
BBX 13 17 0 0
BITMAP
001CE701CE6000
007FFD08FFD000
008FFC08FFC000
003DE403DE4000
00000000000000
00000000000000
0003AEEB200000
005FFFFFD00000
03FFFADFF30000
0AFF605FF30000
0FFD00BFD00000
2FFC6DFE400310
2FFFFFA2006F70
1FFF81002AFF60
0AFFEA9BFFFA00
01DFFFFFFF8000
0018CEEC820000
ENDCHAR
STARTCHAR igrave
ENCODING 236
SWIDTH 246 0
DWIDTH 6 0
BBX 10 20 -1 0
BITMAP
1BE4000000
4FFD000000
1DFF500000
03FFC00000
006FF30000
0009FA0000
0000BB0000
0000000000
0000000000
0007ED0000
000EFF0000
002FFC0000
006FF90000
009FF60000
00BFF30013
00DFF100BE
00CFF10BFD
00BFFBDFF4
005FFFFE40
0008EEA200
ENDCHAR
STARTCHAR iacute
ENCODING 237
SWIDTH 246 0
DWIDTH 6 0
BBX 8 20 1 0
BITMAP
00002DD2
0000BFF6
0002FFE2
0009FF50
002FF800
008FB000
009C1000
00000000
00000000
07ED0000
0EFF0000
2FFC0000
6FF90000
9FF60000
BFF30013
DFF100BE
CFF10BFD
BFFBDFF4
5FFFFE40
08EEA200
ENDCHAR
STARTCHAR icircumflex
ENCODING 238
SWIDTH 246 0
DWIDTH 6 0
BBX 9 21 0 0
BITMAP
0001661000
000BFF9000
007FFFE000
02EF8FF400
0AFD0EF700
4FF60CFB00
DFD00AFF00
CD4005EB00
0000000000
0000000000
007ED00000
00EFF00000
02FFC00000
06FF900000
09FF600000
0BFF300130
0DFF100BE0
0CFF10BFD0
0BFFBDFF40
05FFFFE400
008EEA2000
ENDCHAR
STARTCHAR idieresis
ENCODING 239
SWIDTH 246 0
DWIDTH 6 0
BBX 9 17 0 0
BITMAP
5ED205ED20
DFF80DFF70
EFF70EFF70
7EC107EB10
0000000000
0000000000
007ED00000
00EFF00000
02FFC00000
06FF900000
09FF600000
0BFF300130
0DFF100BE0
0CFF10BFD0
0BFFBDFF40
05FFFFE400
008EEA2000
ENDCHAR
STARTCHAR eth
ENCODING 240
SWIDTH 451 0
DWIDTH 11 0
BBX 13 22 0 0
BITMAP
0004ED30000000
0004FFE2004A10
00007FFC19FF50
00000BFFEFFC10
000004FFFFA100
00029FFFF90000
000DFFEFFD0000
0007E81CFF3000
00000008FF7000
00000005FF9000
00000004FFC000
0004BEEBFFD000
006FFFFFFFD000
03FFFBAEFFC000
0BFF7004FFC000
1FFE0004FFA000
2FFD0007FF7000
2FFD000BFF3000
1FFF304FFC0000
0AFFE9EFF50000
02EFFFFF800000
002AEFC6000000
ENDCHAR
STARTCHAR ntilde
ENCODING 241
SWIDTH 496 0
DWIDTH 12 0
BBX 14 18 1 0
BITMAP
00017500005500
002EFFD405FF10
00CFCDFFAEFB00
04FE21AFFFE300
01630006DD4000
00000000000000
00000000000000
06EE004CEA0000
0EFD06FFFF1000
3FF94FFFFE0000
6FF6DFBFFC0000
9FF9F84FF90000
AFFEE16FF60013
BFFF709FF300BE
CFFF20CFF21BFD
BFFC00CFFBDFF4
9FF7009FFFFE40
2DD1002BED9200
ENDCHAR
STARTCHAR ograve
ENCODING 242
SWIDTH 451 0
DWIDTH 11 0
BBX 14 20 0 0
BITMAP
008E7000000000
00FFF200000000
00AFF900000000
001DFE10000000
0002EF80000000
00005FE1000000
000007D1000000
00000000000000
00000000000000
0004BEFC400000
006FFFFFF40000
03FFFBEFFD0000
0BFF70DFFF4144
1FFE00AFFFFFFF
2FFD002DFFFFFC
2FFD0008FF9741
1FFF301DFC0000
0AFFE9DFF60000
02DFFFFF900000
0029EFC6000000
ENDCHAR
STARTCHAR oacute
ENCODING 243
SWIDTH 451 0
DWIDTH 11 0
BBX 14 20 0 0
BITMAP
00000000BE4000
00000006FFA000
0000000DFF5000
0000005FF90000
000000CFC00000
000004FE100000
000005E3000000
00000000000000
00000000000000
0004BEFC400000
006FFFFFF40000
03FFFBEFFD0000
0BFF70DFFF4144
1FFE00AFFFFFFF
2FFD002DFFFFFC
2FFD0008FF9741
1FFF301DFC0000
0AFFE9DFF60000
02DFFFFF900000
0029EFC6000000
ENDCHAR
STARTCHAR ocircumflex
ENCODING 244
SWIDTH 451 0
DWIDTH 11 0
BBX 14 21 0 0
BITMAP
00000047200000
000007FFD00000
00003FFFF40000
0000CFBCF80000
0006FF3AFC0000
001EFA08FF1000
008FF306FF4000
008E7002DD2000
00000000000000
00000000000000
0004BEFC400000
006FFFFFF40000
03FFFBEFFD0000
0BFF70DFFF4144
1FFE00AFFFFFFF
2FFD002DFFFFFC
2FFD0008FF9741
1FFF301DFC0000
0AFFE9DFF60000
02DFFFFF900000
0029EFC6000000
ENDCHAR
STARTCHAR otilde
ENCODING 245
SWIDTH 451 0
DWIDTH 11 0
BBX 14 18 0 0
BITMAP
00037400006400
005FFFB209FC00
02EFBEFFAFF700
07FC02CFFFD100
02720018EC2000
00000000000000
00000000000000
0004BEFC400000
006FFFFFF40000
03FFFBEFFD0000
0BFF70DFFF4144
1FFE00AFFFFFFF
2FFD002DFFFFFC
2FFD0008FF9741
1FFF301DFC0000
0AFFE9DFF60000
02DFFFFF900000
0029EFC6000000
ENDCHAR
STARTCHAR odieresis
ENCODING 246
SWIDTH 451 0
DWIDTH 11 0
BBX 14 17 0 0
BITMAP
002CE502CE5000
009FFC09FFC000
00AFFB0AFFB000
004ED304ED3000
00000000000000
00000000000000
0004BEFC400000
006FFFFFF40000
03FFFBEFFD0000
0BFF70DFFF4144
1FFE00AFFFFFFF
2FFD002DFFFFFC
2FFD0008FF9741
1FFF301DFC0000
0AFFE9DFF60000
02DFFFFF900000
0029EFC6000000
ENDCHAR
STARTCHAR divide
ENCODING 247
SWIDTH 700 0
DWIDTH 17 0
BBX 14 13 2 0
BITMAP
000004DE600000
00000BFFC00000
00000CFFB00000
000005ED400000
00000000000000
8FFFFFFFFFFFD1
FFFFFFFFFFFFF1
58888888888840
00000000000000
00006ED3000000
0000EFF9000000
0000FFF8000000
00007EC2000000
ENDCHAR
STARTCHAR oslash
ENCODING 248
SWIDTH 459 0
DWIDTH 11 0
BBX 15 17 0 -3
BITMAP
0000008E00000000
000000DD00000000
000001FA00000000
0004BEFD50000000
007FFFFFF7000000
03FFEDFFFF200000
0BFF4BE8FF701400
1FFD0DB4FFEEFF20
2FFB1F93FFFFFF10
2FFC4F65FFC97200
0FFE8F3AFF200000
0AFFFFBFFA000000
02EFFFFFD1000000
002AFFD810000000
0003F80000000000
0006F50000000000
0007D20000000000
ENDCHAR
STARTCHAR ugrave
ENCODING 249
SWIDTH 462 0
DWIDTH 11 0
BBX 14 20 1 0
BITMAP
00BE4000000000
03FFD000000000
00DFF500000000
003EFC00000000
0005FF40000000
00008FB0000000
00000AB0000000
00000000000000
00000000000000
05EE100AF60000
0DFF104FF60000
3FFC008FF30000
6FF800DFF00000
9FF503FFC00000
BFF309FF900000
CFF12FFF6006E1
CFF3CFFF506FF1
BFFFFCFFCBFF80
6FFFD3FFFFF700
09EB208EEA3000
ENDCHAR
STARTCHAR uacute
ENCODING 250
SWIDTH 462 0
DWIDTH 11 0
BBX 14 20 1 0
BITMAP
00000002DD2000
0000000AFF7000
0000002FFF2000
0000009FF60000
000001EF900000
000007FB000000
000008D1000000
00000000000000
00000000000000
05EE100AF60000
0DFF104FF60000
3FFC008FF30000
6FF800DFF00000
9FF503FFC00000
BFF309FF900000
CFF12FFF6006E1
CFF3CFFF506FF1
BFFFFCFFCBFF80
6FFFD3FFFFF700
09EB208EEA3000
ENDCHAR
STARTCHAR ucircumflex
ENCODING 251
SWIDTH 462 0
DWIDTH 11 0
BBX 14 21 1 0
BITMAP
00000067100000
00000BFFA00000
00006FFFF10000
0001EF8FF40000
0009FE1EF80000
003FF70BFC0000
00CFD109FF0000
00CD4004EB0000
00000000000000
00000000000000
05EE100AF60000
0DFF104FF60000
3FFC008FF30000
6FF800DFF00000
9FF503FFC00000
BFF309FF900000
CFF12FFF6006E1
CFF3CFFF506FF1
BFFFFCFFCBFF80
6FFFD3FFFFF700
09EB208EEA3000
ENDCHAR
STARTCHAR udieresis
ENCODING 252
SWIDTH 462 0
DWIDTH 11 0
BBX 14 17 1 0
BITMAP
004ED304ED3000
00CFF80CFF8000
00DFF80DFF7000
007EC107EC1000
00000000000000
00000000000000
05EE100AF60000
0DFF104FF60000
3FFC008FF30000
6FF800DFF00000
9FF503FFC00000
BFF309FF900000
CFF12FFF6006E1
CFF3CFFF506FF1
BFFFFCFFCBFF80
6FFFD3FFFFF700
09EB208EEA3000
ENDCHAR
STARTCHAR yacute
ENCODING 253
SWIDTH 479 0
DWIDTH 12 0
BBX 16 31 -1 -11
BITMAP
0000000002DD2000
000000000AFF7000
000000002FFF2000
000000009FF60000
00000001EF900000
00000007FB000000
00000008D1000000
0000000000000000
0000000000000000
0005EE100AF60000
000DFF104FF70000
003FFC008FF40000
006FF800DFF20000
009FF603FFE00000
00BFF309FFC00000
00CFF12FFF9008D0
00CFF3CFFF73CFF1
00BFFFFDFFBFFE50
006FFFD8FFFFB200
0009EB39FFE60000
0000006FFD200000
000009FFF9000000
0000BFEFF6000000
000BFA8FF2000000
009FB0BFD0000000
04FE11FF80000000
0BF707FF30000000
0FF51EFB00000000
1FFCCFF300000000
0CFFFF8000000000
02BED60000000000
ENDCHAR
STARTCHAR thorn
ENCODING 254
SWIDTH 508 0
DWIDTH 12 0
BBX 16 27 0 -8
BITMAP
0001760000000000
000BFF4000000000
000FFF1000000000
003FFD0000000000
006FF90000000000
009FF60000000000
00CFF20000000000
00EFE00000000000
02FFC03BEC300000
04FF93EFFFD00000
07FF7EFAFFF30000
09FFCF50CFF40000
0BFFFA00BFF30000
0CFFF200EFF10071
0EFFB005FFB009F3
0FFF604EFF308FF2
1FFF7AFFFE9CFF60
2FFFFFFFFFFFF600
3FFFFD729EEA3000
4FFA100000000000
5FF9000000000000
5FF8000000000000
6FF8000000000000
6FF8000000000000
6FF8000000000000
6FF8000000000000
3ED4000000000000
ENDCHAR
STARTCHAR ydieresis
ENCODING 255
SWIDTH 479 0
DWIDTH 12 0
BBX 16 28 -1 -11
BITMAP
00004ED304ED3000
0000CFF80CFF8000
0000DFF80DFF7000
00007EC107EC1000
0000000000000000
0000000000000000
0005EE100AF60000
000DFF104FF70000
003FFC008FF40000
006FF800DFF20000
009FF603FFE00000
00BFF309FFC00000
00CFF12FFF9008D0
00CFF3CFFF73CFF1
00BFFFFDFFBFFE50
006FFFD8FFFFB200
0009EB39FFE60000
0000006FFD200000
000009FFF9000000
0000BFEFF6000000
000BFA8FF2000000
009FB0BFD0000000
04FE11FF80000000
0BF707FF30000000
0FF51EFB00000000
1FFCCFF300000000
0CFFFF8000000000
02BED60000000000
ENDCHAR
STARTCHAR Amacron
ENCODING 256
SWIDTH 786 0
DWIDTH 19 0
BBX 21 25 1 0
BITMAP
0000000000788888700000
0000000005FFFFFFF40000
0000000003EFFFFFD10000
0000000000000000000000
0000000000000000000000
0000000016ACEFEDB84000
0000002AFFFFFFFFFFF100
000007FFFFFECCDEFFC000
00009FFFE7200000241000
0009FFFA100006ED400000
005FFF9000000EFF800000
01EFFC0000002FFF500000
07FFF30000005FFF100000
0DFFB00000009FFC000000
2FFF60000000CFF9000000
6FFF20000001FFF6000000
8FFF00000006FFF3000000
9FFE0000000BFFF1000000
9FFE0000002FFFE0000000
8FFF1000009FFFD0000130
6FFF500003FFFFE0001CD0
1FFFD2004EFCFFF302CFC0
07FFFFCDFFB3FFFECEFE30
009FFFFFFC10AFFFFFE400
0005BEEC710018DFD92000
ENDCHAR
STARTCHAR amacron
ENCODING 257
SWIDTH 470 0
DWIDTH 11 0
BBX 15 16 0 0
BITMAP
0000788888700000
0005FFFFFFF40000
0003EFFFFFD10000
0000000000000000
0000000000000000
00003AEE10000000
0007FFFFFF500000
007FFFCCFF600000
02FFF60AFF300000
09FF900DFF000000
0EFF202FFC000100
1FFE006FFA005F40
2FFE00CFF905FF40
0EFFBCFFFEBFFA00
08FFFFD8FFFFA000
009EEA109ED60000
ENDCHAR
STARTCHAR Abreve
ENCODING 258
SWIDTH 786 0
DWIDTH 19 0
BBX 21 27 1 0
BITMAP
0000000005600000272000
000000003FF90002DFA000
000000001FFFB9AEFF6000
0000000006FFFFFFF90000
00000000004AEFEA400000
0000000000000000000000
0000000000000000000000
0000000016ACEFEDB84000
0000002AFFFFFFFFFFF100
000007FFFFFECCDEFFC000
00009FFFE7200000241000
0009FFFA100006ED400000
005FFF9000000EFF800000
01EFFC0000002FFF500000
07FFF30000005FFF100000
0DFFB00000009FFC000000
2FFF60000000CFF9000000
6FFF20000001FFF6000000
8FFF00000006FFF3000000
9FFE0000000BFFF1000000
9FFE0000002FFFE0000000
8FFF1000009FFFD0000130
6FFF500003FFFFE0001CD0
1FFFD2004EFCFFF302CFC0
07FFFFCDFFB3FFFECEFE30
009FFFFFFC10AFFFFFE400
0005BEEC710018DFD92000
ENDCHAR
STARTCHAR abreve
ENCODING 259
SWIDTH 470 0
DWIDTH 11 0
BBX 15 19 0 0
BITMAP
0004600000172000
002FF60000BF9000
002FFD1007FF8000
000CFFE9BFFE2000
0002EFFFFFE50000
000029DFD9200000
0000000000000000
0000000000000000
00003AEE10000000
0007FFFFFF500000
007FFFCCFF600000
02FFF60AFF300000
09FF900DFF000000
0EFF202FFC000100
1FFE006FFA005F40
2FFE00CFF905FF40
0EFFBCFFFEBFFA00
08FFFFD8FFFFA000
009EEA109ED60000
ENDCHAR
STARTCHAR Aogonek
ENCODING 260
SWIDTH 786 0
DWIDTH 19 0
BBX 21 26 1 -6
BITMAP
0000000016ACEFEDC95000
0000002AFFFFFFFFFFF100
000007FFFFEB99ABEFB000
00009FFFC5000010010000
0009FFF8000008FF600000
005FFF7000000EFF800000
01EFFB0000002FFF400000
07FFF20000005FFF100000
0DFFB00000009FFC000000
2FFF60000000CFF9000000
6FFF20000001FFF6000000
8FFF00000006FFF3000000
9FFE0000000AFFF1000000
9FFE0000001FFFE0000000
8FFF0000008FFFD0000020
6FFF500002EFFFE0000AD0
1FFFC1002DFEFFF200AFD0
07FFFD9AEFC5FFFD9DFF40
009FFFFFFC20BFFFFFE400
0005BEEC710019FFFC2000
0000000000000BFF600000
0000000000004FF5000000
0000000000007FF1000000
0000000000006FF9455000
0000000000001EFFFFD000
00000000000002AEFC5000
ENDCHAR
STARTCHAR aogonek
ENCODING 261
SWIDTH 470 0
DWIDTH 11 0
BBX 15 17 0 -6
BITMAP
00003AEE10000000
0007FFFFFF500000
007FFFCCFF600000
02FFF60AFF300000
09FF900DFF000000
0EFF202FFC000100
1FFE005FFA004F40
2FFE00CFF904FF40
0EFFBCFFFEAFFB00
08FFFFD9FFFFB100
009EEA15FFF70000
0000004FFC200000
000000BFC0000000
000000EF70000000
000000DFC3361000
0000007FFFFF4000
00000007DFE90000
ENDCHAR
STARTCHAR Cacute
ENCODING 262
SWIDTH 686 0
DWIDTH 16 0
BBX 19 28 1 0
BITMAP
00000000000000372000
00000000000006FFC000
0000000000008FFFC000
00000000001BFFFB2000
0000000001CFFB300000
0000000001DB40000000
00000000000000000000
00000000000000000000
00000027BEFEB5000000
000008FFFFFFFF900000
0001BFFFEA9CFFF50000
000BFFF70000BFFA0000
007FFF6000006FFC0000
02EFF90000007FFB0000
08FFE10000009FF80000
0DFFA00000004DB10000
2FFF6000000000000000
5FFF3000000000000000
6FFF2000000000000000
7FFF1000000000000000
6FFF2000000000000000
4FFF5000000000000000
1FFFB000000000000000
0AFFF600000000000410
01DFFF8100000038EF60
003EFFFFB999BEFFFF40
0002BFFFFFFFFFFFC500
0000038CEFFECA620000
ENDCHAR
STARTCHAR cacute
ENCODING 263
SWIDTH 368 0
DWIDTH 9 0
BBX 12 20 0 0
BITMAP
00000001BE40
00000007FFA0
0000000DFF50
0000006FF900
000000CFB000
000004FD1000
000005E30000
000000000000
000000000000
0003AEEA1000
005FFFFF9000
03FFFADFC000
0AFF809FB000
1FFF10AF5000
2FFD00010012
3FFD000001CD
1FFF40004DFC
0BFFFA9CFFE3
02EFFFFFFC30
0029DFEB6000
ENDCHAR
STARTCHAR Ccircumflex
ENCODING 264
SWIDTH 686 0
DWIDTH 16 0
BBX 19 29 1 0
BITMAP
00000000004740000000
0000000009FFF4000000
000000005FFEFB000000
00000002EFC7FF200000
0000000BFF43FF700000
0000004FFA00EFC00000
0000003EC1007E800000
00000000000000000000
00000000000000000000
00000027BEFEB5000000
000008FFFFFFFF900000
0001BFFFEA9CFFF50000
000BFFF70000BFFA0000
007FFF6000006FFC0000
02EFF90000007FFB0000
08FFE10000009FF80000
0DFFA00000004DB10000
2FFF6000000000000000
5FFF3000000000000000
6FFF2000000000000000
7FFF1000000000000000
6FFF2000000000000000
4FFF5000000000000000
1FFFB000000000000000
0AFFF600000000000410
01DFFF8100000038EF60
003EFFFFB999BEFFFF40
0002BFFFFFFFFFFFC500
0000038CEFFECA620000
ENDCHAR
STARTCHAR ccircumflex
ENCODING 265
SWIDTH 368 0
DWIDTH 9 0
BBX 12 21 0 0
BITMAP
000000472000
000008FFD000
00003FFFF400
0000CFBCF800
0006FF3AFB00
001EFA08FF10
009FF206FF40
009E7002DD10
000000000000
000000000000
0003AEEA1000
005FFFFF9000
03FFFADFC000
0AFF809FB000
1FFF10AF5000
2FFD00010012
3FFD000001CD
1FFF40004DFC
0BFFFA9CFFE3
02EFFFFFFC30
0029DFEB6000
ENDCHAR
STARTCHAR Cdotaccent
ENCODING 266
SWIDTH 686 0
DWIDTH 16 0
BBX 19 26 1 0
BITMAP
0000000006EE70000000
000000002FFFF1000000
000000003FFFE0000000
0000000009ED50000000
00000000000000000000
00000000000000000000
00000027BEFEB5000000
000008FFFFFFFF900000
0001BFFFEA9CFFF50000
000BFFF70000BFFA0000
007FFF6000006FFC0000
02EFF90000007FFB0000
08FFE10000009FF80000
0DFFA00000004DB10000
2FFF6000000000000000
5FFF3000000000000000
6FFF2000000000000000
7FFF1000000000000000
6FFF2000000000000000
4FFF5000000000000000
1FFFB000000000000000
0AFFF600000000000410
01DFFF8100000038EF60
003EFFFFB999BEFFFF40
0002BFFFFFFFFFFFC500
0000038CEFFECA620000
ENDCHAR
STARTCHAR cdotaccent
ENCODING 267
SWIDTH 368 0
DWIDTH 9 0
BBX 12 17 0 0
BITMAP
00001AEC2000
00008FFF9000
00009FFF7000
00002CEB1000
000000000000
000000000000
0003AEEA1000
005FFFFF9000
03FFFADFC000
0AFF809FB000
1FFF10AF5000
2FFD00010012
3FFD000001CD
1FFF40004DFC
0BFFFA9CFFE3
02EFFFFFFC30
0029DFEB6000
ENDCHAR
STARTCHAR Ccaron
ENCODING 268
SWIDTH 686 0
DWIDTH 16 0
BBX 19 28 1 0
BITMAP
00000007E7001BE40000
00000009FE108FF30000
00000003FF63FF800000
00000000AFCCFC000000
000000003FFFE2000000
0000000007ED40000000
00000000000000000000
00000000000000000000
00000027BEFEB5000000
000008FFFFFFFF900000
0001BFFFEA9CFFF50000
000BFFF70000BFFA0000
007FFF6000006FFC0000
02EFF90000007FFB0000
08FFE10000009FF80000
0DFFA00000004DB10000
2FFF6000000000000000
5FFF3000000000000000
6FFF2000000000000000
7FFF1000000000000000
6FFF2000000000000000
4FFF5000000000000000
1FFFB000000000000000
0AFFF600000000000410
01DFFF8100000038EF60
003EFFFFB999BEFFFF40
0002BFFFFFFFFFFFC500
0000038CEFFECA620000
ENDCHAR
STARTCHAR ccaron
ENCODING 269
SWIDTH 368 0
DWIDTH 9 0
BBX 12 21 0 0
BITMAP
0006E9001BE3
000AFE008FF3
0007FF21EFA0
0004FF37FF20
0000FF6EF800
0000BFDFE100
00007FFF6000
00001CE80000
000000000000
000000000000
0003AEEA1000
005FFFFF9000
03FFFADFC000
0AFF809FB000
1FFF10AF5000
2FFD00010012
3FFD000001CD
1FFF40004DFC
0BFFFA9CFFE3
02EFFFFFFC30
0029DFEB6000
ENDCHAR
STARTCHAR Dcaron
ENCODING 270
SWIDTH 836 0
DWIDTH 20 0
BBX 19 28 1 0
BITMAP
0000006E9000AE500000
0000007FF207FF400000
0000002FF72EFA000000
00000009FDBFD1000000
00000002EFFF30000000
000000005ED500000000
00000000000000000000
00000000000000000000
000058BDEEDC83000000
029EFFFFFFFFFFC30000
5FFFFFECBBCFFFFF5000
DFFC720000018FFFE300
AC500000000004FFFC00
0000BFF40000009FFF30
0003FFF30000003FFF60
0007FFE00000000FFF80
000BFFA00000000EFF90
000EFF600000000FFF80
003FFF300000002FFF70
006FFE000000005FFF40
009FFC00000000AFFF10
00CFF900000002FFFA00
00EFF70000000BFFF300
01FFF5000000AFFF8000
03FFF300015DFFFA0000
05FFFBABCFFFFF900000
05FFFFFFFFFFC4000000
019CEFFEDB7300000000
ENDCHAR
STARTCHAR dcaron
ENCODING 271
SWIDTH 470 0
DWIDTH 11 0
BBX 16 23 0 0
BITMAP
0000000000000273
0000000000000CFE
0000000000000EFD
0000000006EE2FF8
000000000DFF5FF3
000000001FFF2DB0
000000003FFD0000
000000005FFA0000
000000007FF70000
000000009FF40000
00000000BFF10000
00000000DFD00000
00004BECFFB00000
0007FFFFFF800000
007FFFCCFF500000
02FFF60AFF200000
09FF900DFE000000
0EFF202FFC000100
1FFE006FFA005F40
2FFE00CFF905FF40
0EFFBCFFFEBFFA00
08FFFFD8FFFFA000
009EEA109ED60000
ENDCHAR
STARTCHAR Dcroat
ENCODING 272
SWIDTH 821 0
DWIDTH 20 0
BBX 20 20 0 0
BITMAP
0000007CEFFEC8300000
000003FFFFFFFFFA1000
000008FFD89BFFFFD200
00000DFF800019FFFC00
00003FFF3000008FFF60
00007FFD0000000DFFC0
0000BFF900000008FFF1
0001FFF500000005FFF3
2BEFFFFFFFE90004FFF4
9FFFFFFFFFFE0005FFF3
388EFFC888840007FFF1
000EFF700000000AFFE0
002FFF400000000EFF90
004FFF100000007FFF30
007FFE00000002EFFB00
008FFC0000003DFFE200
00AFFB000017EFFF4000
00CFFD999CFFFFD30000
00CFFFFFFFFFE8100000
004ACDEFECA510000000
ENDCHAR
STARTCHAR dcroat
ENCODING 273
SWIDTH 470 0
DWIDTH 11 0
BBX 15 20 0 0
BITMAP
0000000006EE3000
000000000DFF5000
000000001FFF2000
000000003FFE0000
0000DFFFFFFFE200
0002FFFFFFFFE100
00007888DFF81000
00000000BFF20000
00000000DFE00000
00004BECFFB00000
0007FFFFFF800000
007FFFCCFF500000
02FFF60AFF200000
09FF900DFE000000
0EFF202FFC000100
1FFE006FFA005F40
2FFE00CFF905FF40
0EFFBCFFFEBFFA00
08FFFFD8FFFFA000
009EEA109ED60000
ENDCHAR
STARTCHAR Emacron
ENCODING 274
SWIDTH 686 0
DWIDTH 16 0
BBX 20 25 0 0
BITMAP
00000000788888700000
00000006FFFFFFF30000
00000004EFFFFFD10000
00000000000000000000
00000000000000000000
00000016ADEFEB600000
000006EFFFFFFFFB1000
00008FFFFCA9CFFF9000
0005FFFB200007FFE000
000BFFE1000002FFF100
000DFFA0000003FFF000
000CFFC0000004FFB000
0007FFF6000001992000
0000AFFFD98200000000
000019FFFFF700000000
0018EFFFFFE300000000
01CFFFA5210000000000
09FFE400000000000000
1FFF8000000000000000
3FFF5000000000000000
2FFF8000000000000031
0DFFF710000000159EF6
04FFFFEBA99ABDFFFFF4
003CFFFFFFFFFFFFFC50
000048BDEFFEDB962000
ENDCHAR
STARTCHAR emacron
ENCODING 275
SWIDTH 393 0
DWIDTH 9 0
BBX 13 16 0 0
BITMAP
00078888870000
005FFFFFFF4000
003EFFFFFD1000
00000000000000
00000000000000
0003AEEB200000
005FFFFFD00000
03FFFADFF30000
0AFF605FF30000
0FFD00BFD00000
2FFC6DFE400310
2FFFFFA2006F70
1FFF81002AFF60
0AFFEA9BFFFA00
01DFFFFFFF8000
0018CEEC820000
ENDCHAR
STARTCHAR Ebreve
ENCODING 276
SWIDTH 686 0
DWIDTH 16 0
BBX 20 27 0 0
BITMAP
00000005600000272000
0000003FF80002DFA000
0000001FFFB9AEFF5000
00000007FFFFFFF90000
000000004AEFEA400000
00000000000000000000
00000000000000000000
00000016ADEFEB600000
000006EFFFFFFFFB1000
00008FFFFCA9CFFF9000
0005FFFB200007FFE000
000BFFE1000002FFF100
000DFFA0000003FFF000
000CFFC0000004FFB000
0007FFF6000001992000
0000AFFFD98200000000
000019FFFFF700000000
0018EFFFFFE300000000
01CFFFA5210000000000
09FFE400000000000000
1FFF8000000000000000
3FFF5000000000000000
2FFF8000000000000031
0DFFF710000000159EF6
04FFFFEBA99ABDFFFFF4
003CFFFFFFFFFFFFFC50
000048BDEFFEDB962000
ENDCHAR
STARTCHAR ebreve
ENCODING 277
SWIDTH 393 0
DWIDTH 9 0
BBX 13 19 0 0
BITMAP
00460000017200
02FF60000BF900
02FFD1007FF800
00CFFE9BFFE200
002EFFFFFE5000
00029DFD920000
00000000000000
00000000000000
0003AEEB200000
005FFFFFD00000
03FFFADFF30000
0AFF605FF30000
0FFD00BFD00000
2FFC6DFE400310
2FFFFFA2006F70
1FFF81002AFF60
0AFFEA9BFFFA00
01DFFFFFFF8000
0018CEEC820000
ENDCHAR
STARTCHAR Edotaccent
ENCODING 278
SWIDTH 686 0
DWIDTH 16 0
BBX 20 26 0 0
BITMAP
0000000001AED4000000
0000000007FFFB000000
0000000008FFF9000000
0000000002CEB2000000
00000000000000000000
00000000000000000000
00000016ADEFEB600000
000006EFFFFFFFFB1000
00008FFFFCA9CFFF9000
0005FFFB200007FFE000
000BFFE1000002FFF100
000DFFA0000003FFF000
000CFFC0000004FFB000
0007FFF6000001992000
0000AFFFD98200000000
000019FFFFF700000000
0018EFFFFFE300000000
01CFFFA5210000000000
09FFE400000000000000
1FFF8000000000000000
3FFF5000000000000000
2FFF8000000000000031
0DFFF710000000159EF6
04FFFFEBA99ABDFFFFF4
003CFFFFFFFFFFFFFC50
000048BDEFFEDB962000
ENDCHAR
STARTCHAR edotaccent
ENCODING 279
SWIDTH 393 0
DWIDTH 9 0
BBX 13 17 0 0
BITMAP
000009ED300000
00006FFFB00000
00007FFF900000
00001CEB200000
00000000000000
00000000000000
0003AEEB200000
005FFFFFD00000
03FFFADFF30000
0AFF605FF30000
0FFD00BFD00000
2FFC6DFE400310
2FFFFFA2006F70
1FFF81002AFF60
0AFFEA9BFFFA00
01DFFFFFFF8000
0018CEEC820000
ENDCHAR
STARTCHAR Eogonek
ENCODING 280
SWIDTH 686 0
DWIDTH 16 0
BBX 20 26 0 -6
BITMAP
00000016ADEFEB600000
000006EFFFFFFFFB1000
00008FFFFCA9CFFF9000
0005FFFB200007FFE000
000BFFE1000002FFF100
000DFFA0000003FFF000
000CFFC0000004FFB000
0007FFF6000001992000
0000AFFFD98200000000
000019FFFFF700000000
0018EFFFFFE300000000
01CFFFA5210000000000
09FFE400000000000000
1FFF8000000000000000
3FFF5000000000000000
2FFF8000000000000031
0DFFF710000000159EF6
05FFFFEBA99ABDFFFFF4
004DFFFFFFFFFFFFFC50
000059CEFFFFCA862000
000000005FF300000000
00000000CF9000000000
00000000FF9000000000
00000000DFFA9C300000
000000007FFFFF500000
0000000006CEE9000000
ENDCHAR
STARTCHAR eogonek
ENCODING 281
SWIDTH 393 0
DWIDTH 9 0
BBX 13 18 0 -7
BITMAP
0003ADEB200000
005FFFFFD00000
02FFFADFF30000
0AFF605FF40000
0EFE009FE10000
2FFB3AFF700000
3FFFFFE7002D60
1FFFC71003DF70
0CFFA2139FFE20
04FFFFFFFFD200
004DFFFFD70000
00008FF6000000
0001EF60000000
0004FF20000000
0004FF81230000
0001DFFFFE0000
00003BFFE80000
00000002000000
ENDCHAR
STARTCHAR Ecaron
ENCODING 282
SWIDTH 686 0
DWIDTH 16 0
BBX 20 28 0 0
BITMAP
00000000CE3003DC0000
00000000EFA00DFD0000
000000008FF18FF30000
000000001EF9FF700000
0000000007FFFB000000
0000000000BFB1000000
00000000000000000000
00000000000000000000
00000016ADEFEB600000
000006EFFFFFFFFB1000
00008FFFFCA9CFFF9000
0005FFFB200007FFE000
000BFFE1000002FFF100
000DFFA0000003FFF000
000CFFC0000004FFB000
0007FFF6000001992000
0000AFFFD98200000000
000019FFFFF700000000
0018EFFFFFE300000000
01CFFFA5210000000000
09FFE400000000000000
1FFF8000000000000000
3FFF5000000000000000
2FFF8000000000000031
0DFFF710000000159EF6
04FFFFEBA99ABDFFFFF4
003CFFFFFFFFFFFFFC50
000048BDEFFEDB962000
ENDCHAR
STARTCHAR ecaron
ENCODING 283
SWIDTH 393 0
DWIDTH 9 0
BBX 13 21 0 0
BITMAP
0004EB000AE500
0008FF106FF500
0005FF30DFC000
0002FF55FF4000
0000DF7CFA0000
00009FDFF20000
00005FFF800000
00000BE9000000
00000000000000
00000000000000
0003AEEB200000
005FFFFFD00000
03FFFADFF30000
0AFF605FF30000
0FFD00BFD00000
2FFC6DFE400310
2FFFFFA2006F70
1FFF81002AFF60
0AFFEA9BFFFA00
01DFFFFFFF8000
0018CEEC820000
ENDCHAR
STARTCHAR Gcircumflex
ENCODING 284
SWIDTH 811 0
DWIDTH 19 0
BBX 21 40 1 -11
BITMAP
0000000000276000000000
0000000004FFF900000000
000000001EFEFF10000000
00000000AFF4FF70000000
00000005FF90DFD0000000
0000000EFE108FF2000000
0000000CE5002DC1000000
0000000000000000000000
0000000000000000000000
00000016BDFED920000000
000007EFFFFFFFE4000000
0001BFFFEA9AEFFE100000
000BFFF810002EFF500000
007FFF5000000BFF700000
01EFF90000000CFF700000
08FFE10000000EFF400000
0DFFA00000000AFA000000
2FFF600000000000000000
5FFF300000000000000000
6FFF200000000000000000
7FFF100000388888600000
6FFF200000CFFFFFF10000
4FFF5000008FFFFFF00000
1FFFB000000001FFD00000
0AFFF500000003FFA008C0
01DFFF71000007FF83DFF0
003EFFFEB99AEFFFCFFE50
0002BFFFFFFFFFFFFFB200
0000049CEFEC8DFFE60000
000000000001AFFE200000
00000000001CFFFA000000
0000000002DFEFF7000000
000000001DFA8FF3000000
00000000BFB0BFD0000000
00000005FE11FF90000000
0000000BF807FF30000000
0000000FF51EFB00000000
0000000FFCCFF400000000
0000000BFFFF8000000000
00000002BED60000000000
ENDCHAR
STARTCHAR gcircumflex
ENCODING 285
SWIDTH 479 0
DWIDTH 12 0
BBX 15 32 0 -11
BITMAP
0000000473000000
0000006FFE100000
000002EFFF600000
00000AFCBF900000
00004FF58FD00000
0000DFC06FF20000
0007FF404FF60000
0007E8001CE30000
0000000000000000
0000000000000000
00003AEE10000000
0007FFFFFF400000
007FFFCCFF500000
02FFF60AFF200000
09FF900DFE000000
0EFF202FFC000200
1FFE005FF903CF10
2FFE00BFF78FFE00
0EFFBCFFFFFFD300
08FFFFEFFFF91000
009EE8BFFD400000
00001BFFD1000000
0002DFFF90000000
002DFEFF60000000
01DFA7FF20000000
0BFB0BFD00000000
5FE11FF800000000
BF806FF300000000
FF51EFB000000000
FFCCFF4000000000
BFFFF80000000000
2BED700000000000
ENDCHAR
STARTCHAR Gbreve
ENCODING 286
SWIDTH 811 0
DWIDTH 19 0
BBX 21 38 1 -11
BITMAP
0000001740000046100000
0000008FF40005FF500000
0000006FFEA9BFFE100000
0000000BFFFFFFF5000000
000000006CEFD920000000
0000000000000000000000
0000000000000000000000
00000016BDFED920000000
000007EFFFFFFFE4000000
0001BFFFEA9AEFFE100000
000BFFF810002EFF500000
007FFF5000000BFF700000
01EFF90000000CFF700000
08FFE10000000EFF400000
0DFFA00000000AFA000000
2FFF600000000000000000
5FFF300000000000000000
6FFF200000000000000000
7FFF100000388888600000
6FFF200000CFFFFFF10000
4FFF5000008FFFFFF00000
1FFFB000000001FFD00000
0AFFF500000003FFA008C0
01DFFF71000007FF83DFF0
003EFFFEB99AEFFFCFFE50
0002BFFFFFFFFFFFFFB200
0000049CEFEC8DFFE60000
000000000001AFFE200000
00000000001CFFFA000000
0000000002DFEFF7000000
000000001DFA8FF3000000
00000000BFB0BFD0000000
00000005FE11FF90000000
0000000BF807FF30000000
0000000FF51EFB00000000
0000000FFCCFF400000000
0000000BFFFF8000000000
00000002BED60000000000
ENDCHAR
STARTCHAR gbreve
ENCODING 287
SWIDTH 479 0
DWIDTH 12 0
BBX 15 30 0 -11
BITMAP
0004600000172000
002FF60000BF9000
002FFD1007FF8000
000CFFE9BFFE2000
0002EFFFFFE50000
000029DFD9200000
0000000000000000
0000000000000000
00003AEE10000000
0007FFFFFF400000
007FFFCCFF500000
02FFF60AFF200000
09FF900DFE000000
0EFF202FFC000200
1FFE005FF903CF10
2FFE00BFF78FFE00
0EFFBCFFFFFFD300
08FFFFEFFFF91000
009EE8BFFD400000
00001BFFD1000000
0002DFFF90000000
002DFEFF60000000
01DFA7FF20000000
0BFB0BFD00000000
5FE11FF800000000
BF806FF300000000
FF51EFB000000000
FFCCFF4000000000
BFFFF80000000000
2BED700000000000
ENDCHAR
STARTCHAR Gdotaccent
ENCODING 288
SWIDTH 811 0
DWIDTH 19 0
BBX 21 37 1 -11
BITMAP
0000000003CEB100000000
000000000CFFF600000000
000000000DFFF500000000
0000000005DE9000000000
0000000000000000000000
0000000000000000000000
00000016BDFED920000000
000007EFFFFFFFE4000000
0001BFFFEA9AEFFE100000
000BFFF810002EFF500000
007FFF5000000BFF700000
01EFF90000000CFF700000
08FFE10000000EFF400000
0DFFA00000000AFA000000
2FFF600000000000000000
5FFF300000000000000000
6FFF200000000000000000
7FFF100000388888600000
6FFF200000CFFFFFF10000
4FFF5000008FFFFFF00000
1FFFB000000001FFD00000
0AFFF500000003FFA008C0
01DFFF71000007FF83DFF0
003EFFFEB99AEFFFCFFE50
0002BFFFFFFFFFFFFFB200
0000049CEFEC8DFFE60000
000000000001AFFE200000
00000000001CFFFA000000
0000000002DFEFF7000000
000000001DFA8FF3000000
00000000BFB0BFD0000000
00000005FE11FF90000000
0000000BF807FF30000000
0000000FF51EFB00000000
0000000FFCCFF400000000
0000000BFFFF8000000000
00000002BED60000000000
ENDCHAR
STARTCHAR gdotaccent
ENCODING 289
SWIDTH 479 0
DWIDTH 12 0
BBX 15 28 0 -11
BITMAP
0000009ED3000000
000006FFFB000000
000007FFF9000000
000001CEB2000000
0000000000000000
0000000000000000
00003AEE10000000
0007FFFFFF400000
007FFFCCFF500000
02FFF60AFF200000
09FF900DFE000000
0EFF202FFC000200
1FFE005FF903CF10
2FFE00BFF78FFE00
0EFFBCFFFFFFD300
08FFFFEFFFF91000
009EE8BFFD400000
00001BFFD1000000
0002DFFF90000000
002DFEFF60000000
01DFA7FF20000000
0BFB0BFD00000000
5FE11FF800000000
BF806FF300000000
FF51EFB000000000
FFCCFF4000000000
BFFFF80000000000
2BED700000000000
ENDCHAR
STARTCHAR uni0122
ENCODING 290
SWIDTH 811 0
DWIDTH 19 0
BBX 21 31 1 -11
BITMAP
00000016BDFED920000000
000007EFFFFFFFE4000000
0001BFFFEA9AEFFE100000
000BFFF810002EFF500000
007FFF5000000BFF700000
01EFF90000000CFF700000
08FFE10000000EFF400000
0DFFA00000000AFA000000
2FFF600000000000000000
5FFF300000000000000000
6FFF200000000000000000
7FFF100000388888600000
6FFF200000CFFFFFF10000
4FFF5000008FFFFFF00000
1FFFB000000001FFD00000
0AFFF500000003FFA008C0
01DFFF71000007FF83DFF0
003EFFFEB99AEFFFCFFE50
0002BFFFFFFFFFFFFFB200
0000049CEFEC8DFFE60000
00009E700001AFFE200000
0001FFC0001CFFFA000000
0001FF9002DFEFF7000000
0002FF401DFA8FF3000000
0001DB00BFB0BFD0000000
00000005FE11FF90000000
0000000BF807FF30000000
0000000FF51EFB00000000
0000000FFCCFF400000000
0000000BFFFF8000000000
00000002BED60000000000
ENDCHAR
STARTCHAR uni0123
ENCODING 291
SWIDTH 479 0
DWIDTH 12 0
BBX 15 30 0 -11
BITMAP
0000001BE4000000
0000004FF8000000
0000005FF6000000
0000006FF1000000
0000007FB0000000
0000004E50000000
0000000000000000
0000000000000000
00003AEE10000000
0007FFFFFF400000
007FFFCCFF500000
02FFF60AFF200000
09FF900DFE000000
0EFF202FFC000200
1FFE005FF903CF10
2FFE00BFF78FFE00
0EFFBCFFFFFFD300
08FFFFEFFFF91000
009EE8BFFD400000
00001BFFD1000000
0002DFFF90000000
002DFEFF60000000
01DFA7FF20000000
0BFB0BFD00000000
5FE11FF800000000
BF806FF300000000
FF51EFB000000000
FFCCFF4000000000
BFFFF80000000000
2BED700000000000
ENDCHAR
STARTCHAR Hcircumflex
ENCODING 292
SWIDTH 873 0
DWIDTH 21 0
BBX 25 29 -1 0
BITMAP
00000000000003750000000000
0000000000006FFF6000000000
000000000003FFEFD000000000
00000000000CFE5FF400000000
00000000008FF61FFA00000000
0000000002FFD00BFF00000000
0000000001DD3004EA00000000
00000000000000000000000000
00000000000000000007DE9000
00005BEEB200000000AFFFF600
002CFFFFFC00000006FFDCFB00
02EFEACFFF3000001EFE24FC00
0DFC201FFF5000008FF804FC00
5FD1000DFF600000EFF206F900
2C20000DFF500004FFC00BF500
0000000FFF400009FF704FD000
0000002FFF20000CFF44EF5000
0000004FFF00000FFFBFF70000
0000006FFE55558FFFFD500000
0005EFFFFFFFFFFFFE71000000
000AFFFFFFFFFEEFFB00000000
000389FFF732108FFB00000000
000004FFF100008FFB00000000
000008FFD000008FFC00000010
00000BFF9000005FFF000009E0
00001FFF5000002FFF70009FE0
00004FFF2000000AFFFA9DFF50
00006FFC00000001DFFFFFE500
00003ED30000000018DFD92000
ENDCHAR
STARTCHAR hcircumflex
ENCODING 293
SWIDTH 502 0
DWIDTH 12 0
BBX 15 31 1 0
BITMAP
0000002760000000
000004FFF9000000
00001EFEFF100000
0000AFF4FF700000
0005FF90DFD00000
000EFE108FF20000
000CE5002DC10000
0000000000000000
0000000000000000
00001AED30000000
0001DFFFD0000000
0009FFBFF3000000
002FF81FF4000000
009FF11FF3000000
00EFB03FE0000000
04FF708FA0000000
08FF31EF30000000
0CFF08FA00000000
0FFC2FE200000000
2FFBDF5000000000
4FFFF83BEB000000
6FFFA4FFFF300000
8FFB3EFFFF200000
9FF4CFBFFE000000
9FF8FA2FFB000000
AFFEF24FF8000400
AFFF907FF500AF10
BFFF409FF409FE00
BFFE00AFFCCFF500
AFF8007FFFFE5000
6EB1001AEEA20000
ENDCHAR
STARTCHAR Hbar
ENCODING 294
SWIDTH 856 0
DWIDTH 21 0
BBX 21 20 1 0
BITMAP
00009EC10000000AEC0000
0002FFF30000003FFF3000
0004FFF30000005FFF2000
0159FFF7666666AFFF7400
0BFFFFFFFFFFFFFFFFFF10
0AFFFFFFFFFFFFFFFFEA00
000CFF90000000CFF80000
000EFF60000000EFF50000
179FFFA8888889FFFA7000
8FFFFFFFFFFFFFFFFFF500
7FFFFFFFFFFFFFFFFFC100
00BFFA0000000BFF900000
00DFF80000000DFF700000
01FFF50000001FFF500000
03FFF30000003FFF300000
05FFF10000006FFF100000
07FFF00000008FFE000000
09FFD00000009FFD000000
0AFFB0000000AFFB000000
05EE400000005EE4000000
ENDCHAR
STARTCHAR hbar
ENCODING 295
SWIDTH 502 0
DWIDTH 12 0
BBX 15 20 1 0
BITMAP
0007EC0000000000
001FFF1000000000
006FFC0000000000
009FF90000000000
8FFFFFFFF6000000
9FFFFFFFF9000000
07FFD66651000000
08FF900000000000
0BFF600000000000
0EFF203BEB000000
1FFE04FFFF300000
3FFB2EFFFF200000
5FF9CFBFFE000000
7FFAFA2FFB000000
8FFEF24FF8000400
9FFF907FF500AF10
9FFF409FF409FE00
9FFE00AFFCCFF500
7FF9007FFFFF6000
2DD2001AEEA30000
ENDCHAR
STARTCHAR Itilde
ENCODING 296
SWIDTH 495 0
DWIDTH 12 0
BBX 15 27 -1 0
BITMAP
0000003740000640
000007FFFB309FD0
00003FFBFFFAFF90
00009FC03DFFFE10
00002710018EC300
0000000000000000
0000000000000000
0002CFFFFFFFFD20
0008FFFFFFFFFF30
0002889FFFB88500
0000003FFF300000
0000005FFF100000
0000007FFD000000
000000AFFB000000
000000CFF8000000
000000EFF6000000
000002FFF4000000
000004FFF1000000
000007FFE0000000
000009FFC0000000
00000BFF90000000
00000EFF70000000
00001FFF50000000
00003FFF30000000
0378BFFF98710000
3FFFFFFFFFF80000
3EFFFFFFFFD30000
ENDCHAR
STARTCHAR itilde
ENCODING 297
SWIDTH 246 0
DWIDTH 6 0
BBX 11 18 -1 0
BITMAP
005720002720
09FFF810CF80
5FFAFFEBFF30
CF905EFFF900
360002BEA000
000000000000
000000000000
0007ED000000
000EFF000000
002FFC000000
006FF9000000
009FF6000000
00BFF3001300
00DFF100BE00
00CFF10BFD00
00BFFBDFF400
005FFFFE4000
0008EEA20000
ENDCHAR
STARTCHAR Imacron
ENCODING 298
SWIDTH 495 0
DWIDTH 12 0
BBX 15 25 -1 0
BITMAP
0000017888887000
000006FFFFFFF200
000004FFFFFFC000
0000000000000000
0000000000000000
0002CFFFFFFFFD20
0008FFFFFFFFFF30
0002889FFFB88500
0000003FFF300000
0000005FFF100000
0000007FFD000000
000000AFFB000000
000000CFF8000000
000000EFF6000000
000002FFF4000000
000004FFF1000000
000007FFE0000000
000009FFC0000000
00000BFF90000000
00000EFF70000000
00001FFF50000000
00003FFF30000000
0378BFFF98710000
3FFFFFFFFFF80000
3EFFFFFFFFD30000
ENDCHAR
STARTCHAR imacron
ENCODING 299
SWIDTH 246 0
DWIDTH 6 0
BBX 9 16 0 0
BITMAP
2888888500
BFFFFFFD00
8FFFFFF800
0000000000
0000000000
007ED00000
00EFF00000
02FFC00000
06FF900000
09FF600000
0BFF300130
0DFF100BE0
0CFF10BFD0
0BFFBDFF40
05FFFFE400
008EEA2000
ENDCHAR
STARTCHAR Ibreve
ENCODING 300
SWIDTH 495 0
DWIDTH 12 0
BBX 15 27 -1 0
BITMAP
0000066000002720
00004FF70003EF80
00002FFFB9AFFF40
000008FFFFFFF800
0000004BEFDA4000
0000000000000000
0000000000000000
0002CFFFFFFFFD20
0008FFFFFFFFFF30
0002889FFFB88500
0000003FFF300000
0000005FFF100000
0000007FFD000000
000000AFFB000000
000000CFF8000000
000000EFF6000000
000002FFF4000000
000004FFF1000000
000007FFE0000000
000009FFC0000000
00000BFF90000000
00000EFF70000000
00001FFF50000000
00003FFF30000000
0378BFFF98710000
3FFFFFFFFFF80000
3EFFFFFFFFD30000
ENDCHAR
STARTCHAR ibreve
ENCODING 301
SWIDTH 246 0
DWIDTH 6 0
BBX 11 19 -1 0
BITMAP
163000003600
7FE10003FF40
7FF9000CFF20
2FFFC9DFFB00
07FFFFFFC100
004BEEC71000
000000000000
000000000000
0007ED000000
000EFF000000
002FFC000000
006FF9000000
009FF6000000
00BFF3001300
00DFF100BE00
00CFF10BFD00
00BFFBDFF400
005FFFFE4000
0008EEA20000
ENDCHAR
STARTCHAR Iogonek
ENCODING 302
SWIDTH 495 0
DWIDTH 12 0
BBX 15 26 -1 -6
BITMAP
0002CFFFFFFFFD20
0008FFFFFFFFFF30
0002889FFFB88500
0000003FFF300000
0000005FFF100000
0000007FFD000000
000000AFFB000000
000000CFF8000000
000000EFF6000000
000002FFF4000000
000004FFF1000000
000007FFE0000000
000009FFC0000000
00000BFF90000000
00000EFF70000000
00001FFF50000000
00003FFF30000000
0378BFFF98710000
3FFFFFFFFFF80000
3EFFFFFFFFD30000
0001DF9000000000
0006FF1000000000
0008FF4022000000
0006FFFFFC000000
0000BFFFF9000000
0000047850000000
ENDCHAR
STARTCHAR iogonek
ENCODING 303
SWIDTH 246 0
DWIDTH 6 0
BBX 9 22 0 -6
BITMAP
003CEA1000
00BFFF5000
00DFFF4000
005EE80000
0000000000
006ED00000
00EFF00000
02FFC00000
06FF900000
09FF600000
0BFF300020
0DFF100AE0
0DFF108FD0
0BFF9AFF50
07FFFFF500
01DFFC3000
08FF800000
1FF7000000
5FF2000000
4FF9244000
1DFFFFE000
02AEFD5000
ENDCHAR
STARTCHAR Idotaccent
ENCODING 304
SWIDTH 495 0
DWIDTH 12 0
BBX 15 26 -1 0
BITMAP
00000001AEC30000
00000008FFFA0000
00000009FFF80000
00000003CEB10000
0000000000000000
0000000000000000
0002CFFFFFFFFD20
0008FFFFFFFFFF30
0002889FFFB88500
0000003FFF300000
0000005FFF100000
0000007FFD000000
000000AFFB000000
000000CFF8000000
000000EFF6000000
000002FFF4000000
000004FFF1000000
000007FFE0000000
000009FFC0000000
00000BFF90000000
00000EFF70000000
00001FFF50000000
00003FFF30000000
0378BFFF98710000
3FFFFFFFFFF80000
3EFFFFFFFFD30000
ENDCHAR
STARTCHAR dotlessi
ENCODING 305
SWIDTH 246 0
DWIDTH 6 0
BBX 8 11 1 0
BITMAP
07ED0000
0EFF0000
2FFC0000
6FF90000
9FF60000
BFF30013
DFF100BE
CFF10BFD
BFFBDFF4
5FFFFE40
08EEA200
ENDCHAR
STARTCHAR Jcircumflex
ENCODING 308
SWIDTH 743 0
DWIDTH 18 0
BBX 18 31 1 -2
BITMAP
000000000474000000
000000009FFF400000
00000005FFEFB00000
0000001EFC7FF20000
000000AFF43FF80000
000004FFA00EFC0000
000003EC1006E80000
000000000000000000
000000000000000000
000027ACEEFFEDB850
003BFFFFFFFFFFFFF5
03FFFFDA999ACFFFE3
0DFF810000005FFF10
3FFB000000007FFE00
4FF9000000009FFC00
2FFE00000000BFF900
0CFE10000000DFF700
016300000000FFF400
00000000004AFFF200
000000005CFFFFE000
0000003CFFFEFFB000
000006FFFA3BFF7000
00007FFE500EFF3000
0004FFE2004FFD0000
000DFF40009FF80000
004FFC0001EFF20000
006FF90007FFA00000
007FFB004FFE200000
004FFFBAFFF6000000
000BFFFFFF60000000
00008DFDA300000000
ENDCHAR
STARTCHAR jcircumflex
ENCODING 309
SWIDTH 254 0
DWIDTH 6 0
BBX 15 32 -6 -11
BITMAP
0000000001661000
000000000CFF9000
000000007FFFE000
00000002EF8FF300
0000000AFD0EF700
0000004FF60CFB00
000000DFD00AFE00
000000CD4005EA00
0000000000000000
0000000000000000
000000008EC00000
00000001FFE00000
00000002FFD00000
00000004FFB00000
00000006FF900000
00000008FF600110
00000009FF405E90
0000000BFF3AFF80
0000000DFFDFF910
0000000EFFFD4000
0000001FFFA10000
000001CFF8000000
00003DFFF4000000
0004EFEFF1000000
003EF5DFC0000000
01EF52FF80000000
0AFA07FF30000000
2FF20CFC00000000
5FE05FF600000000
6FFAEFD000000000
3FFFFE3000000000
05DEB30000000000
ENDCHAR
STARTCHAR uni0136
ENCODING 310
SWIDTH 937 0
DWIDTH 22 0
BBX 26 26 0 -6
BITMAP
000017BDEFEC83000000AEB000
0006EFFFFFFFFF200006FFF100
006FFFDA9BFFFE10000CFFB000
01EFE40005FFF100003FFF6000
05FF800007FFD00000AFFD0000
06FF70000AFFB00003FFF60000
04FFB0000CFF90001DFFB00000
00DFE0000EFF6001BFFD100000
003930001FFF404DFFC1000000
00000005AFFFBDFFF910000000
0000001FFFFFFFF93000000000
0000000CFFFFFFFC3000000000
00000000AFFA4DFFE200000000
00000000CFF703FFFB00000000
04200001FFF5009FFF30000032
3FD10005FFF1002FFFC00004F8
5FFA001CFFB0000AFFF8005EF6
1EFFC9DFFF400002EFFFEDFFB0
05EFFFFFF70000005FFFFFFB10
0029DFEB4000000004BEEC6000
00000000000000000000000000
00000000002DD3000000000000
00000000006FF7000000000000
00000000007FF3000000000000
00000000007FD0000000000000
00000000005E60000000000000
ENDCHAR
STARTCHAR uni0137
ENCODING 311
SWIDTH 525 0
DWIDTH 13 0
BBX 15 29 1 -7
BITMAP
00001AED30000000
0001DFFFD0000000
0009FFBFF3000000
002FF71FF4000000
009FF11FF3000000
00EFB04FE0000000
04FF709F90000000
08FF31EF20000000
0CFF08F800000000
0FFC3FD100000000
2FFBDE3000000000
4FFFF53BEC400000
6FFF75FFFFE10000
8FF83FFAFFF40000
9FF4DF40CFF30000
9FF9F802EFD00000
AFFFE16EFF400330
AFFF87FFD3003EA0
AFFF39FF8003EF80
9FFD06FFFBAFFC10
7FF901DFFFFFC100
1DD20019EFD70000
0000000000000000
0007E90000000000
000EFE0000000000
000FFB0000000000
000FF60000000000
001FF20000000000
000D900000000000
ENDCHAR
STARTCHAR kgreenlandic
ENCODING 312
SWIDTH 465 0
DWIDTH 11 0
BBX 14 11 1 0
BITMAP
06EE018DEB2000
0EFD1CFFFFB000
3FF99FFCCFF000
6FF7FFB06FE000
9FFAFF507F7000
AFFDFF20010030
BFFFFF300008F3
CFFFFF90008FF2
BFFBDFFC9CFF80
9FF73EFFFFF800
2DD102AEEB4000
ENDCHAR
STARTCHAR Lacute
ENCODING 313
SWIDTH 673 0
DWIDTH 16 0
BBX 21 28 -1 0
BITMAP
0000000000000000065000
0000000000000001BFF600
000000000000002DFFF600
00000000000004EFFE7000
0000000000005FFE810000
0000000000007E81000000
0000000000000000000000
0000000000000000000000
00000000038CEFDA300000
00000001AFFFFFFFF60000
0000001CFFFC99DFFF2000
000000AFFE50001DFF7000
000004FFF6000009FF9000
000009FFE000000AFF8000
00000DFFA000000BFF4000
00000FFF70000005B70000
00002FFF50000000000000
00003FFF30000000000000
00004FFF10000000000000
00005FFF00000000000000
00006FFD00000000000000
00007FFC00000000000000
00008FFA00000000000700
05CEFFFB51000000008F30
8FFFFFFFFFA5100008FF10
EFFFFFFFFFFFFB9AEFF600
CFFFFF77CFFFFFFFFE6000
2BEEB400016ACEED920000
ENDCHAR
STARTCHAR lacute
ENCODING 314
SWIDTH 326 0
DWIDTH 8 0
BBX 14 30 1 0
BITMAP
00000000001740
0000000003DFF2
000000004EFFF2
00000007FFFD40
0000008FFD6000
000000AD600000
00000000000000
00000000000000
00001AED300000
0001DFFFC00000
0009FEBFF20000
002FF72FF40000
009FF11FF40000
01EFB02FF30000
05FF604FF00000
09FF308FB00000
0DFE00CF700000
1FFC03FF100000
3FF909FA000000
6FF71FF3000000
8FF68FB0000000
9FF7FF30000000
AFFEF900000000
AFFFE100000000
9FFF4000120000
8FF90001CD0000
4FFA001BFC0000
1EFFAAEFE30000
06FFFFFE300000
006DFD81000000
ENDCHAR
STARTCHAR uni013B
ENCODING 315
SWIDTH 673 0
DWIDTH 16 0
BBX 21 26 -1 -6
BITMAP
00000000038CEFDA300000
00000001AFFFFFFFF60000
0000001CFFFC99DFFF2000
000000AFFE50001DFF7000
000004FFF6000009FF9000
000009FFE000000AFF8000
00000DFFA000000BFF4000
00000FFF70000005B70000
00002FFF50000000000000
00003FFF30000000000000
00004FFF10000000000000
00005FFF00000000000000
00006FFD00000000000000
00007FFC00000000000000
00008FFA00000000000700
05CEFFFB51000000008F30
8FFFFFFFFFA5100008FF10
EFFFFFFFFFFFFB9AEFF600
CFFFFF77CFFFFFFFFE6000
2BEEB400016ACEED920000
0000000000000000000000
00000007E9000000000000
0000000DFF000000000000
0000000EFB000000000000
0000000EF6000000000000
0000000BD1000000000000
ENDCHAR
STARTCHAR uni013C
ENCODING 316
SWIDTH 326 0
DWIDTH 8 0
BBX 10 29 1 -7
BITMAP
00001AED30
0001DFFFC0
0009FEBFF2
002FF72FF4
009FF11FF4
01EFB02FF3
05FF604FF0
09FF308FB0
0DFE00CF70
1FFC03FF10
3FF909FA00
6FF71FF300
8FF68FB000
9FF7FF3000
AFFEF90000
AFFFE10000
9FFF400012
8FF90001CD
4FFA001BFC
1EFFAAEFE3
06FFFFFE30
006DFD8100
0000000000
00BE500000
03FF900000
05FF600000
05FF200000
06FC000000
04E5000000
ENDCHAR
STARTCHAR Lcaron
ENCODING 317
SWIDTH 673 0
DWIDTH 16 0
BBX 23 21 -1 0
BITMAP
000000000000000000005600
00000000038CEFDA3005FF50
00000001AFFFFFFFF608FF40
0000001CFFFC99DFFF28FE00
000000AFFE50001DFF79F900
000004FFF6000009FF97E300
000009FFE000000AFF800000
00000DFFA000000BFF400000
00000FFF70000005B7000000
00002FFF5000000000000000
00003FFF3000000000000000
00004FFF1000000000000000
00005FFF0000000000000000
00006FFD0000000000000000
00007FFC0000000000000000
00008FFA0000000000070000
05CEFFFB51000000008F3000
8FFFFFFFFFA5100008FF1000
EFFFFFFFFFFFFB9AEFF60000
CFFFFF77CFFFFFFFFE600000
2BEEB400016ACEED92000000
ENDCHAR
STARTCHAR lcaron
ENCODING 318
SWIDTH 237 0
DWIDTH 6 0
BBX 10 23 1 0
BITMAP
0000000560
0000005FF6
0000007FF5
001BF98FE1
006FFC8FA0
00AFF96E30
00DFF50000
01FFF20000
04FFD00000
07FFA00000
0AFF700000
0DFF300000
1FFF000000
4FFC000000
6FF9000000
9FF6000000
BFF3000000
DFF1002300
EFF002EB00
EFF02DF900
CFFBEFD200
7FFFFD2000
09EE910000
ENDCHAR
STARTCHAR Ldot
ENCODING 319
SWIDTH 673 0
DWIDTH 16 0
BBX 21 20 -1 0
BITMAP
00000000038CEFDA300000
00000001AFFFFFFFF60000
0000001CFFFC99DFFF2000
000000AFFE50001DFF7000
000004FFF6000009FF9000
000009FFE000000AFF8000
00000DFFA000000BFF4000
00000FFF70000005B70000
00002FFF501AEC30000000
00003FFF307FFF90000000
00004FFF108FFF80000000
00005FFF002CEB10000000
00006FFD00000000000000
00007FFC00000000000000
00008FFA00000000000700
05CEFFFB51000000008F30
8FFFFFFFFFA5100008FF10
EFFFFFFFFFFFFB9AEFF600
CFFFFF77CFFFFFFFFE6000
2BEEB400016ACEED920000
ENDCHAR
STARTCHAR ldot
ENCODING 320
SWIDTH 363 0
DWIDTH 9 0
BBX 11 22 1 0
BITMAP
0003DE500000
000BFF700000
001FFF300000
004FFE000000
008FFA000000
00CFF7000000
00FFF3000000
03FFE0000000
07FFB0000000
0AFF76ED3000
0DFF6FFFA000
1FFF3FFF9000
4FFD09EB1000
6FF900000000
9FF700000000
BFF500000000
CFF400000120
CFF500002DB0
AFFB0003DFA0
6FFFC9BFFD20
0CFFFFFFC200
018DFEB60000
ENDCHAR
STARTCHAR Lslash
ENCODING 321
SWIDTH 673 0
DWIDTH 16 0
BBX 21 24 -1 0
BITMAP
00000000037ADEFFEB5000
00000006DFFFFFFFFFF300
0000003FFFFDB999ABA100
0000001985100000000000
00000000028CEFDA300000
000000019FFFFFFFF60000
0000000BFFFC99DFFF2000
0000009FFE50001DFF7000
000003FFF6000009FF9000
000009FFD000000AFF9000
00000DFF9000000BFF5000
00001FFF60000007FA0000
00002FFF40000000000000
00003FFF30000000000000
00004FFF10000000000000
00005FFF00000000000000
00006FFD00000000000000
00007FFC00000000000000
00008FFA00000000000700
05CEFFFB51000000008F30
8FFFFFFFFFA5100008FF10
EFFFFFFFFFFFFB9AEFF600
CFFFFF77CFFFFFFFFE6000
2BEEB400016ACEED920000
ENDCHAR
STARTCHAR lslash
ENCODING 322
SWIDTH 326 0
DWIDTH 8 0
BBX 14 24 1 0
BITMAP
0000159CEFEC50
0018EFFFFFFFF2
00AFFFEB99ACB1
00BFC610000000
00123BEC300000
0003EFFFD00000
000DFEBFF20000
007FF51FF40000
01EFD01FF40000
05FF703FF20000
0AFF306FD00000
0EFE00BF800000
2FFB02FF200000
5FF80AFA000000
8FF63FF2000000
9FF5DF70000000
AFFCFC00000000
AFFFE200000000
9FFF6000120000
7FF90001CD0000
4FFA001BFC0000
0EFFAAEFE30000
06FFFFFE300000
006DFD81000000
ENDCHAR
STARTCHAR Nacute
ENCODING 323
SWIDTH 884 0
DWIDTH 21 0
BBX 25 28 0 0
BITMAP
00000000000000000560000000
00000000000000009FF8000000
000000000000001CFFF8000000
00000000000003DFFF80000000
0000000000003EFF9200000000
0000000000005E920000000000
00000000000000000000000000
00000000000000000000000000
0004ADEB100017CEEB40000000
019FFFFF9003DFFFFFF2000000
0BFFACFFD02EFD9BFFF9000000
8FE404FFE0CF9000BFFC000000
EF3004FFD6F900009FFD000000
850005FFBDD00000AFFB000000
000007FFDF500000DFF9000000
000009FFFD000001FFF6000000
00000BFFF7000005FFF3000000
00000DFFF2000008FFE0000000
00000FFFC000000BFFB0000000
00003FFF8000000EFF80000000
00005FFF4000003FFF50000000
00007FFF1000005FFF20000000
0000AFFD0000007FFE00000200
0000CFFA0000008FFE00005F30
0000FFF80000007FFF2005FF30
0001FFF50000003FFFD9BFF900
0001FFF300000009FFFFFF8000
0000AFB0000000007CFEA40000
ENDCHAR
STARTCHAR nacute
ENCODING 324
SWIDTH 496 0
DWIDTH 12 0
BBX 14 20 1 0
BITMAP
000000008E8000
00000003FFE000
00000009FF9000
0000002FFC1000
0000008FE20000
000001EF400000
000002E6000000
00000000000000
00000000000000
06EE004CEA0000
0EFD06FFFF1000
3FF94FFFFE0000
6FF6DFBFFC0000
9FF9F84FF90000
AFFEE16FF60013
BFFF709FF300BE
CFFF20CFF21BFD
BFFC00CFFBDFF4
9FF7009FFFFE40
2DD1002BED9200
ENDCHAR
STARTCHAR uni0145
ENCODING 325
SWIDTH 884 0
DWIDTH 21 0
BBX 25 26 0 -6
BITMAP
0004ADEB100017CEEB40000000
019FFFFF9003DFFFFFF2000000
0BFFACFFD02EFD9BFFF9000000
8FE404FFE0CF9000BFFC000000
EF3004FFD6F900009FFD000000
850005FFBDD00000AFFB000000
000007FFDF500000DFF9000000
000009FFFD000001FFF6000000
00000BFFF7000005FFF3000000
00000DFFF2000008FFE0000000
00000FFFC000000BFFB0000000
00003FFF8000000EFF80000000
00005FFF4000003FFF50000000
00007FFF1000005FFF20000000
0000AFFD0000007FFE00000200
0000CFFA0000008FFE00005F30
0000FFF80000007FFF2005FF30
0001FFF50000003FFFD9BFF900
0001FFF300000009FFFFFF8000
0000AFB0000000007CFEA40000
00000000000000000000000000
000000001CE400000000000000
000000004FF900000000000000
000000005FF500000000000000
000000005FF100000000000000
000000003E8000000000000000
ENDCHAR
STARTCHAR uni0146
ENCODING 326
SWIDTH 496 0
DWIDTH 12 0
BBX 14 18 1 -7
BITMAP
06EE004CEA0000
0EFD06FFFF1000
3FF94FFFFE0000
6FF6DFBFFC0000
9FF9F84FF90000
AFFEE16FF60013
BFFF709FF300BE
CFFF20CFF21BFD
BFFC00CFFBDFF4
9FF7009FFFFE40
2DD1002BED9200
00000000000000
0007E900000000
000EFE00000000
000FFB00000000
000FF600000000
001FF200000000
000D9000000000
ENDCHAR
STARTCHAR Ncaron
ENCODING 327
SWIDTH 884 0
DWIDTH 21 0
BBX 25 28 0 0
BITMAP
0000000000BE4003DD10000000
0000000000DFB00DFD00000000
00000000007FF17FF400000000
00000000001EF9FF8000000000
000000000007FFFC0000000000
000000000000AFB10000000000
00000000000000000000000000
00000000000000000000000000
0004ADEB100017CEEB40000000
019FFFFF9003DFFFFFF2000000
0BFFACFFD02EFD9BFFF9000000
8FE404FFE0CF9000BFFC000000
EF3004FFD6F900009FFD000000
850005FFBDD00000AFFB000000
000007FFDF500000DFF9000000
000009FFFD000001FFF6000000
00000BFFF7000005FFF3000000
00000DFFF2000008FFE0000000
00000FFFC000000BFFB0000000
00003FFF8000000EFF80000000
00005FFF4000003FFF50000000
00007FFF1000005FFF20000000
0000AFFD0000007FFE00000200
0000CFFA0000008FFE00005F30
0000FFF80000007FFF2005FF30
0001FFF50000003FFFD9BFF900
0001FFF300000009FFFFFF8000
0000AFB0000000007CFEA40000
ENDCHAR
STARTCHAR ncaron
ENCODING 328
SWIDTH 496 0
DWIDTH 12 0
BBX 14 21 1 0
BITMAP
0003EC1008E700
0006FF403FF700
0003FF60BFE100
0000EF83FF6000
0000BFAAFC0000
00007FDFF40000
00003FFFA00000
00000AEB100000
00000000000000
00000000000000
06EE004CEA0000
0EFD06FFFF1000
3FF94FFFFE0000
6FF6DFBFFC0000
9FF9F84FF90000
AFFEE16FF60013
BFFF709FF300BE
CFFF20CFF21BFD
BFFC00CFFBDFF4
9FF7009FFFFE40
2DD1002BED9200
ENDCHAR
STARTCHAR napostrophe
ENCODING 329
SWIDTH 496 0
DWIDTH 12 0
BBX 16 19 -1 0
BITMAP
07E9000000000000
0EFE000000000000
0FFB000000000000
0FF6000000000000
1FF2000000000000
0D90000000000000
0000000000000000
0000000000000000
0006EE004CEA0000
000EFD06FFFF1000
003FF94FFFFE0000
006FF6DFBFFC0000
009FF9F84FF90000
00AFFEE16FF60013
00BFFF709FF300BE
00CFFF20CFF21BFD
00BFFC00CFFBDFF4
009FF7009FFFFE40
002DD1002BED9200
ENDCHAR
STARTCHAR Eng
ENCODING 330
SWIDTH 884 0
DWIDTH 21 0
BBX 25 28 0 -8
BITMAP
0004ADEB100017CEEB30000000
019FFFFF9003DFFFFFE2000000
0BFFACFFD02EFD9CFFF8000000
9FE404FFE0CF9000DFFB000000
EE3004FFD6F90000AFFB000000
740005FFBDD00000CFFA000000
000007FFDF500000EFF8000000
000009FFFD000002FFF5000000
00000BFFF7000005FFF2000000
00000DFFF2000008FFE0000000
00000FFFC000000BFFA0000000
00003FFF8000000EFF70000000
00005FFF4000003FFF30000000
00008FFF1000006FFE00000000
0000AFFD000000AFFB00000200
0000DFFA000000DFF800005F30
0000FFF8000001FFF60005FF30
0001FFF5000005FFFFC9BFF900
0000FFF3000008FFFFFFFF9000
00008EB000000CFFABEEC50000
0000000000001FFF2000000000
0000000000005FFC0000000000
000000000000AFF60000000000
00006C400002FFE10000000000
0000EFF5000BFF600000000000
0000AFFFB9DFFB000000000000
00001BFFFFFFC1000000000000
0000005BEFC700000000000000
ENDCHAR
STARTCHAR eng
ENCODING 331
SWIDTH 495 0
DWIDTH 12 0
BBX 15 18 0 -7
BITMAP
006EE004CEA00000
00EFD06FFFF00000
03FF94FFFFE00000
06FF6DFBFFC00000
09FF9F84FF900000
0AFFEE17FF500130
0BFFF709FF201CE0
0CFFF20CFE01BFC0
0BFFC01FFEAEFE30
09FF704FFFFFE400
02DD107FFFD92000
000000CFD0000000
000001FF80000000
000006FF20000000
2ED00DFB00000000
3FF38FF300000000
0DFFFF6000000000
03CFD50000000000
ENDCHAR
STARTCHAR Omacron
ENCODING 332
SWIDTH 816 0
DWIDTH 20 0
BBX 19 25 1 0
BITMAP
00000004888888300000
0000000FFFFFFF900000
0000000CFFFFFE500000
00000000000000000000
00000000000000000000
00000027BEFDB6100000
000008EFFFFFFFE40000
0001BFFFDA9BFFFF4000
000BFFF600004EFFE100
007FFF50000004FFF800
01EFF900000000CFFD00
07FFE1000000008FFF10
0DFFA0000000006FFF20
1FFF60000000006FFF20
4FFF30000000007FFF10
6FFF20000000008FFE00
7FFF1000000000BFFC00
6FFF2000000000EFF800
5FFF4000000005FFF200
2FFF800000000DFFB000
0CFFE10000009FFF2000
05FFFB100019FFF60000
009FFFEA9AEFFF700000
0007FFFFFFFFD4000000
000028CEFDA600000000
ENDCHAR
STARTCHAR omacron
ENCODING 333
SWIDTH 451 0
DWIDTH 11 0
BBX 14 16 0 0
BITMAP
00178888870000
006FFFFFFF2000
004FFFFFFC0000
00000000000000
00000000000000
0004BEFC400000
006FFFFFF40000
03FFFBEFFD0000
0BFF70DFFF4144
1FFE00AFFFFFFF
2FFD002DFFFFFC
2FFD0008FF9741
1FFF301DFC0000
0AFFE9DFF60000
02DFFFFF900000
0029EFC6000000
ENDCHAR
STARTCHAR Obreve
ENCODING 334
SWIDTH 816 0
DWIDTH 20 0
BBX 19 27 1 0
BITMAP
00000037200000650000
000000DFD1000AFF0000
000000AFFD99DFFB0000
0000002EFFFFFFD20000
000000018DEEC7100000
00000000000000000000
00000000000000000000
00000027BEFDB6100000
000008EFFFFFFFE40000
0001BFFFDA9BFFFF4000
000BFFF600004EFFE100
007FFF50000004FFF800
01EFF900000000CFFD00
07FFE1000000008FFF10
0DFFA0000000006FFF20
1FFF60000000006FFF20
4FFF30000000007FFF10
6FFF20000000008FFE00
7FFF1000000000BFFC00
6FFF2000000000EFF800
5FFF4000000005FFF200
2FFF800000000DFFB000
0CFFE10000009FFF2000
05FFFB100019FFF60000
009FFFEA9AEFFF700000
0007FFFFFFFFD4000000
000028CEFDA600000000
ENDCHAR
STARTCHAR obreve
ENCODING 335
SWIDTH 451 0
DWIDTH 11 0
BBX 14 19 0 0
BITMAP
00550000027100
03FF50000DF800
03FFC1008FF600
00DFFD9BFFE100
003EFFFFFE4000
00029DFD920000
00000000000000
00000000000000
0004BEFC400000
006FFFFFF40000
03FFFBEFFD0000
0BFF70DFFF4144
1FFE00AFFFFFFF
2FFD002DFFFFFC
2FFD0008FF9741
1FFF301DFC0000
0AFFE9DFF60000
02DFFFFF900000
0029EFC6000000
ENDCHAR
STARTCHAR Ohungarumlaut
ENCODING 336
SWIDTH 816 0
DWIDTH 20 0
BBX 19 28 1 0
BITMAP
00000000055003710000
000000004FF60EFB0000
000000009FF53FFA0000
00000000DFC08FF30000
00000002FF30CF800000
00000002E800BC100000
00000000000000000000
00000000000000000000
00000027BEFDB6100000
000008EFFFFFFFE40000
0001BFFFDA9BFFFF4000
000BFFF600004EFFE100
007FFF50000004FFF800
01EFF900000000CFFD00
07FFE1000000008FFF10
0DFFA0000000006FFF20
1FFF60000000006FFF20
4FFF30000000007FFF10
6FFF20000000008FFE00
7FFF1000000000BFFC00
6FFF2000000000EFF800
5FFF4000000005FFF200
2FFF800000000DFFB000
0CFFE10000009FFF2000
05FFFB100019FFF60000
009FFFEA9AEFFF700000
0007FFFFFFFFD4000000
000028CEFDA600000000
ENDCHAR
STARTCHAR ohungarumlaut
ENCODING 337
SWIDTH 451 0
DWIDTH 11 0
BBX 14 20 0 0
BITMAP
00000AE606EA00
00004FFC0DFF20
00008FF83FFD00
0000DFD18FF400
0003FF40DF9000
0008FA03FE1000
0007D103E50000
00000000000000
00000000000000
0004BEFC400000
006FFFFFF40000
03FFFBEFFD0000
0BFF70DFFF4144
1FFE00AFFFFFFF
2FFD002DFFFFFC
2FFD0008FF9741
1FFF301DFC0000
0AFFE9DFF60000
02DFFFFF900000
0029EFC6000000
ENDCHAR
STARTCHAR OE
ENCODING 338
SWIDTH 1124 0
DWIDTH 27 0
BBX 29 20 1 0
BITMAP
00000027BEFEC71001AEFFFFFFE500
000008EFFFFFFFE50BFFFFFFFFF600
0001BFFFEA9BFFFF8FFFA988886000
000BFFF700004EFFFFFC0000000000
007FFF60000004FFFFF90000000000
01EFF900000000CFFFF50000000000
07FFF2000000008FFFF20000000000
0DFFA0000000006FFFE00000000000
1FFF60000000006FFFB00000000000
4FFF30000000007FFFFFFFFFFA0000
6FFF20000000008FFFFFFFFFFB0000
7FFF1000000000BFFF988888820000
6FFF2000000000EFFE000000000000
5FFF4000000005FFFC000000000000
2FFF800000000DFFFD000000000000
0CFFE10000009FFFFF300000000120
05FFFB100019FFFFFFD30000038EE0
009FFFEA9AEFFF56FFFFC99ADFFFB0
0007FFFFFFFFC3007FFFFFFFFFF910
000028CEEDA50000028CEFEDA61000
ENDCHAR
STARTCHAR oe
ENCODING 339
SWIDTH 668 0
DWIDTH 16 0
BBX 20 11 0 0
BITMAP
0004BEEA104CED800000
006FFFFFD8FFFFF80000
03FFFACFFFFDAFFC0000
0BFF601EFFD10BFC0000
1FFE000AFF703EF80000
2FFD0009FF89FFC10040
2FFD000CFFFFD7001BF1
1FFF203FFFE40005DFE0
0AFFDAEFFFFD9ADFFF50
02EFFFFF6EFFFFFFD400
002AEEB3019DFEB60000
ENDCHAR
STARTCHAR Racute
ENCODING 340
SWIDTH 880 0
DWIDTH 21 0
BBX 24 28 1 0
BITMAP
000000000000000461000000
000000000000009FF9000000
0000000000001BFFF9000000
000000000002DFFF91000000
00000000002EFF9200000000
00000000004E920000000000
000000000000000000000000
000000000000000000000000
000000059CEFEC9300000000
000005DFFFFFFFFF90000000
0000AFFFDA9ACFFFF8000000
000AFFC4000004EFFF200000
007FFA104730006FFF500000
01EFC004FFC0003FFF600000
08FF4009FFC0004FFF400000
0EFC000CFF90009FFE000000
3FF8000EFF6005FFF6000000
6FF4002FFF439FFF80000000
8FF20BFFFFFFFFD500000000
AFF00FFFFFFFF70000000000
AFE005DFFDDFFF7000000000
9FF000CFF80BFFF300000000
8FF200FFF502FFFB00000020
4FF503FFF2008FFF400006F2
1EFC06FFF0001EFFD1006FF2
07FFBDFFC00007FFFE9BFF70
00AFFFFF600000AFFFFFF700
0006CED800000007CEEA3000
ENDCHAR
STARTCHAR racute
ENCODING 341
SWIDTH 455 0
DWIDTH 11 0
BBX 14 20 1 0
BITMAP
00000002DD2000
0000000BFF6000
0000002FFE2000
0000009FF50000
000002FF800000
000008FB000000
000009C1000000
00000000000000
00000000000000
06EE004CEA0000
0EFD06FFFF0000
3FF94FFFFE0000
6FF6DFBFFB0040
9FF9F92FFC19F3
AFFEE13FFFFFF2
BFFF701DFFFE40
CFFF2002897100
BFFC0000000000
9FF70000000000
2DD10000000000
ENDCHAR
STARTCHAR uni0156
ENCODING 342
SWIDTH 880 0
DWIDTH 21 0
BBX 24 26 1 -6
BITMAP
000000059CEFEC9300000000
000005DFFFFFFFFF90000000
0000AFFFDA9ACFFFF8000000
000AFFC4000004EFFF200000
007FFA104730006FFF500000
01EFC004FFC0003FFF600000
08FF4009FFC0004FFF400000
0EFC000CFF90009FFE000000
3FF8000EFF6005FFF6000000
6FF4002FFF439FFF80000000
8FF20BFFFFFFFFD500000000
AFF00FFFFFFFF70000000000
AFE005DFFDDFFF7000000000
9FF000CFF80BFFF300000000
8FF200FFF502FFFB00000020
4FF503FFF2008FFF400006F2
1EFC06FFF0001EFFD1006FF2
07FFBDFFC00007FFFE9BFF70
00AFFFFF600000AFFFFFF700
0006CED800000007CEEA3000
000000000000000000000000
0000000005EB000000000000
000000000BFF200000000000
000000000BFE000000000000
000000000CF9000000000000
0000000009E2000000000000
ENDCHAR
STARTCHAR uni0157
ENCODING 343
SWIDTH 455 0
DWIDTH 11 0
BBX 15 18 0 -7
BITMAP
006EE004CEA00000
00EFD06FFFF00000
03FF94FFFFE00000
06FF6DFBFFB00400
09FF9F92FFC19F30
0AFFEE13FFFFFF20
0BFFF701DFFFE400
0CFFF20028971000
0BFFC00000000000
09FF700000000000
02DD100000000000
0000000000000000
07E9000000000000
0DFE000000000000
0EFC000000000000
0FF7000000000000
1FF2000000000000
0DA0000000000000
ENDCHAR
STARTCHAR Rcaron
ENCODING 344
SWIDTH 880 0
DWIDTH 21 0
BBX 24 28 1 0
BITMAP
00000000AE4002DD10000000
00000000CFC00CFE10000000
000000006FF26FF500000000
000000000DF9EF9000000000
0000000006FFFC0000000000
0000000000AFB20000000000
000000000000000000000000
000000000000000000000000
000000059CEFEC9300000000
000005DFFFFFFFFF90000000
0000AFFFDA9ACFFFF8000000
000AFFC4000004EFFF200000
007FFA104730006FFF500000
01EFC004FFC0003FFF600000
08FF4009FFC0004FFF400000
0EFC000CFF90009FFE000000
3FF8000EFF6005FFF6000000
6FF4002FFF439FFF80000000
8FF20BFFFFFFFFD500000000
AFF00FFFFFFFF70000000000
AFE005DFFDDFFF7000000000
9FF000CFF80BFFF300000000
8FF200FFF502FFFB00000020
4FF503FFF2008FFF400006F2
1EFC06FFF0001EFFD1006FF2
07FFBDFFC00007FFFE9BFF70
00AFFFFF600000AFFFFFF700
0006CED800000007CEEA3000
ENDCHAR
STARTCHAR rcaron
ENCODING 345
SWIDTH 455 0
DWIDTH 11 0
BBX 14 21 1 0
BITMAP
0009E6003DD100
000EFB00BFE000
000BFD04FF7000
0007FF0BFD0000
0004FF5FF50000
0000FFDFB00000
0000BFFF300000
00004ED5000000
00000000000000
00000000000000
06EE004CEA0000
0EFD06FFFF0000
3FF94FFFFE0000
6FF6DFBFFB0040
9FF9F92FFC19F3
AFFEE13FFFFFF2
BFFF701DFFFE40
CFFF2002897100
BFFC0000000000
9FF70000000000
2DD10000000000
ENDCHAR
STARTCHAR Sacute
ENCODING 346
SWIDTH 693 0
DWIDTH 17 0
BBX 17 28 0 0
BITMAP
000000000000005600
0000000000000AFF80
000000000001CFFF80
00000000003DFFF800
0000000003EFF92000
0000000005E9200000
000000000000000000
000000000000000000
0000016ADEFEB71000
00004DFFFFFFFFE300
0005FFFFB99BFFFE10
000DFFA100002DFF70
005FFE10000008FF90
007FFD00000008FF80
006FFF30000008FF40
002FFFE40000017400
0008FFFFB500000000
00008FFFFFE8100000
000003BFFFFFE70000
000000028EFFFFA000
01630000006EFFF500
0CFE00000002EFFA00
2FFF000000009FFB00
2FFF00000000BFF900
1EFF70000007FFF400
08FFFEA99BEFFFA000
009FFFFFFFFFF80000
00038CEFFEB7200000
ENDCHAR
STARTCHAR sacute
ENCODING 347
SWIDTH 427 0
DWIDTH 10 0
BBX 15 21 -1 -1
BITMAP
000000000AE50000
000000006FFB0000
00000000CFF60000
00000004FFA00000
0000000BFC100000
0000003FE2000000
0000004E40000000
0000000000000000
0000000000000000
000003DF60000000
00000CFF30000000
00004FFD00000000
0000BFFC00000000
0003FFFF50000000
000BFFFFE1000000
007FF5DFFA001910
04FF905FFF20AF40
1EFB000EFF5AFD10
2FB17EEFFFFFD200
0200DFFFFEC81000
00004CEC40000000
ENDCHAR
STARTCHAR Scircumflex
ENCODING 348
SWIDTH 693 0
DWIDTH 17 0
BBX 17 29 0 0
BITMAP
000000000167200000
000000001DFFD10000
00000000AFEFF60000
00000005FF7CFC0000
0000001EFD18FF3000
0000009FF503FF7000
0000007E9000BE4000
000000000000000000
000000000000000000
0000016ADEFEB71000
00004DFFFFFFFFE300
0005FFFFB99BFFFE10
000DFFA100002DFF70
005FFE10000008FF90
007FFD00000008FF80
006FFF30000008FF40
002FFFE40000017400
0008FFFFB500000000
00008FFFFFE8100000
000003BFFFFFE70000
000000028EFFFFA000
01630000006EFFF500
0CFE00000002EFFA00
2FFF000000009FFB00
2FFF00000000BFF900
1EFF70000007FFF400
08FFFEA99BEFFFA000
009FFFFFFFFFF80000
00038CEFFEB7200000
ENDCHAR
STARTCHAR scircumflex
ENCODING 349
SWIDTH 427 0
DWIDTH 10 0
BBX 15 22 -1 -1
BITMAP
0000000472000000
0000007FFE100000
000002FFFF500000
00000BFBBF900000
00005FF49FC00000
0001DFB07FF10000
0008FF305FF50000
0008E8001DD20000
0000000000000000
0000000000000000
000003DF60000000
00000CFF30000000
00004FFD00000000
0000BFFC00000000
0003FFFF50000000
000BFFFFE1000000
007FF5DFFA001910
04FF905FFF20AF40
1EFB000EFF5AFD10
2FB17EEFFFFFD200
0200DFFFFEC81000
00004CEC40000000
ENDCHAR
STARTCHAR Scedilla
ENCODING 350
SWIDTH 693 0
DWIDTH 17 0
BBX 17 26 0 -6
BITMAP
0000005ADEFDB61000
00004DFFFFFFFFD300
0004FFFFB99BFFFE10
000DFFA100002DFF60
004FFE10000008FF90
006FFD00000008FF80
006FFF20000009FF50
003FFFD2000002A800
000BFFFF9300000000
0001CFFFFFC5000000
000018EFFFFFD50000
00000017DFFFFF7000
0000000005CFFFF300
08FB00000007FFF900
1FFF10000000BFFB00
2FFF000000009FFA00
1FFF20000001EFF600
0CFFD621126DFFD000
02DFFFFFFFFFFD2000
0018DFFFFFFD710000
00000DFFFF30000000
00000004FF70000000
00000001EF80000000
0001889DFF50000000
0006FFFFFB00000000
0002CFFC7000000000
ENDCHAR
STARTCHAR scedilla
ENCODING 351
SWIDTH 427 0
DWIDTH 10 0
BBX 15 17 -1 -6
BITMAP
000003DF60000000
00000CFF30000000
00004FFC00000000
0000BFFE10000000
0004FFFFA0000000
001DF9FFF7000400
00AFD07FFF108F40
07FF300EFF59FF30
2FF56EEFFFFFFA00
1B50DFFFFFFFB100
0001EFFFFEC70000
0002EFFFB0000000
0000017FF2000000
0000002FF3000000
000334BFE1000000
008FFFFF60000000
004DFEB400000000
ENDCHAR
STARTCHAR Scaron
ENCODING 352
SWIDTH 693 0
DWIDTH 17 0
BBX 17 28 0 0
BITMAP
0000000BE4003DD000
0000000DFA00DFD000
00000007FF17FF4000
00000001EF9FF80000
000000007FFFB00000
000000000AFB100000
000000000000000000
000000000000000000
0000016ADEFEB71000
00004DFFFFFFFFE300
0005FFFFB99BFFFE10
000DFFA100002DFF70
005FFE10000008FF90
007FFD00000008FF80
006FFF30000008FF40
002FFFE40000017400
0008FFFFB500000000
00008FFFFFE8100000
000003BFFFFFE70000
000000028EFFFFA000
01630000006EFFF500
0CFE00000002EFFA00
2FFF000000009FFB00
2FFF00000000BFF900
1EFF70000007FFF400
08FFFEA99BEFFFA000
009FFFFFFFFFF80000
00038CEFFEB7200000
ENDCHAR
STARTCHAR scaron
ENCODING 353
SWIDTH 427 0
DWIDTH 10 0
BBX 15 22 -1 -1
BITMAP
00005EA000BE4000
00009FF106FF4000
00006FF30DFC0000
00002FF56FF30000
00000EF7DFA00000
00000AFDFE200000
000006FFF7000000
000001CE90000000
0000000000000000
0000000000000000
000003DF60000000
00000CFF30000000
00004FFD00000000
0000BFFC00000000
0003FFFF50000000
000BFFFFE1000000
007FF5DFFA001910
04FF905FFF20AF40
1EFB000EFF5AFD10
2FB17EEFFFFFD200
0200DFFFFEC81000
00004CEC40000000
ENDCHAR
STARTCHAR uni0162
ENCODING 354
SWIDTH 697 0
DWIDTH 17 0
BBX 22 26 0 -6
BITMAP
0000047ACDEFFFFFFFEDB3
0018EFFFFFFFFFFFFFFFF9
02DFFFCA9AFFFA8899AAA3
0BFF920005FFF100000000
1FFD000008FFE000000000
2FFB00000BFFB000000000
1FFE10000EFF8000000000
09FE20002FFF5000000000
005200005FFF3000000000
000000007FFF0000000000
00000000AFFC0000000000
00000000CFF90000000000
00000000EFF70000000000
00000002FFF50000000000
00000004FFF30000000000
00000007FFF10000000000
00000009FFE00000000000
0000000BFFC00000000000
0000000CFFB00000000000
000000BFFF800000000000
000000BDFFF30000000000
000000002EF80000000000
000000005FF70000000000
00004FFFFFF20000000000
00005FFFFE500000000000
0000068861000000000000
ENDCHAR
STARTCHAR uni0163
ENCODING 355
SWIDTH 393 0
DWIDTH 9 0
BBX 13 28 0 -7
BITMAP
00000016720000
000002DFFD1000
00000CFFFF5000
00007FE3EF7000
0001EF90DF5000
0006FF30FF3000
000BFE05FD0000
001FFB0CF60000
003FF88FB00000
006FFCFC100000
AFFFFFFFFF9000
EFFFFFFFFF8000
58EFF988850000
00DFF100000000
00DFF100000000
00DFF200000000
00CFF300001C50
009FF70001CF70
004FFF735DFE20
000CFFFFFFE400
0006FFFFFC3000
000FFFFE300000
000248FF500000
000000DF700000
000016FF500000
03FFFFFE100000
05FFFFD3000000
00688510000000
ENDCHAR
STARTCHAR Tcaron
ENCODING 356
SWIDTH 697 0
DWIDTH 17 0
BBX 22 28 0 0
BITMAP
000000001DD2004EB00000
000000001FF801EFB00000
0000000009FE09FE200000
0000000002FF9FF6000000
00000000009FFFA0000000
00000000001CEA10000000
0000000000000000000000
0000000000000000000000
0000047ACDEFFFFFFFEDB3
0018EFFFFFFFFFFFFFFFF9
02DFFFCA9AFFFA8899AAA3
0BFF920005FFF100000000
1FFD000008FFE000000000
2FFB00000BFFB000000000
0FFE10000EFF8000000000
08FE20002FFF5000000000
004200005FFF3000000000
000000007FFF0000000000
00000000AFFC0000000000
00000000CFF90000000000
00000000EFF70000000000
00000002FFF50000000000
00000004FFF30000000000
00000007FFF10000000000
00000009FFE00000000000
0000000BFFC00000000000
0000000CFFA00000000000
00000006ED400000000000
ENDCHAR
STARTCHAR tcaron
ENCODING 357
SWIDTH 343 0
DWIDTH 8 0
BBX 12 23 0 0
BITMAP
000000001650
000000009FF2
00000000BFF1
00000000CFB0
00000000DF60
0000AFC0AD10
0004FFE00000
0008FFA00000
000CFF600000
001FFF200000
004FFE000000
7FFFFFFFF700
AFFFFFFFF500
26EFF8663000
00FFF1000000
02FFD0000000
04FFB0000000
05FFB0000051
05FFB00008F4
03FFE1008FF2
00EFFD9CFF80
007FFFFFF700
0006CFEA3000
ENDCHAR
STARTCHAR Tbar
ENCODING 358
SWIDTH 697 0
DWIDTH 17 0
BBX 22 20 0 0
BITMAP
0000047ACDEFFFFFFFEDB3
0018EFFFFFFFFFFFFFFFF9
02DFFFDA9AFFFA8899AAA3
0AFFA20005FFF100000000
1FFD000008FFE000000000
2FFB00000BFFB000000000
1FFE10000EFF8000000000
0AFF20002FFF5000000000
017400004FFF3000000000
00003DFFFFFFFFFA000000
00009FFFFFFFFFFD000000
00002888EFFC8882000000
00000000EFF70000000000
00000001FFF50000000000
00000004FFF30000000000
00000006FFF10000000000
00000009FFE00000000000
0000000BFFC00000000000
0000000CFFB00000000000
00000006ED400000000000
ENDCHAR
STARTCHAR tbar
ENCODING 359
SWIDTH 343 0
DWIDTH 8 0
BBX 13 18 -1 0
BITMAP
00000AFC000000
00004FFE000000
00008FFA000000
0000CFF6000000
0001FFF2000000
0004FFE0000000
07FFFFFFFF7000
0AFFFFFFFF5000
026EFF86630000
000FFF10000000
0DFFFFFFF80000
2FFFFFFFF70000
07BFFD88500400
005FFB00007F40
004FFE1007FF30
001EFFD9CFF800
0008FFFFFF8000
00006CFEA30000
ENDCHAR
STARTCHAR Utilde
ENCODING 360
SWIDTH 890 0
DWIDTH 21 0
BBX 25 27 0 0
BITMAP
00000000005720002620000000
000000000BFFF811DF80000000
000000008FFBFFEBFF40000000
00000000EF806EFFFA00000000
00000000460002BEA100000000
00000000000000000000000000
00000000000000000000000000
0004ADEC400000000CE8000000
019FFFFFE10000004FFE000000
0BFFCAFFF60000007FFF000000
8FE500EFF70000009FFD000000
EF4000FFF6000000BFFB000000
960001FFF5000000EFF9000000
000004FFF2000002FFF6000000
000008FFE0000006FFF3000000
00000BFFB000000AFFF1000000
00000EFF8000000EFFD0000000
00003FFF4000005FFFB0000000
00006FFF100000BFFF90000000
00009FFC000002FFFF70000000
0000CFF900000AEEFF50000000
0000FFF600004F9FFF30000410
0001FFF60003EF3FFF30007F60
0001FFFB116EF82FFFA129FF40
0000DFFFFFFFC00EFFFFFFFA00
00006FFFFFFB1007FFFFFF9000
000005CFEC6000005CEEB40000
ENDCHAR
STARTCHAR utilde
ENCODING 361
SWIDTH 462 0
DWIDTH 11 0
BBX 14 18 1 0
BITMAP
00047200017200
008FFF910CF800
04FFAFFEAFF400
0BF905EFFFA000
0360002AEA1000
00000000000000
00000000000000
05EE100AF60000
0DFF104FF60000
3FFC008FF30000
6FF800DFF00000
9FF503FFC00000
BFF309FF900000
CFF12FFF6006E1
CFF3CFFF506FF1
BFFFFCFFCBFF80
6FFFD3FFFFF700
09EB208EEA3000
ENDCHAR
STARTCHAR Umacron
ENCODING 362
SWIDTH 890 0
DWIDTH 21 0
BBX 25 25 0 0
BITMAP
00000000038888884000000000
000000000BFFFFFFD000000000
0000000009FFFFFF8000000000
00000000000000000000000000
00000000000000000000000000
0004ADEC400000000CE8000000
019FFFFFE10000004FFE000000
0BFFCAFFF60000007FFF000000
8FE500EFF70000009FFD000000
EF4000FFF6000000BFFB000000
960001FFF5000000EFF9000000
000004FFF2000002FFF6000000
000008FFE0000006FFF3000000
00000BFFB000000AFFF1000000
00000EFF8000000EFFD0000000
00003FFF4000005FFFB0000000
00006FFF100000BFFF90000000
00009FFC000002FFFF70000000
0000CFF900000AEEFF50000000
0000FFF600004F9FFF30000410
0001FFF60003EF3FFF30007F60
0001FFFB116EF82FFFA129FF40
0000DFFFFFFFC00EFFFFFFFA00
00006FFFFFFB1007FFFFFF9000
000005CFEC6000005CEEB40000
ENDCHAR
STARTCHAR umacron
ENCODING 363
SWIDTH 462 0
DWIDTH 11 0
BBX 14 16 1 0
BITMAP
00288888850000
00AFFFFFFE0000
008FFFFFF90000
00000000000000
00000000000000
05EE100AF60000
0DFF104FF60000
3FFC008FF30000
6FF800DFF00000
9FF503FFC00000
BFF309FF900000
CFF12FFF6006E1
CFF3CFFF506FF1
BFFFFCFFCBFF80
6FFFD3FFFFF700
09EB208EEA3000
ENDCHAR
STARTCHAR Ubreve
ENCODING 364
SWIDTH 890 0
DWIDTH 21 0
BBX 25 27 0 0
BITMAP
00000000174000004600000000
000000009FF30006FF40000000
000000007FFEA9CFFE10000000
000000001CFFFFFFE400000000
00000000007CEED82000000000
00000000000000000000000000
00000000000000000000000000
0004ADEC400000000CE8000000
019FFFFFE10000004FFE000000
0BFFCAFFF60000007FFF000000
8FE500EFF70000009FFD000000
EF4000FFF6000000BFFB000000
960001FFF5000000EFF9000000
000004FFF2000002FFF6000000
000008FFE0000006FFF3000000
00000BFFB000000AFFF1000000
00000EFF8000000EFFD0000000
00003FFF4000005FFFB0000000
00006FFF100000BFFF90000000
00009FFC000002FFFF70000000
0000CFF900000AEEFF50000000
0000FFF600004F9FFF30000410
0001FFF60003EF3FFF30007F60
0001FFFB116EF82FFFA129FF40
0000DFFFFFFFC00EFFFFFFFA00
00006FFFFFFB1007FFFFFF9000
000005CFEC6000005CEEB40000
ENDCHAR
STARTCHAR ubreve
ENCODING 365
SWIDTH 462 0
DWIDTH 11 0
BBX 14 19 1 0
BITMAP
00640000036000
07FF20002EF400
07FFA000BFF300
02FFFC9DFFB000
006FFFFFFD2000
0004BEED710000
00000000000000
00000000000000
05EE100AF60000
0DFF104FF60000
3FFC008FF30000
6FF800DFF00000
9FF503FFC00000
BFF309FF900000
CFF12FFF6006E1
CFF3CFFF506FF1
BFFFFCFFCBFF80
6FFFD3FFFFF700
09EB208EEA3000
ENDCHAR
STARTCHAR Uring
ENCODING 366
SWIDTH 890 0
DWIDTH 21 0
BBX 25 29 0 0
BITMAP
000000000004CEC40000000000
00000000003FFFFF2000000000
0000000000AFD9EF8000000000
0000000000CF508F9000000000
0000000000BFD9EF7000000000
00000000005FFFFE1000000000
000000000006DEB20000000000
00000000000000000000000000
00000000000000000000000000
0004ADEC400000000CE8000000
019FFFFFE10000004FFE000000
0BFFCAFFF60000007FFF000000
8FE500EFF70000009FFD000000
EF4000FFF6000000BFFB000000
960001FFF5000000EFF9000000
000004FFF2000002FFF6000000
000008FFE0000006FFF3000000
00000BFFB000000AFFF1000000
00000EFF8000000EFFD0000000
00003FFF4000005FFFB0000000
00006FFF100000BFFF90000000
00009FFC000002FFFF70000000
0000CFF900000AEEFF50000000
0000FFF600004F9FFF30000410
0001FFF60003EF3FFF30007F60
0001FFFB116EF82FFFA129FF40
0000DFFFFFFFC00EFFFFFFFA00
00006FFFFFFB1007FFFFFF9000
000005CFEC6000005CEEB40000
ENDCHAR
STARTCHAR uring
ENCODING 367
SWIDTH 462 0
DWIDTH 11 0
BBX 14 20 1 0
BITMAP
00003BEC500000
0002EFFFF30000
0008FE9EF90000
000BF707FB0000
0009FE9EF80000
0004FFFFE20000
00005DEB300000
00000000000000
00000000000000
05EE100AF60000
0DFF104FF60000
3FFC008FF30000
6FF800DFF00000
9FF503FFC00000
BFF309FF900000
CFF12FFF6006E1
CFF3CFFF506FF1
BFFFFCFFCBFF80
6FFFD3FFFFF700
09EB208EEA3000
ENDCHAR
STARTCHAR Uhungarumlaut
ENCODING 368
SWIDTH 890 0
DWIDTH 21 0
BBX 25 28 0 0
BITMAP
00000000000361016300000000
00000000001EF90AFE00000000
00000000005FF90EFE00000000
0000000000AFE24FF600000000
0000000000EF709FC000000000
0000000000CB008D2000000000
00000000000000000000000000
00000000000000000000000000
0004ADEC400000000CE8000000
019FFFFFE10000004FFE000000
0BFFCAFFF60000007FFF000000
8FE500EFF70000009FFD000000
EF4000FFF6000000BFFB000000
960001FFF5000000EFF9000000
000004FFF2000002FFF6000000
000008FFE0000006FFF3000000
00000BFFB000000AFFF1000000
00000EFF8000000EFFD0000000
00003FFF4000005FFFB0000000
00006FFF100000BFFF90000000
00009FFC000002FFFF70000000
0000CFF900000AEEFF50000000
0000FFF600004F9FFF30000410
0001FFF60003EF3FFF30007F60
0001FFFB116EF82FFFA129FF40
0000DFFFFFFFC00EFFFFFFFA00
00006FFFFFFB1007FFFFFF9000
000005CFEC6000005CEEB40000
ENDCHAR
STARTCHAR uhungarumlaut
ENCODING 369
SWIDTH 462 0
DWIDTH 11 0
BBX 14 20 1 0
BITMAP
00001CD309E700
00007FF92FFE00
0000CFF47FF900
0002FFA0CFE100
0007FE11FF6000
000BF606FB0000
000BB006D20000
00000000000000
00000000000000
05EE100AF60000
0DFF104FF60000
3FFC008FF30000
6FF800DFF00000
9FF503FFC00000
BFF309FF900000
CFF12FFF6006E1
CFF3CFFF506FF1
BFFFFCFFCBFF80
6FFFD3FFFFF700
09EB208EEA3000
ENDCHAR
STARTCHAR Uogonek
ENCODING 370
SWIDTH 890 0
DWIDTH 21 0
BBX 25 26 0 -6
BITMAP
0004ADEC300000000BE7000000
009FFFFFE10000004FFE000000
0AFFCAFFF50000007FFF000000
7FF500EFF70000009FFD000000
EF5000FFF6000000BFFB000000
A70001FFF5000000EFF9000000
000004FFF3000002FFF6000000
000008FFF0000005FFF4000000
00000BFFC0000009FFF1000000
00000EFF8000000DFFE0000000
00003FFF5000003FFFC0000000
00006FFF2000009FFF90000000
00009FFD000001EFFF70000000
0000CFFA000007FEFF50000000
0000FFF700002EAEFF40000000
0001FFF50000BF4FFF30002E50
0001FFF8001BF92FFF6003EF60
0000DFFFAAEFC10EFFF9BFFD10
00006FFFFFFC2008FFFFFFC200
000005CFEC6000006DFFE81000
00000000000000000AFE300000
00000000000000002FF6000000
00000000000000005FF4000000
00000000000000003FFB456000
00000000000000000CFFFFF100
0000000000000000019DFD7000
ENDCHAR
STARTCHAR uogonek
ENCODING 371
SWIDTH 462 0
DWIDTH 11 0
BBX 14 17 1 -6
BITMAP
05EE100AF60000
0DFF104FF60000
3FFC008FF40000
6FF800DFF10000
9FF503FFC00000
BFF309FF900000
CFF12FFF6005E1
CFF3CFFF404FF2
BFFFFCFFA7FFA0
6FFFD4FFFFF900
09EB20CFFE6000
000006FFA20000
00000EFA000000
00002FF4000000
00001FFB345000
00000AFFFFF100
0000018DFD7000
ENDCHAR
STARTCHAR Wcircumflex
ENCODING 372
SWIDTH 1217 0
DWIDTH 29 0
BBX 31 29 2 0
BITMAP
00000000000000375000000000000000
00000000000005FFF800000000000000
0000000000002EFEFE10000000000000
000000000000BFE5FF60000000000000
000000000007FF80EFB0000000000000
00000000001EFD10AFF1000000000000
00000000001DD4003EB0000000000000
00000000000000000000000000000000
00000000000000000000000000000000
00BEA000000008ED1000007DFD600000
05FFF00000002FFF40000AFFFFF40000
08FFF00000006FFF20005FFCCFFB0000
0AFFD00000009FFF0000AFD02FFD0000
0BFFB0000000CFFD0000CF901FFD0000
0DFF90000000FFFB0000DF902FFC0000
0EFF70000004FFFA0000BFB05FF90000
0FFF60000008FFFA00008FF4AFF50000
1FFF5000000CFFF900002EFEEFE10000
1FFF5000002FFFF8000005FFFFEA9830
1FFF4000006FFFF80000003FFFFFFF90
1FFF500000CFFFF90000005FFECEFE40
0EFF500003FFAFF9000000DFF5000000
0DFF70000AFE4FFA000006FFC0000000
0AFF90003FF81FFD00002EFF30000000
07FFE000CFE10DFF2000CFF700000000
02FFF71AFF7009FFB12BFFB000000000
00BFFFFFFB0003FFFFFFFB1000000000
003EFFFFC10000AFFFFFA00000000000
0004CED700000019EEB4000000000000
ENDCHAR
STARTCHAR wcircumflex
ENCODING 373
SWIDTH 700 0
DWIDTH 17 0
BBX 19 21 1 0
BITMAP
00000000571000000000
0000000AFFB000000000
0000005FFFF100000000
000001EF8FF500000000
000009FE1DF900000000
00003FF70BFD00000000
0000BFE109FF10000000
0000BE5004EC00000000
00000000000000000000
00000000000000000000
7EC0003DD0007ED20000
CFF100BFF205FFF80000
CFF102FFF20AFFF70000
BFF208FFF20BFFF32550
BFF30EFFF308FFFFFFF0
AFF46FFFF41EFFFFFFB0
9FF5DFBFF59FF7676300
8FFBFE5FFAFFB0000000
6FFFF92FFFFE20000000
2FFFE10EFFF500000000
07ED4005ED5000000000
ENDCHAR
STARTCHAR Ycircumflex
ENCODING 374
SWIDTH 851 0
DWIDTH 20 0
BBX 23 37 0 -8
BITMAP
000000000000167100000000
000000000002DFFC00000000
00000000000BFEFF50000000
00000000007FF6DFB0000000
0000000002FFC09FF2000000
000000000AFF405FF6000000
0000000009E8001CD3000000
000000000000000000000000
000000000000000000000000
0004ADEC400000000BEA0000
019FFFFFE10000004FFF1000
0BFFBAFFF60000007FFF0000
8FE500EFF70000009FFD0000
EF4000FFF6000000CFFB0000
950002FFF5000000EFF90000
000005FFF2000003FFF60000
000008FFE0000007FFF40000
00000BFFB000000CFFF20000
00000EFF8000003FFFE00000
00003FFF400000AFFFC00000
00005FFF100004FEFFA00000
00006FFF10001DFAFF800000
00005FFF4002CF8BFF500000
00002FFFE9AEFC0DFF314770
000008FFFFFFB10FFFDFFFF0
0000006CFEB5039FFFFFFF90
000000000006DFFFFEA74100
0000000005DFFECFF9000000
000000009FFD50AFF6000000
0000000BFF8000DFF3000000
0000007FF70002FFE0000000
000000EFD00007FF90000000
000002FFB0002EFF20000000
000003FFE414DFF800000000
000000DFFFFFFFB000000000
0000004EFFFFF80000000000
000000015886100000000000
ENDCHAR
STARTCHAR ycircumflex
ENCODING 375
SWIDTH 479 0
DWIDTH 12 0
BBX 16 32 -1 -11
BITMAP
0000000067100000
0000000BFFA00000
0000006FFFF10000
000001EF8FF40000
000009FE1EF80000
00003FF70BFC0000
0000CFD109FF0000
0000CD4004EB0000
0000000000000000
0000000000000000
0005EE100AF60000
000DFF104FF70000
003FFC008FF40000
006FF800DFF20000
009FF603FFE00000
00BFF309FFC00000
00CFF12FFF9008D0
00CFF3CFFF73CFF1
00BFFFFDFFBFFE50
006FFFD8FFFFB200
0009EB39FFE60000
0000006FFD200000
000009FFF9000000
0000BFEFF6000000
000BFA8FF2000000
009FB0BFD0000000
04FE11FF80000000
0BF707FF30000000
0FF51EFB00000000
1FFCCFF300000000
0CFFFF8000000000
02BED60000000000
ENDCHAR
STARTCHAR Ydieresis
ENCODING 376
SWIDTH 851 0
DWIDTH 20 0
BBX 23 34 0 -8
BITMAP
0000000003DE503DE5000000
000000000AFFC0AFFC000000
000000000AFFB0BFFB000000
0000000004ED404ED4000000
000000000000000000000000
000000000000000000000000
0004ADEC400000000BEA0000
019FFFFFE10000004FFF1000
0BFFBAFFF60000007FFF0000
8FE500EFF70000009FFD0000
EF4000FFF6000000CFFB0000
950002FFF5000000EFF90000
000005FFF2000003FFF60000
000008FFE0000007FFF40000
00000BFFB000000CFFF20000
00000EFF8000003FFFE00000
00003FFF400000AFFFC00000
00005FFF100004FEFFA00000
00006FFF10001DFAFF800000
00005FFF4002CF8BFF500000
00002FFFE9AEFC0DFF314770
000008FFFFFFB10FFFDFFFF0
0000006CFEB5039FFFFFFF90
000000000006DFFFFEA74100
0000000005DFFECFF9000000
000000009FFD50AFF6000000
0000000BFF8000DFF3000000
0000007FF70002FFE0000000
000000EFD00007FF90000000
000002FFB0002EFF20000000
000003FFE414DFF800000000
000000DFFFFFFFB000000000
0000004EFFFFF80000000000
000000015886100000000000
ENDCHAR
STARTCHAR Zacute
ENCODING 377
SWIDTH 721 0
DWIDTH 17 0
BBX 21 28 0 0
BITMAP
0000000000000017400000
00000000000003DFF20000
0000000000005EFFF20000
000000000007FFFD400000
00000000009FFD60000000
0000000000BD6000000000
0000000000000000000000
0000000000000000000000
000016ADEFFEDCA8520000
0008EFFFFFFFFFFFFF6000
00AFFFDA999ABDFFFF9000
03FFE400000009FFF71000
07FF600000004FFF900000
08FF50000000DFFD100000
06FFA0000008FFF5000000
01CFA000003FFFA0000000
0002000000CFFE10000000
0000000008FFF500000000
000000004FFFA000000000
00000002EFFE1000000000
0000000CFFF50000000000
0000008FFF900000000000
000005FFFD100000000610
03AEFFFFF4000000006F50
3FFFFFFFFFB6100006FF30
9FFFFFFFFFFFFC9ADFF800
7FFFFFB6BFFFFFFFFF7000
08EFC6000159CEFDA30000
ENDCHAR
STARTCHAR zacute
ENCODING 378
SWIDTH 445 0
DWIDTH 11 0
BBX 13 20 1 0
BITMAP
00000004EB1000
0000000DFF4000
0000005FFD1000
000000CFF30000
000003FF600000
00000AF9000000
00000BB0000000
00000000000000
00000000000000
5FFFFFFFFE3000
8FFFFFFFFF5000
28889EFFFB1000
0007EFFB400000
01CFFC40000000
0CFF9000000340
5FFE0000004EB0
7FFE100018FF90
4FFFEA9BFFFC10
09FFFFFFFF9100
004ADFEC830000
ENDCHAR
STARTCHAR Zdotaccent
ENCODING 379
SWIDTH 721 0
DWIDTH 17 0
BBX 21 26 0 0
BITMAP
0000000003CEA000000000
000000000DFFF500000000
000000000EFFF400000000
0000000006EE8000000000
0000000000000000000000
0000000000000000000000
000016ADEFFEDCA8520000
0008EFFFFFFFFFFFFF6000
00AFFFDA999ABDFFFF9000
03FFE400000009FFF71000
07FF600000004FFF900000
08FF50000000DFFD100000
06FFA0000008FFF5000000
01CFA000003FFFA0000000
0002000000CFFE10000000
0000000008FFF500000000
000000004FFFA000000000
00000002EFFE1000000000
0000000CFFF50000000000
0000008FFF900000000000
000005FFFD100000000610
03AEFFFFF4000000006F50
3FFFFFFFFFB6100006FF30
9FFFFFFFFFFFFC9ADFF800
7FFFFFB6BFFFFFFFFF7000
08EFC6000159CEFDA30000
ENDCHAR
STARTCHAR zdotaccent
ENCODING 380
SWIDTH 445 0
DWIDTH 11 0
BBX 13 17 1 0
BITMAP
00004DE9000000
0000EFFF300000
0000FFFF200000
00007EE6000000
00000000000000
00000000000000
5FFFFFFFFE3000
8FFFFFFFFF5000
28889EFFFB1000
0007EFFB400000
01CFFC40000000
0CFF9000000340
5FFE0000004EB0
7FFE100018FF90
4FFFEA9BFFFC10
09FFFFFFFF9100
004ADFEC830000
ENDCHAR
STARTCHAR Zcaron
ENCODING 381
SWIDTH 721 0
DWIDTH 17 0
BBX 21 28 0 0
BITMAP
00000003EB0008E7000000
00000004FF404FF7000000
00000000DFA1DFC0000000
000000006FF9FE20000000
000000000DFFF600000000
0000000003DE7000000000
0000000000000000000000
0000000000000000000000
000016ADEFFEDCA8520000
0008EFFFFFFFFFFFFF6000
00AFFFDA999ABDFFFF9000
03FFE400000009FFF71000
07FF600000004FFF900000
08FF50000000DFFD100000
06FFA0000008FFF5000000
01CFA000003FFFA0000000
0002000000CFFE10000000
0000000008FFF500000000
000000004FFFA000000000
00000002EFFE1000000000
0000000CFFF50000000000
0000008FFF900000000000
000005FFFD100000000610
03AEFFFFF4000000006F50
3FFFFFFFFFB6100006FF30
9FFFFFFFFFFFFC9ADFF800
7FFFFFB6BFFFFFFFFF7000
08EFC6000159CEFDA30000
ENDCHAR
STARTCHAR zcaron
ENCODING 382
SWIDTH 445 0
DWIDTH 11 0
BBX 13 21 1 0
BITMAP
000BE4004EB000
001FF900DFC000
000DFB06FF5000
0009FD0DFB0000
0006FE5FF30000
0002FFDF900000
0000DFFE100000
00005ED4000000
00000000000000
00000000000000
5FFFFFFFFE3000
8FFFFFFFFF5000
28889EFFFB1000
0007EFFB400000
01CFFC40000000
0CFF9000000340
5FFE0000004EB0
7FFE100018FF90
4FFFEA9BFFFC10
09FFFFFFFF9100
004ADFEC830000
ENDCHAR
STARTCHAR uni018F
ENCODING 399
SWIDTH 792 0
DWIDTH 19 0
BBX 18 20 1 0
BITMAP
0000038CEFEC820000
0002BFFFFFFFFF8000
002EFFFCA9BFFFF900
00AFFA200002CFFF50
00AE500000001DFFD0
00220000000007FFF3
00000000000002FFF6
00000000000000FFF8
00000000000000FFF8
04888888888888FFF7
3FFFFFFFFFFFFFFFF6
8FFFFFFFFFFFFFFFF3
8FFF0000000008FFE0
7FFF100000000DFFA0
4FFF400000006FFF30
0EFFA0000002EFFA00
08FFF800003DFFD100
00CFFFD99CFFFD2000
001AFFFFFFFFA10000
00004ADEED93000000
ENDCHAR
STARTCHAR florin
ENCODING 402
SWIDTH 478 0
DWIDTH 11 0
BBX 15 25 -2 -7
BITMAP
0000000005BEFE60
00000000AFFFFFC0
00000005FFFC9830
0000000BFF900000
0000000EFF300000
0000001FFF100000
0000003FFE000000
000588AFFE888600
000FFFFFFFFFFC00
000DFFFFFFFFD400
000000AFF7000000
000000CFF5000000
000000EFF3000000
000001FFF1000000
000003FFE0000000
000005FFC0000000
000007FFA0000000
000009FF80000000
00000BFF60000000
00000CFF40000000
00000EFF30000000
00005FFE00000000
179BFFF900000000
8FFFFFC100000000
4DFEC70000000000
ENDCHAR
STARTCHAR Ohorn
ENCODING 416
SWIDTH 816 0
DWIDTH 20 0
BBX 20 24 1 0
BITMAP
00000000000000000371
00000000000000001EF8
00000000000000006FF9
0000000000000004EFF5
00000027BEFFFFFFFFC0
000008EFFFFFFFFFFD20
0001BFFFDA9BFFFFB100
000BFFF600004EFFF200
007FFF50000004FFF800
01EFF900000000CFFD00
07FFE1000000008FFF10
0DFFA0000000006FFF20
1FFF60000000006FFF20
4FFF30000000007FFF10
6FFF20000000008FFE00
7FFF1000000000BFFB00
6FFF2000000000EFF700
5FFF4000000005FFF200
2FFF800000000DFFA000
0CFFE10000009FFE2000
05FFFB100019FFF60000
009FFFEA9AEFFF700000
0007FFFFFFFFD4000000
000028CEFDA500000000
ENDCHAR
STARTCHAR ohorn
ENCODING 417
SWIDTH 451 0
DWIDTH 11 0
BBX 14 14 0 0
BITMAP
0000000001DB00
0000000007FF00
000000002DFC00
0004BEFFFFF500
006FFFFFFF7000
03FFFBEFFD0000
0BFF70DFFF4144
1FFE00AFFFFFFF
2FFD002DFFFFFC
2FFD0008FF9741
1FFF301DFC0000
0AFFE9DFF60000
02DFFFFF900000
0029EFC6000000
ENDCHAR
STARTCHAR Uhorn
ENCODING 431
SWIDTH 890 0
DWIDTH 21 0
BBX 25 24 0 0
BITMAP
00000000000000000000037200
000000000000000000000DFB00
000000000000000000003FFB00
00000000000000000003CFF700
0004ADEC400000000CFFFFE100
019FFFFFE10000004FFFFE3000
0BFFCAFFF60000007FFF710000
8FE500EFF70000009FFD000000
EF4000FFF6000000BFFB000000
960001FFF5000000EFF8000000
000004FFF2000002FFF6000000
000008FFE0000006FFF3000000
00000BFFB000000AFFF1000000
00000EFF8000000EFFD0000000
00003FFF4000005FFFB0000000
00006FFF100000BFFF90000000
00009FFC000002FFFF70000000
0000CFF900000AEEFF50000000
0000FFF600004F9FFF30000410
0001FFF60003EF3FFF30007F60
0001FFFB116EF82FFFA129FF40
0000DFFFFFFFC00EFFFFFFFA00
00006FFFFFFB1007FFFFFF9000
000005CFEC6000005CEEB40000
ENDCHAR
STARTCHAR uhorn
ENCODING 432
SWIDTH 512 0
DWIDTH 12 0
BBX 15 14 1 0
BITMAP
00000000006E5000
0000000000CF8000
0000000006FF5000
05EE100AFFFD1000
0DFF104FFFD30000
3FFC008FF7000000
6FF800DFF1000000
9FF503FFC0000000
BFF309FF90000000
CFF12FFF60004E40
CFF3CFFF6005EF40
BFFFFBFFD9CFFA00
6FFFD3FFFFFF8000
09EB205DFD930000
ENDCHAR
STARTCHAR uni01C4
ENCODING 452
SWIDTH 1531 0
DWIDTH 37 0
BBX 38 28 2 0
BITMAP
0000000000000000000000000BE4003DD10000
0000000000000000000000000DFB00CFD00000
00000000000000000000000007FF27FF400000
00000000000000000000000001EF9EF8000000
000000000000000000000000007FFFC0000000
000000000000000000000000000AFB10000000
00000000000000000000000000000000000000
00000000000000000000000000000000000000
00048CEFFDB7100000000048CEEFEDDB974000
00BFFFFFFFFFF70000003DFFFFFFFFFFFFFD00
03FFFDCABEFFFFA00003FFFEB9999ACFFFFF10
00752000004DFFF8000CFF810000003FFFB400
000010000001CFFF201FFC00000000CFFE1000
006FF90000003FFF802FFB00000007FFF60000
00DFF80000000CFFC00EFF2000002EFFB00000
02FFF400000009FFE006FE200000BFFF200000
05FFE000000008FFF00021000006FFF7000000
09FFB000000009FFE0000000002EFFC0000000
0CFF800000000BFFD000000000CFFE20000000
1FFF500000000EFFA000000009FFF700000000
3FFF300000003FFF600000005FFFB000000000
6FFF00000000AFFE10000002EFFE2000000000
8FFD00000005FFF80000001CFFF50000000035
BFFB0000004EFFD10018DFFFFFB000000001DC
DFF900003AFFFE2000BFFFFFFFFD9300002CFA
EFFDABCEFFFFD20002FFFFFFFFFFFFDA9BFFD1
FFFFFFFFFFE7000001EFFFFE78DFFFFFFFFC20
6BDEFFEC95000000004CEE9200037BDFEC6000
ENDCHAR
STARTCHAR uni01C5
ENCODING 453
SWIDTH 1191 0
DWIDTH 29 0
BBX 29 21 2 0
BITMAP
000000000000000000007E8001CE20
00048CEFFDB710000000BFD009FF20
00BFFFFFFFFFF70000008FF01FF900
03FFFDCABEFFFFA000005FF28FE100
00752000004DFFF800001FF5EF7000
000010000001CFFF20000DFDFD0000
006FF90000003FFF800008FFF50000
00DFF80000000CFFC00002DE700000
02FFF400000009FFE0000000000000
05FFE000000008FFF0000000000000
09FFB000000009FFE0DFFFFFFFD000
0CFF800000000BFFD2FFFFFFFFF100
1FFF500000000EFFA06889FFFF9000
3FFF300000003FFF60003DFFC40000
6FFF00000000AFFE1004EFF9000000
8FFD00000005FFF8003EFF70000000
BFFB0000004EFFD101DFF600000000
DFF900003AFFFE2009FF9000000000
EFFDABCEFFFFD2001FFFA999997000
FFFFFFFFFFE700002FFFFFFFFFF100
6BDEFFEC950000001CFFFFFFFFC000
ENDCHAR
STARTCHAR uni01C6
ENCODING 454
SWIDTH 895 0
DWIDTH 21 0
BBX 25 20 0 0
BITMAP
0000000006EE302DD2007E9000
000000000EFF404FF603FF9000
000000001FFF101FF80BFE1000
000000003FFD000CFA4FF60000
000000006FFA0008FDCFB00000
000000008FF70004FFFF200000
00000000AFF40000DFF7000000
00000000CFF100002630000000
00000000EFD000000000000000
00004BEEFFA08FFFFFFFFD1000
0007FFFFFF70BFFFFFFFFF2000
007FFFCCFF403888AFFFF80000
02FFF60AFF200019FFE8200000
09FF800EFE0003DFF910000000
0EFF202FFB002EFF4000000520
1FFD006FF9009FFA0000008F80
2FFE11DFF908FFFD20015CFF60
0EFFEEFFFFEFFFFFFDDFFFF900
08FFFFB6FFFF7BFFFFFFFE7000
009EE9108EC4006BEFEC720000
ENDCHAR
STARTCHAR uni01C7
ENCODING 455
SWIDTH 1276 0
DWIDTH 31 0
BBX 33 23 -1 -3
BITMAP
0000000004ADFEB400000049CEFEDA8300
00000002BFFFFFFF70002CFFFFFFFFFF10
0000001DFFFB9DFFF302EFFFB9AEFFFE10
000000BFFE3000CFF80BFF910008FFD100
000004FFF500008FFA1FFD00000AFFB000
00000AFFD000009FF92FFB00000CFF9000
00000DFF900000BFF50FFE10000DFF7000
00001FFF6000005B800BFF40000FFF5000
00002FFF5000000000029600002FFF2000
00003FFF3000000000000000006FFF0000
00004FFF10000000000000005CFFFC0000
00005FFF000000000000004DFFFFF90000
00006FFD00000000000019FFC4DFF50000
00007FFC000000000002DFF702FFF20000
00008FFA00000000001DFE4005FFC00000
05CEFFFB51000000009FF5000AFF700000
8FFFFFFFFFA5100005FFC0001EFF200000
EFFFFFFFFFFFFB9ADFFF70007FFA000000
CFFFFF78CFFFFFFFFFFF6002EFF3000000
2BEEB500016ADEFDBCFFC13DFF80000000
000000000000000004FFFFFFFB00000000
0000000000000000007FFFFF9000000000
0000000000000000000268620000000000
ENDCHAR
STARTCHAR uni01C8
ENCODING 456
SWIDTH 927 0
DWIDTH 22 0
BBX 26 31 -1 -11
BITMAP
00000000038CEFDA3000000000
00000001AFFFFFFFF500000000
0000001CFFFC99EFFE10000000
000000AFFE50001EFF60000000
000004FFF6000009FF95DE8000
000009FFE0000009FF9EFFF100
00000DFFA000000BFF8FFFF100
00000FFF7000000AFD18ED5000
00002FFF500000014100000000
00003FFF300000000006EE1000
00004FFF10000000000DFF2000
00005FFF00000000000FFF0000
00006FFD00000000002FFE0000
00007FFC00000000003FFB0000
00008FFA00000000005FF90024
05CEFFFB51000000007FF704EC
8FFFFFFFFFA5100005EFF56FF9
EFFFFFFFFFFFFB9ADFFFFAFF70
CFFFFF77CFFFFFFFFFFFFFD300
2BEEB400016ACEFEA5EFF90000
00000000000000001AFF900000
0000000000000002DFFF600000
000000000000002DFEFF300000
00000000000002EF7BFE000000
0000000000000CF80EFA000000
0000000000007FC04FF5000000
000000000000EF50AFE0000000
000000000003FF23FF80000000
000000000004FFBEFE10000000
000000000001EFFFF500000000
0000000000004CEC4000000000
ENDCHAR
STARTCHAR uni01C9
ENCODING 457
SWIDTH 610 0
DWIDTH 15 0
BBX 17 33 1 -11
BITMAP
00001AED3000000000
0001DFFFC000000000
0009FEBFF200000000
002FF72FF400000000
009FF11FF400000000
01EFB02FF300000000
05FF604FF2BEC10000
09FF308FB9FFF70000
0DFE00CF7AFFF60000
1FFC03FF13DEA00000
3FF909FA0000000000
6FF71FF302DF600000
8FF69FB007FF800000
9FF7FF3009FF600000
AFFEF9000BFF400000
AFFFD1000DFF200000
9FFF40001EFE000300
8FF90001CFFC02BF20
4FFA001CFFFA5EFF10
1EFFAAEFFFFEFFD400
06FFFFFEAFFFF91000
006DFD819FFD400000
00000008FFF1000000
000000AFFFC0000000
00001BFEFF90000000
0000BFC6FF50000000
0008FD19FF10000000
002FF30DFB00000000
009FA04FF600000000
00CF80CFE000000000
00DFDBFF6000000000
009FFFFB0000000000
001AEE800000000000
ENDCHAR
STARTCHAR uni01CA
ENCODING 458
SWIDTH 1497 0
DWIDTH 36 0
BBX 37 23 0 -3
BITMAP
0004ADEB100017CEEB400000059CEFFEDB9600
019FFFFF9003DFFFFFF20006EFFFFFFFFFFF60
0BFFACFFD02EFD9BFFF9007FFFEB9889FFFD30
9FE404FFE0CF9000BFFC01FFE5000004FFF200
EE3004FFD6F900009FFD06FF70000006FFF000
740005FFBDD00000AFFB07FF60000007FFD000
000007FFEF500000DFF906FFA0000009FFB000
000009FFFD000001FFF601FFD000000BFF9000
00000BFFF7000005FFF300593000000DFF6000
00000DFFF2000008FFE000000000016FFF4000
00000FFFC000000BFFB0000000018EFFFF1000
00003FFF8000000EFF800000006EFFFFFD0000
00005FFF4000003FFF5000001BFFF9AFF90000
00007FFF1000005FFF200002DFFC30CFF60000
0000AFFD0000007FFE00001CFF9001FFF10000
0000CFFA0000008FFE00008FFB0005FFB00000
0000FFF80000007FFF2005FFF2000AFF600000
0001FFF50000003FFFD9BFFFC0002FFE000000
0001FFF300000009FFFFFFFFB000BFF7000000
0000AFB0000000007CFEB8FFE319FFC0000000
0000000000000000000000DFFFFFFD20000000
00000000000000000000003EFFFFC200000000
00000000000000000000000168740000000000
ENDCHAR
STARTCHAR uni01CB
ENCODING 459
SWIDTH 1138 0
DWIDTH 27 0
BBX 30 31 0 -11
BITMAP
0003ADEA100007CEEB400000000000
007FFFFF8001CFFFFFF20000000000
07FFBCFFC01CFD9BFFF90000000000
4FF604FFE09F9000BFFC0000000000
DF7004FFD3F900009FFD0004DE9000
EC0005FFCAD00000AFFB000EFFF200
410007FFBF500000DFF9000FFFF100
000009FFED000001FFF60007EE6000
00000BFFF7000005FFF30000000000
00000DFFF2000008FFE00006EE2000
00000FFFC000000BFFB0000CFF3000
00003FFF8000000EFF80000EFF1000
00005FFF4000003FFF50001FFE0000
00007FFF1000005FFF20002FFC0000
0000AFFD0000007FFE00004FFA0001
0000CFFA0000008FFE00007FF802BC
0000FFF80000007FFF2005FFF56EFC
0001FFF50000003FFFD9BFFFFCFFC2
0001FFF300000009FFFFFFFFFFF700
0000AFB0000000007CFEB5EFFC3000
000000000000000000001BFFC00000
00000000000000000002DFFF800000
0000000000000000003EFEFF400000
000000000000000002EF8AFF100000
00000000000000000CF90EFB000000
00000000000000007FD03FF6000000
0000000000000000DF509FF1000000
0000000000000002FF32FF90000000
0000000000000003FFBDFE20000000
0000000000000000DFFFF600000000
00000000000000003CEC5000000000
ENDCHAR
STARTCHAR uni01CC
ENCODING 460
SWIDTH 750 0
DWIDTH 18 0
BBX 20 27 1 -11
BITMAP
00000000000008ED5000
0000000000004FFFD000
0000000000005FFFB000
0000000000000BEC3000
00000000000000000000
06EE004CEA000AFB0000
0EFD06FFFF102FFD0000
3FF94FFFFE004FFB0000
6FF6DFBFFC006FF90000
9FF9F84FF9007FF70000
AFFEE16FF6009FF50021
BFFF709FF300CFF207F8
CFFF20CFF20BFFF3CFF6
BFFC00CFFBDFFFFEFF70
9FF7009FFFFFFFFFC300
2DD1002BED96FFF80000
00000000004EFF600000
0000000006FFFF300000
000000007FFEFE000000
00000006FE4EFA000000
0000003FF43FF6000000
000000CF808FF1000000
000003FF10DFB0000000
000007FD07FF40000000
000007FFAFFB00000000
000003FFFFE200000000
0000006DEB2000000000
ENDCHAR
STARTCHAR Gcaron
ENCODING 486
SWIDTH 811 0
DWIDTH 19 0
BBX 21 39 1 -11
BITMAP
00000002EC0007E8000000
00000003FF503FF8000000
00000000CFB0CFD1000000
000000005FF9FF30000000
000000000CFFF700000000
0000000003DE7000000000
0000000000000000000000
0000000000000000000000
00000016BDFED920000000
000007EFFFFFFFE4000000
0001BFFFEA9AEFFE100000
000BFFF810002EFF500000
007FFF5000000BFF700000
01EFF90000000CFF700000
08FFE10000000EFF400000
0DFFA00000000AFA000000
2FFF600000000000000000
5FFF300000000000000000
6FFF200000000000000000
7FFF100000388888600000
6FFF200000CFFFFFF10000
4FFF5000008FFFFFF00000
1FFFB000000001FFD00000
0AFFF500000003FFA008C0
01DFFF71000007FF83DFF0
003EFFFEB99AEFFFCFFE50
0002BFFFFFFFFFFFFFB200
0000049CEFEC8DFFE60000
000000000001AFFE200000
00000000001CFFFA000000
0000000002DFEFF7000000
000000001DFA8FF3000000
00000000BFB0BFD0000000
00000005FE11FF90000000
0000000BF807FF30000000
0000000FF51EFB00000000
0000000FFCCFF400000000
0000000BFFFF8000000000
00000002BED60000000000
ENDCHAR
STARTCHAR gcaron
ENCODING 487
SWIDTH 479 0
DWIDTH 12 0
BBX 15 32 0 -11
BITMAP
00004EB000AE5000
00008FF106FF5000
00005FF30DFC0000
00002FF55FF40000
00000DF7CFA00000
000009FDFF200000
000005FFF8000000
000000BE90000000
0000000000000000
0000000000000000
00003AEE10000000
0007FFFFFF400000
007FFFCCFF500000
02FFF60AFF200000
09FF900DFE000000
0EFF202FFC000200
1FFE005FF903CF10
2FFE00BFF78FFE00
0EFFBCFFFFFFD300
08FFFFEFFFF91000
009EE8BFFD400000
00001BFFD1000000
0002DFFF90000000
002DFEFF60000000
01DFA7FF20000000
0BFB0BFD00000000
5FE11FF800000000
BF806FF300000000
FF51EFB000000000
FFCCFF4000000000
BFFFF80000000000
2BED700000000000
ENDCHAR
STARTCHAR uni01EA
ENCODING 490
SWIDTH 816 0
DWIDTH 20 0
BBX 19 26 1 -6
BITMAP
00000027BEFDB6100000
000007EFFFFFFFD40000
0001BFFFDA9BFFFF4000
000BFFF600003EFFD100
007FFF50000004FFF700
01EFF800000000CFFC00
07FFE1000000008FFF10
0CFFA0000000006FFF20
1FFF60000000006FFF20
4FFF30000000007FFF10
6FFF20000000008FFE00
7FFF1000000000BFFC00
6FFF2000000001FFF700
5FFF4000000006FFF300
2FFF800000001EFFB000
0CFFE2000000BFFF3000
06FFFD30003BFFF70000
00AFFFFCBDFFFF900000
000AFFFFFFFFE5000000
00004BEFFFD710000000
0000000CFC1000000000
0000004FF30000000000
0000007FF10000000000
0000006FF94550000000
0000001EFFFFD0000000
00000002AEFC50000000
ENDCHAR
STARTCHAR uni01EB
ENCODING 491
SWIDTH 451 0
DWIDTH 11 0
BBX 14 17 0 -6
BITMAP
0003AEEB300000
006FFFFFF30000
03FFFBEFFC0000
0AFF70DFFF2000
0EFF10BFFFBADE
2FFD004FFFFFFE
2FFD0008FFFDB5
1FFF100BFE1000
0BFFA38FF80000
04FFFFFFC10000
004DFFFB100000
0002FF80000000
000BFB00000000
000FF700000000
000EFC33510000
0008FFFFF40000
00007DFE900000
ENDCHAR
STARTCHAR Aringacute
ENCODING 506
SWIDTH 786 0
DWIDTH 19 0
BBX 23 31 1 0
BITMAP
000000000000000000005600
00000000000000000009FF40
000000000000377201BFFE20
000000000006FFFE39FC6100
00000000001FFFFFC2300000
00000000005FD15FF0000000
00000000006FD25FE0000000
00000000003FFFFFA0000000
000000000009FFFD20000000
000000000000486100000000
000000000000000000000000
0000000016ACEFEDB8400000
0000002AFFFFFFFFFFF10000
000007FFFFFECCDEFFC00000
00009FFFE720000024100000
0009FFFA100006ED40000000
005FFF9000000EFF80000000
01EFFC0000002FFF50000000
07FFF30000005FFF10000000
0DFFB00000009FFC00000000
2FFF60000000CFF900000000
6FFF20000001FFF600000000
8FFF00000006FFF300000000
9FFE0000000BFFF100000000
9FFE0000002FFFE000000000
8FFF1000009FFFD000013000
6FFF500003FFFFE0001CD000
1FFFD2004EFCFFF302CFC000
07FFFFCDFFB3FFFECEFE3000
009FFFFFFC10AFFFFFE40000
0005BEEC710018DFD9200000
ENDCHAR
STARTCHAR aringacute
ENCODING 507
SWIDTH 470 0
DWIDTH 11 0
BBX 16 22 0 0
BITMAP
0000000000000271
0000000000002DFA
000000377202DFF9
000006FFFE49FC60
00001FFFFFC23000
00005FD25FF00000
00006FD25FF00000
00003FFFFFA00000
000009FFFD200000
0000004861000000
0000000000000000
00003AEE10000000
0007FFFFFF500000
007FFFCCFF600000
02FFF60AFF300000
09FF900DFF000000
0EFF202FFC000100
1FFE006FFA005F40
2FFE00CFF905FF40
0EFFBCFFFEBFFA00
08FFFFD8FFFFA000
009EEA109ED60000
ENDCHAR
STARTCHAR AEacute
ENCODING 508
SWIDTH 1015 0
DWIDTH 24 0
BBX 27 28 1 0
BITMAP
0000000000000000000164000000
0000000000000000002DFF300000
000000000000000004EFFF300000
00000000000000006FFFD5000000
0000000000000007FFD600000000
000000000000000AD60000000000
0000000000000000000000000000
0000000000000000000000000000
0000000049CFC106DFFFFFFFA000
0000005DFFFFF45FFFFFFFFFC000
00000AFFFFFD91CFFC9988882000
0001BFFFE72001FFF30000000000
000AFFFB100005FFE00000000000
006FFFA000000AFFB00000000000
01EFFC0000000EFF800000000000
07FFF40000003FFF500000000000
0DFFB00000007FFF200000000000
3FFF70000000BFFFFFFFFFE10000
6FFF20000001FFFFFFFFFFF20000
8FFF00000005FFFB888888500000
9FFE0000000AFFF5000000000000
9FFE0000001FFFF3000000000000
8FFF0000008FFFF4000000000000
5FFF500002EFFFF9000000000400
1EFFC1002CFD9FFF60000016DF50
07FFFD9AEFF42EFFFDA99CFFFF20
009FFFFFFF5003DFFFFFFFFFC400
0004ADFD92000006BDFFEB830000
ENDCHAR
STARTCHAR aeacute
ENCODING 509
SWIDTH 653 0
DWIDTH 16 0
BBX 19 20 0 0
BITMAP
0000000000009E600000
000000000004FFC00000
00000000000BFF700000
00000000003FFB000000
0000000000AFD1000000
0000000002FE30000000
0000000003E500000000
00000000000000000000
00000000000000000000
000028CED29DFC400000
0007FFFFFEFFFFF30000
008FFFC9FFFBBFF70000
04FFE406FF901FF70000
0AFF600BFF207FF30000
0EFF001FFF5BFF700220
1FFD004FFFFFB4003EA0
1FFE00AFFFA20018FF90
0DFFBBFEFFFB9BEFFD20
06FFFFF48FFFFFFFA100
007DFC4005BEFDA40000
ENDCHAR
STARTCHAR Oslashacute
ENCODING 510
SWIDTH 816 0
DWIDTH 20 0
BBX 19 31 1 -3
BITMAP
00000000000047100000
000000000007FFB00000
0000000000AFFFA00000
000000001CFFFA100000
00000001DFFA30000000
00000003EA3000000000
00000000000AE7000000
00000000002FF9000000
00000027BEFFF9100000
000008EFFFFFFFE40000
0001BFFFCAFFFFFF4000
000BFFE504FFAFFFE100
007FFF4008FF26FFF800
01EFF8000CFD00DFFD00
07FFE1001FF9009FFF10
0CFFA0004FF4007FFF20
1FFF60008FF1006FFF20
4FFF3000CFB0007FFF10
6FFF2001FF70008FFE00
7FFF1005FF3000BFFC00
7FFF2009FE0000EFF800
5FFF400DFB0005FFF200
2FFF802FF7000CFFB000
0DFFE16FF3008FFF2000
05FFFBBFE008FFF60000
00AFFFFFDAEFFF700000
0009FFFFFFFFD4000000
00003CFFFDA600000000
00000CFC000000000000
00000FF8000000000000
00000461000000000000
ENDCHAR
STARTCHAR oslashacute
ENCODING 511
SWIDTH 459 0
DWIDTH 11 0
BBX 15 23 0 -3
BITMAP
000001CD30000000
000009FF80000000
00001FFF30000000
00008FF700000000
0001EFA000000000
0006FC0000000000
0007D28E00000000
000000DD00000000
000001FA00000000
0004BEFD50000000
007FFFFFF7000000
03FFEDFFFF200000
0BFF4BE8FF701400
1FFD0DB4FFEEFF20
2FFB1F93FFFFFF10
2FFC4F65FFC97200
0FFE8F3AFF200000
0AFFFFBFFA000000
02EFFFFFD1000000
002AFFD810000000
0003F80000000000
0006F50000000000
0007D20000000000
ENDCHAR
STARTCHAR uni0200
ENCODING 512
SWIDTH 786 0
DWIDTH 19 0
BBX 21 28 1 0
BITMAP
0000000006400461000000
000000007FF32FF8000000
000000006FF72FFD000000
000000001DFC09FF200000
0000000004FF11DF600000
00000000009D204E600000
0000000000000000000000
0000000000000000000000
0000000016ACEFEDB84000
0000002AFFFFFFFFFFF100
000007FFFFFECCDEFFC000
00009FFFE7200000241000
0009FFFA100006ED400000
005FFF9000000EFF800000
01EFFC0000002FFF500000
07FFF30000005FFF100000
0DFFB00000009FFC000000
2FFF60000000CFF9000000
6FFF20000001FFF6000000
8FFF00000006FFF3000000
9FFE0000000BFFF1000000
9FFE0000002FFFE0000000
8FFF1000009FFFD0000130
6FFF500003FFFFE0001CD0
1FFFD2004EFCFFF302CFC0
07FFFFCDFFB3FFFECEFE30
009FFFFFFC10AFFFFFE400
0005BEEC710018DFD92000
ENDCHAR
STARTCHAR uni0201
ENCODING 513
SWIDTH 470 0
DWIDTH 11 0
BBX 15 20 0 0
BITMAP
01CE308E80000000
05FFB0FFF1000000
01EFF1AFF6000000
006FF52EFB000000
000CFA07FF100000
0003FE10CF500000
00007D103E500000
0000000000000000
0000000000000000
00003AEE10000000
0007FFFFFF500000
007FFFCCFF600000
02FFF60AFF300000
09FF900DFF000000
0EFF202FFC000100
1FFE006FFA005F40
2FFE00CFF905FF40
0EFFBCFFFEBFFA00
08FFFFD8FFFFA000
009EEA109ED60000
ENDCHAR
STARTCHAR uni0202
ENCODING 514
SWIDTH 786 0
DWIDTH 19 0
BBX 21 27 1 0
BITMAP
0000000000026886100000
00000000008FFFFFE60000
0000000009FFFFFFFF5000
000000002FFD4018FFA000
000000001DC20000AE6000
0000000000000000000000
0000000000000000000000
0000000016ACEFEDB84000
0000002AFFFFFFFFFFF100
000007FFFFFECCDEFFC000
00009FFFE7200000241000
0009FFFA100006ED400000
005FFF9000000EFF800000
01EFFC0000002FFF500000
07FFF30000005FFF100000
0DFFB00000009FFC000000
2FFF60000000CFF9000000
6FFF20000001FFF6000000
8FFF00000006FFF3000000
9FFE0000000BFFF1000000
9FFE0000002FFFE0000000
8FFF1000009FFFD0000130
6FFF500003FFFFE0001CD0
1FFFD2004EFCFFF302CFC0
07FFFFCDFFB3FFFECEFE30
009FFFFFFC10AFFFFFE400
0005BEEC710018DFD92000
ENDCHAR
STARTCHAR uni0203
ENCODING 515
SWIDTH 470 0
DWIDTH 11 0
BBX 15 19 0 0
BITMAP
0000015875000000
00005EFFFFD30000
0005FFFFFFFE1000
000DFF613CFF7000
002FF80003FF9000
001DB100009E5000
0000000000000000
0000000000000000
00003AEE10000000
0007FFFFFF500000
007FFFCCFF600000
02FFF60AFF300000
09FF900DFF000000
0EFF202FFC000100
1FFE006FFA005F40
2FFE00CFF905FF40
0EFFBCFFFEBFFA00
08FFFFD8FFFFA000
009EEA109ED60000
ENDCHAR
STARTCHAR uni0204
ENCODING 516
SWIDTH 686 0
DWIDTH 16 0
BBX 20 28 0 0
BITMAP
00000006400461000000
0000007FF22FF8000000
0000007FF72FFC000000
0000001DFC09FF200000
00000004FF11DF600000
000000009D104E500000
00000000000000000000
00000000000000000000
00000016ADEFEB600000
000006EFFFFFFFFB1000
00008FFFFCA9CFFF9000
0005FFFB200007FFE000
000BFFE1000002FFF100
000DFFA0000003FFF000
000CFFC0000004FFB000
0007FFF6000001992000
0000AFFFD98200000000
000019FFFFF700000000
0018EFFFFFE300000000
01CFFFA5210000000000
09FFE400000000000000
1FFF8000000000000000
3FFF5000000000000000
2FFF8000000000000031
0DFFF710000000159EF6
04FFFFEBA99ABDFFFFF4
003CFFFFFFFFFFFFFC50
000048BDEFFEDB962000
ENDCHAR
STARTCHAR uni0205
ENCODING 517
SWIDTH 393 0
DWIDTH 9 0
BBX 13 20 0 0
BITMAP
1CE308E8000000
5FFB0FFF100000
1EFF1AFF600000
06FF52EFB00000
00CFA07FF10000
003FE10CF50000
0007D103E50000
00000000000000
00000000000000
0003AEEB200000
005FFFFFD00000
03FFFADFF30000
0AFF605FF30000
0FFD00BFD00000
2FFC6DFE400310
2FFFFFA2006F70
1FFF81002AFF60
0AFFEA9BFFFA00
01DFFFFFFF8000
0018CEEC820000
ENDCHAR
STARTCHAR uni0206
ENCODING 518
SWIDTH 686 0
DWIDTH 16 0
BBX 20 27 0 0
BITMAP
00000000026886100000
000000009FFFFFE60000
00000009FFFFFFFF4000
0000002FFD4018FFA000
0000002DC20000AE6000
00000000000000000000
00000000000000000000
00000016ADEFEB600000
000006EFFFFFFFFB1000
00008FFFFCA9CFFF9000
0005FFFB200007FFE000
000BFFE1000002FFF100
000DFFA0000003FFF000
000CFFC0000004FFB000
0007FFF6000001992000
0000AFFFD98200000000
000019FFFFF700000000
0018EFFFFFE300000000
01CFFFA5210000000000
09FFE400000000000000
1FFF8000000000000000
3FFF5000000000000000
2FFF8000000000000031
0DFFF710000000159EF6
04FFFFEBA99ABDFFFFF4
003CFFFFFFFFFFFFFC50
000048BDEFFEDB962000
ENDCHAR
STARTCHAR uni0207
ENCODING 519
SWIDTH 393 0
DWIDTH 9 0
BBX 13 19 0 0
BITMAP
00001587500000
0005EFFFFD3000
005FFFFFFFE100
00DFF613CFF700
02FF80003FF900
01DB100009E500
00000000000000
00000000000000
0003AEEB200000
005FFFFFD00000
03FFFADFF30000
0AFF605FF30000
0FFD00BFD00000
2FFC6DFE400310
2FFFFFA2006F70
1FFF81002AFF60
0AFFEA9BFFFA00
01DFFFFFFF8000
0018CEEC820000
ENDCHAR
STARTCHAR uni0208
ENCODING 520
SWIDTH 495 0
DWIDTH 12 0
BBX 15 28 -1 0
BITMAP
0000164004600000
00008FF13FF60000
00008FF63FFB0000
00001EFA0AFF1000
000006FE01EF5000
000000AD105E4000
0000000000000000
0000000000000000
0002CFFFFFFFFD20
0008FFFFFFFFFF30
0002889FFFB88500
0000003FFF300000
0000005FFF100000
0000007FFD000000
000000AFFB000000
000000CFF8000000
000000EFF6000000
000002FFF4000000
000004FFF1000000
000007FFE0000000
000009FFC0000000
00000BFF90000000
00000EFF70000000
00001FFF50000000
00003FFF30000000
0378BFFF98710000
3FFFFFFFFFF80000
3EFFFFFFFFD30000
ENDCHAR
STARTCHAR uni0209
ENCODING 521
SWIDTH 246 0
DWIDTH 6 0
BBX 11 20 -2 0
BITMAP
5EB01CD30000
BFF55FFA0000
6FFA1EFF1000
0CFE07FF5000
03FF50CFA000
008F903FE000
001C9008D100
000000000000
000000000000
00007ED00000
0000EFF00000
0002FFC00000
0006FF900000
0009FF600000
000BFF300130
000DFF100BE0
000CFF10BFD0
000BFFBDFF40
0005FFFFE400
00008EEA2000
ENDCHAR
STARTCHAR uni020A
ENCODING 522
SWIDTH 495 0
DWIDTH 12 0
BBX 15 27 -1 0
BITMAP
0000000268851000
0000019FFFFFE500
00000AFFFFFFFF30
00003FFC3019FF90
00002DB10000BE50
0000000000000000
0000000000000000
0002CFFFFFFFFD20
0008FFFFFFFFFF30
0002889FFFB88500
0000003FFF300000
0000005FFF100000
0000007FFD000000
000000AFFB000000
000000CFF8000000
000000EFF6000000
000002FFF4000000
000004FFF1000000
000007FFE0000000
000009FFC0000000
00000BFF90000000
00000EFF70000000
00001FFF50000000
00003FFF30000000
0378BFFF98710000
3FFFFFFFFFF80000
3EFFFFFFFFD30000
ENDCHAR
STARTCHAR uni020B
ENCODING 523
SWIDTH 246 0
DWIDTH 6 0
BBX 11 19 -1 0
BITMAP
000278730000
019FFFFFA100
0AFFFFFFF900
4FFD316FFF10
8FF20008FF40
5E700001DC10
000000000000
000000000000
0007ED000000
000EFF000000
002FFC000000
006FF9000000
009FF6000000
00BFF3001300
00DFF100BE00
00CFF10BFD00
00BFFBDFF400
005FFFFE4000
0008EEA20000
ENDCHAR
STARTCHAR uni020C
ENCODING 524
SWIDTH 816 0
DWIDTH 20 0
BBX 19 28 1 0
BITMAP
00000046101720000000
000002FF80BFD0000000
000001FFD0BFF3000000
0000008FF23FF7000000
0000001DF709FC000000
00000004E601CB000000
00000000000000000000
00000000000000000000
00000027BEFDB6100000
000008EFFFFFFFE40000
0001BFFFDA9BFFFF4000
000BFFF600004EFFE100
007FFF50000004FFF800
01EFF900000000CFFD00
07FFE1000000008FFF10
0DFFA0000000006FFF20
1FFF60000000006FFF20
4FFF30000000007FFF10
6FFF20000000008FFE00
7FFF1000000000BFFC00
6FFF2000000000EFF800
5FFF4000000005FFF200
2FFF800000000DFFB000
0CFFE10000009FFF2000
05FFFB100019FFF60000
009FFFEA9AEFFF700000
0007FFFFFFFFD4000000
000028CEFDA600000000
ENDCHAR
STARTCHAR uni020D
ENCODING 525
SWIDTH 451 0
DWIDTH 11 0
BBX 14 20 0 0
BITMAP
2DD209E6000000
6FF91FFE000000
2FFE0CFF400000
08FF43FF900000
00DF908FE00000
004FE01DF40000
0009D004E40000
00000000000000
00000000000000
0004BEFC400000
006FFFFFF40000
03FFFBEFFD0000
0BFF70DFFF4144
1FFE00AFFFFFFF
2FFD002DFFFFFC
2FFD0008FF9741
1FFF301DFC0000
0AFFE9DFF60000
02DFFFFF900000
0029EFC6000000
ENDCHAR
STARTCHAR uni020E
ENCODING 526
SWIDTH 816 0
DWIDTH 20 0
BBX 19 27 1 0
BITMAP
00000000057873000000
00000005EFFFFFA10000
0000004FFFFFFFFA0000
000000BFF6104EFF1000
0000009E500005EB0000
00000000000000000000
00000000000000000000
00000027BEFDB6100000
000008EFFFFFFFE40000
0001BFFFDA9BFFFF4000
000BFFF600004EFFE100
007FFF50000004FFF800
01EFF900000000CFFD00
07FFE1000000008FFF10
0DFFA0000000006FFF20
1FFF60000000006FFF20
4FFF30000000007FFF10
6FFF20000000008FFE00
7FFF1000000000BFFC00
6FFF2000000000EFF800
5FFF4000000005FFF200
2FFF800000000DFFB000
0CFFE10000009FFF2000
05FFFB100019FFF60000
009FFFEA9AEFFF700000
0007FFFFFFFFD4000000
000028CEFDA600000000
ENDCHAR
STARTCHAR uni020F
ENCODING 527
SWIDTH 451 0
DWIDTH 11 0
BBX 14 19 0 0
BITMAP
00001687400000
0006EFFFFC2000
006FFFFFFFD000
01EFF513DFF500
04FF60004FF800
02DA00000AE400
00000000000000
00000000000000
0004BEFC400000
006FFFFFF40000
03FFFBEFFD0000
0BFF70DFFF4144
1FFE00AFFFFFFF
2FFD002DFFFFFC
2FFD0008FF9741
1FFF301DFC0000
0AFFE9DFF60000
02DFFFFF900000
0029EFC6000000
ENDCHAR
STARTCHAR uni0210
ENCODING 528
SWIDTH 880 0
DWIDTH 21 0
BBX 24 28 1 0
BITMAP
000000055003610000000000
0000006FF41FF90000000000
0000005FF91EFE0000000000
0000000CFD07FF3000000000
00000003FF20DF8000000000
000000008E203E7000000000
000000000000000000000000
000000000000000000000000
000000059CEFEC9300000000
000005DFFFFFFFFF90000000
0000AFFFDA9ACFFFF8000000
000AFFC4000004EFFF200000
007FFA104730006FFF500000
01EFC004FFC0003FFF600000
08FF4009FFC0004FFF400000
0EFC000CFF90009FFE000000
3FF8000EFF6005FFF6000000
6FF4002FFF439FFF80000000
8FF20BFFFFFFFFD500000000
AFF00FFFFFFFF70000000000
AFE005DFFDDFFF7000000000
9FF000CFF80BFFF300000000
8FF200FFF502FFFB00000020
4FF503FFF2008FFF400006F2
1EFC06FFF0001EFFD1006FF2
07FFBDFFC00007FFFE9BFF70
00AFFFFF600000AFFFFFF700
0006CED800000007CEEA3000
ENDCHAR
STARTCHAR uni0211
ENCODING 529
SWIDTH 455 0
DWIDTH 11 0
BBX 14 20 1 0
BITMAP
5EB01CD3000000
BFF55FFA000000
6FFA1EFF100000
0CFE07FF500000
03FF50CFA00000
008F903FE00000
001C9008D10000
00000000000000
00000000000000
06EE004CEA0000
0EFD06FFFF0000
3FF94FFFFE0000
6FF6DFBFFB0040
9FF9F92FFC19F3
AFFEE13FFFFFF2
BFFF701DFFFE40
CFFF2002897100
BFFC0000000000
9FF70000000000
2DD10000000000
ENDCHAR
STARTCHAR uni0212
ENCODING 530
SWIDTH 880 0
DWIDTH 21 0
BBX 24 27 1 0
BITMAP
000000000168861000000000
000000008FFFFFF700000000
00000008FFFFFFFF60000000
0000001FFD4117FFB0000000
0000001DC200009E80000000
000000000000000000000000
000000000000000000000000
000000059CEFEC9300000000
000005DFFFFFFFFF90000000
0000AFFFDA9ACFFFF8000000
000AFFC4000004EFFF200000
007FFA104730006FFF500000
01EFC004FFC0003FFF600000
08FF4009FFC0004FFF400000
0EFC000CFF90009FFE000000
3FF8000EFF6005FFF6000000
6FF4002FFF439FFF80000000
8FF20BFFFFFFFFD500000000
AFF00FFFFFFFF70000000000
AFE005DFFDDFFF7000000000
9FF000CFF80BFFF300000000
8FF200FFF502FFFB00000020
4FF503FFF2008FFF400006F2
1EFC06FFF0001EFFD1006FF2
07FFBDFFC00007FFFE9BFF70
00AFFFFF600000AFFFFFF700
0006CED800000007CEEA3000
ENDCHAR
STARTCHAR uni0213
ENCODING 531
SWIDTH 455 0
DWIDTH 11 0
BBX 14 19 1 0
BITMAP
00002787300000
0019FFFFFA1000
00AFFFFFFF9000
04FFD316FFF100
08FF20008FF400
05E700001DC100
00000000000000
00000000000000
06EE004CEA0000
0EFD06FFFF0000
3FF94FFFFE0000
6FF6DFBFFB0040
9FF9F92FFC19F3
AFFEE13FFFFFF2
BFFF701DFFFE40
CFFF2002897100
BFFC0000000000
9FF70000000000
2DD10000000000
ENDCHAR
STARTCHAR uni0214
ENCODING 532
SWIDTH 890 0
DWIDTH 21 0
BBX 25 28 0 0
BITMAP
00000000272006400000000000
00000000DFC08FF20000000000
00000000DFF17FF60000000000
000000005FF61EFB0000000000
000000000AFA05FF1000000000
0000000002D900AD1000000000
00000000000000000000000000
00000000000000000000000000
0004ADEC400000000CE8000000
019FFFFFE10000004FFE000000
0BFFCAFFF60000007FFF000000
8FE500EFF70000009FFD000000
EF4000FFF6000000BFFB000000
960001FFF5000000EFF9000000
000004FFF2000002FFF6000000
000008FFE0000006FFF3000000
00000BFFB000000AFFF1000000
00000EFF8000000EFFD0000000
00003FFF4000005FFFB0000000
00006FFF100000BFFF90000000
00009FFC000002FFFF70000000
0000CFF900000AEEFF50000000
0000FFF600004F9FFF30000410
0001FFF60003EF3FFF30007F60
0001FFFB116EF82FFFA129FF40
0000DFFFFFFFC00EFFFFFFFA00
00006FFFFFFB1007FFFFFF9000
000005CFEC6000005CEEB40000
ENDCHAR
STARTCHAR uni0215
ENCODING 533
SWIDTH 462 0
DWIDTH 11 0
BBX 14 20 1 0
BITMAP
4EB11CE4000000
AFF65FFB000000
5FFB1EFF100000
0BFF16FF600000
02FF50CFB00000
008FA03FF10000
000C9007D10000
00000000000000
00000000000000
05EE100AF60000
0DFF104FF60000
3FFC008FF30000
6FF800DFF00000
9FF503FFC00000
BFF309FF900000
CFF12FFF6006E1
CFF3CFFF506FF1
BFFFFCFFCBFF80
6FFFD3FFFFF700
09EB208EEA3000
ENDCHAR
STARTCHAR uni0216
ENCODING 534
SWIDTH 890 0
DWIDTH 21 0
BBX 25 27 0 0
BITMAP
00000000000378740000000000
0000000003CFFFFFC200000000
000000001EFFFFFFFD00000000
000000008FF9203CFF40000000
000000006E800002DD20000000
00000000000000000000000000
00000000000000000000000000
0004ADEC400000000CE8000000
019FFFFFE10000004FFE000000
0BFFCAFFF60000007FFF000000
8FE500EFF70000009FFD000000
EF4000FFF6000000BFFB000000
960001FFF5000000EFF9000000
000004FFF2000002FFF6000000
000008FFE0000006FFF3000000
00000BFFB000000AFFF1000000
00000EFF8000000EFFD0000000
00003FFF4000005FFFB0000000
00006FFF100000BFFF90000000
00009FFC000002FFFF70000000
0000CFF900000AEEFF50000000
0000FFF600004F9FFF30000410
0001FFF60003EF3FFF30007F60
0001FFFB116EF82FFFA129FF40
0000DFFFFFFFC00EFFFFFFFA00
00006FFFFFFB1007FFFFFF9000
000005CFEC6000005CEEB40000
ENDCHAR
STARTCHAR uni0217
ENCODING 535
SWIDTH 462 0
DWIDTH 11 0
BBX 14 19 1 0
BITMAP
00002687300000
0009FFFFFA1000
00AFFFFFFFA000
03FFD315FFF200
07FF30007FF500
04E700001CD100
00000000000000
00000000000000
05EE100AF60000
0DFF104FF60000
3FFC008FF30000
6FF800DFF00000
9FF503FFC00000
BFF309FF900000
CFF12FFF6006E1
CFF3CFFF506FF1
BFFFFCFFCBFF80
6FFFD3FFFFF700
09EB208EEA3000
ENDCHAR
STARTCHAR uni0218
ENCODING 536
SWIDTH 693 0
DWIDTH 17 0
BBX 17 26 0 -6
BITMAP
0000016ADEFEB71000
00004DFFFFFFFFE300
0005FFFFB99BFFFE10
000DFFA100002DFF70
005FFE10000008FF90
007FFD00000008FF80
006FFF30000008FF40
002FFFE40000017400
0008FFFFB500000000
00008FFFFFE8100000
000003BFFFFFE70000
000000028EFFFFA000
01630000006EFFF500
0CFE00000002EFFA00
2FFF000000009FFB00
2FFF00000000BFF900
1EFF70000007FFF400
08FFFEA99BEFFFA000
009FFFFFFFFFF80000
00038CEFFEB7200000
000000000000000000
0000007E9000000000
000000DFF000000000
000000EFB000000000
000000EF6000000000
000000BD1000000000
ENDCHAR
STARTCHAR uni0219
ENCODING 537
SWIDTH 427 0
DWIDTH 10 0
BBX 15 18 -1 -7
BITMAP
000003DF60000000
00000CFF30000000
00004FFD00000000
0000BFFC00000000
0003FFFF50000000
000BFFFFE1000000
007FF5DFFA001910
04FF905FFF20AF40
1EFB000EFF5AFD10
2FB17EEFFFFFD200
0200DFFFFEC81000
00004CEC40000000
000009E700000000
00001FFC00000000
00002FF900000000
00003FF400000000
00003FE000000000
00002E7000000000
ENDCHAR
STARTCHAR uni021A
ENCODING 538
SWIDTH 697 0
DWIDTH 17 0
BBX 22 26 0 -6
BITMAP
0000047ACDEFFFFFFFEDB3
0018EFFFFFFFFFFFFFFFF9
02DFFFCA9AFFFA8899AAA3
0BFF920005FFF100000000
1FFD000008FFE000000000
2FFB00000BFFB000000000
0FFE10000EFF8000000000
08FE20002FFF5000000000
004200005FFF3000000000
000000007FFF0000000000
00000000AFFC0000000000
00000000CFF90000000000
00000000EFF70000000000
00000002FFF50000000000
00000004FFF30000000000
00000007FFF10000000000
00000009FFE00000000000
0000000BFFC00000000000
0000000CFFA00000000000
00000006ED400000000000
0000000000000000000000
00000007E9000000000000
0000000DFF000000000000
0000000EFB000000000000
0000000EF6000000000000
0000000BC1000000000000
ENDCHAR
STARTCHAR uni021B
ENCODING 539
SWIDTH 393 0
DWIDTH 9 0
BBX 13 28 0 -7
BITMAP
0000005DE70000
000005FFFF2000
00002EFBFF6000
00009FD0DF7000
0001FF70DF5000
0007FF21FF2000
000BFD06FC0000
001FFA1DF50000
004FF89FA00000
007FFDFB100000
AFFFFFFFFF9000
EFFFFFFFFF8000
58EFF988850000
00DFF100000000
00DFF100000000
00DFF200000100
00BFF400003E70
008FFA0004EF60
003FFFC9BFFC10
0008FFFFFFB100
00006CEEC60000
00000000000000
00006EA0000000
0000DFF0000000
0000EFC0000000
0000EF80000000
0000FF30000000
0000CB00000000
ENDCHAR
STARTCHAR uni022A
ENCODING 554
SWIDTH 816 0
DWIDTH 20 0
BBX 19 31 1 0
BITMAP
00000000788888710000
00000005FFFFFFF40000
00000003EFFFFFD10000
00000000000000000000
00000000000000000000
00000009EB009EB00000
0000003FFF43FFF40000
0000004FFF34FFF30000
0000000BE900BE900000
00000000000000000000
00000000000000000000
00000027BEFDB6100000
000008EFFFFFFFE40000
0001BFFFDA9BFFFF4000
000BFFF600004EFFE100
007FFF50000004FFF800
01EFF900000000CFFD00
07FFE1000000008FFF10
0DFFA0000000006FFF20
1FFF60000000006FFF20
4FFF30000000007FFF10
6FFF20000000008FFE00
7FFF1000000000BFFC00
6FFF2000000000EFF800
5FFF4000000005FFF200
2FFF800000000DFFB000
0CFFE10000009FFF2000
05FFFB100019FFF60000
009FFFEA9AEFFF700000
0007FFFFFFFFD4000000
000028CEFDA600000000
ENDCHAR
STARTCHAR uni022B
ENCODING 555
SWIDTH 451 0
DWIDTH 11 0
BBX 14 22 0 0
BITMAP
00038888884000
000BFFFFFFD000
0009FFFFFF8000
00000000000000
00000000000000
002CE502CE5000
009FFC09FFC000
00AFFB0AFFB000
004ED304ED3000
00000000000000
00000000000000
0004BEFC400000
006FFFFFF40000
03FFFBEFFD0000
0BFF70DFFF4144
1FFE00AFFFFFFF
2FFD002DFFFFFC
2FFD0008FF9741
1FFF301DFC0000
0AFFE9DFF60000
02DFFFFF900000
0029EFC6000000
ENDCHAR
STARTCHAR uni022C
ENCODING 556
SWIDTH 816 0
DWIDTH 20 0
BBX 19 32 1 0
BITMAP
00000000688888810000
00000002FFFFFFF60000
00000001EFFFFFE30000
00000000000000000000
00000000000000000000
00000001661000361000
0000002DFFE603FF5000
000000BFECFFCDFE1000
000002FF508FFFF70000
000000640004CE800000
00000000000000000000
00000000000000000000
00000027BEFDB6100000
000008EFFFFFFFE40000
0001BFFFDA9BFFFF4000
000BFFF600004EFFE100
007FFF50000004FFF800
01EFF900000000CFFD00
07FFE1000000008FFF10
0DFFA0000000006FFF20
1FFF60000000006FFF20
4FFF30000000007FFF10
6FFF20000000008FFE00
7FFF1000000000BFFC00
6FFF2000000000EFF800
5FFF4000000005FFF200
2FFF800000000DFFB000
0CFFE10000009FFF2000
05FFFB100019FFF60000
009FFFEA9AEFFF700000
0007FFFFFFFFD4000000
000028CEFDA600000000
ENDCHAR
STARTCHAR uni022D
ENCODING 557
SWIDTH 451 0
DWIDTH 11 0
BBX 14 22 0 0
BITMAP
00028888885000
000AFFFFFFE000
0007FFFFFFA000
00000000000000
00037400006400
005FFFB209FC00
02EFBEFFAFF700
07FC02CFFFD100
02720018EC2000
00000000000000
00000000000000
0004BEFC400000
006FFFFFF40000
03FFFBEFFD0000
0BFF70DFFF4144
1FFE00AFFFFFFF
2FFD002DFFFFFC
2FFD0008FF9741
1FFF301DFC0000
0AFFE9DFF60000
02DFFFFF900000
0029EFC6000000
ENDCHAR
STARTCHAR uni0230
ENCODING 560
SWIDTH 816 0
DWIDTH 20 0
BBX 19 31 1 0
BITMAP
00000000788888810000
00000004FFFFFFF50000
00000003EFFFFFD10000
00000000000000000000
00000000000000000000
0000000006DE80000000
000000002FFFF1000000
000000002FFFF1000000
0000000009ED50000000
00000000000000000000
00000000000000000000
00000027BEFDB6100000
000008EFFFFFFFE40000
0001BFFFDA9BFFFF4000
000BFFF600004EFFE100
007FFF50000004FFF800
01EFF900000000CFFD00
07FFE1000000008FFF10
0DFFA0000000006FFF20
1FFF60000000006FFF20
4FFF30000000007FFF10
6FFF20000000008FFE00
7FFF1000000000BFFC00
6FFF2000000000EFF800
5FFF4000000005FFF200
2FFF800000000DFFB000
0CFFE10000009FFF2000
05FFFB100019FFF60000
009FFFEA9AEFFF700000
0007FFFFFFFFD4000000
000028CEFDA600000000
ENDCHAR
STARTCHAR uni0231
ENCODING 561
SWIDTH 451 0
DWIDTH 11 0
BBX 14 21 0 0
BITMAP
00038888884000
000BFFFFFFD000
0009FFFFFF8000
00000000000000
00001AEC300000
00007FFF900000
00008FFF800000
00002CEB100000
00000000000000
00000000000000
0004BEFC400000
006FFFFFF40000
03FFFBEFFD0000
0BFF70DFFF4144
1FFE00AFFFFFFF
2FFD002DFFFFFC
2FFD0008FF9741
1FFF301DFC0000
0AFFE9DFF60000
02DFFFFF900000
0029EFC6000000
ENDCHAR
STARTCHAR uni0232
ENCODING 562
SWIDTH 851 0
DWIDTH 20 0
BBX 23 33 0 -8
BITMAP
000000000178888870000000
0000000007FFFFFFF2000000
0000000005FFFFFFC0000000
000000000000000000000000
000000000000000000000000
0004ADEC400000000BEA0000
019FFFFFE10000004FFF1000
0BFFBAFFF60000007FFF0000
8FE500EFF70000009FFD0000
EF4000FFF6000000CFFB0000
950002FFF5000000EFF90000
000005FFF2000003FFF60000
000008FFE0000007FFF40000
00000BFFB000000CFFF20000
00000EFF8000003FFFE00000
00003FFF400000AFFFC00000
00005FFF100004FEFFA00000
00006FFF10001DFAFF800000
00005FFF4002CF8BFF500000
00002FFFE9AEFC0DFF314770
000008FFFFFFB10FFFDFFFF0
0000006CFEB5039FFFFFFF90
000000000006DFFFFEA74100
0000000005DFFECFF9000000
000000009FFD50AFF6000000
0000000BFF8000DFF3000000
0000007FF70002FFE0000000
000000EFD00007FF90000000
000002FFB0002EFF20000000
000003FFE414DFF800000000
000000DFFFFFFFB000000000
0000004EFFFFF80000000000
000000015886100000000000
ENDCHAR
STARTCHAR uni0233
ENCODING 563
SWIDTH 479 0
DWIDTH 12 0
BBX 16 27 -1 -11
BITMAP
0000288888850000
0000AFFFFFFE0000
00008FFFFFF90000
0000000000000000
0000000000000000
0005EE100AF60000
000DFF104FF70000
003FFC008FF40000
006FF800DFF20000
009FF603FFE00000
00BFF309FFC00000
00CFF12FFF9008D0
00CFF3CFFF73CFF1
00BFFFFDFFBFFE50
006FFFD8FFFFB200
0009EB39FFE60000
0000006FFD200000
000009FFF9000000
0000BFEFF6000000
000BFA8FF2000000
009FB0BFD0000000
04FE11FF80000000
0BF707FF30000000
0FF51EFB00000000
1FFCCFF300000000
0CFFFF8000000000
02BED60000000000
ENDCHAR
STARTCHAR uni0237
ENCODING 567
SWIDTH 254 0
DWIDTH 6 0
BBX 15 22 -6 -11
BITMAP
000000008EC00000
00000001FFE00000
00000002FFD00000
00000004FFB00000
00000006FF900000
00000008FF600110
00000009FF405E90
0000000BFF3AFF80
0000000DFFDFF910
0000000EFFFD4000
0000001FFFA10000
000001CFF8000000
00003DFFF4000000
0004EFEFF1000000
003EF5DFC0000000
01EF52FF80000000
0AFA07FF30000000
2FF20CFC00000000
5FE05FF600000000
6FFAEFD000000000
3FFFFE3000000000
05DEB30000000000
ENDCHAR
STARTCHAR uni0259
ENCODING 601
SWIDTH 458 0
DWIDTH 11 0
BBX 10 11 1 0
BITMAP
06BEFEA300
6FFFFFFF40
6FB9AEFFD0
000001EFF4
0000009FF6
7EFFFFFFF7
FFFDDDEFF5
FFD001DFF2
CFFC9DFFA0
4FFFFFFD20
03BEFD8100
ENDCHAR
STARTCHAR uni02BC
ENCODING 700
SWIDTH 600 0
DWIDTH 14 0
BBX 4 6 6 13
BITMAP
2DD2
7FF6
8FF3
8FD0
9F90
7E30
ENDCHAR
STARTCHAR circumflex
ENCODING 710
SWIDTH 600 0
DWIDTH 14 0
BBX 9 8 3 13
BITMAP
0000472000
0008FFD000
003FFFF300
00CFADF700
06FF3AFB00
1EFA08FF10
9FF206FF30
9E7002DD10
ENDCHAR
STARTCHAR caron
ENCODING 711
SWIDTH 600 0
DWIDTH 14 0
BBX 9 8 4 13
BITMAP
6E9001CE30
BFE008FF30
8FF11EFA00
4FF38FF200
1FF6EF8000
0CFDFE1000
08FFF50000
01CE800000
ENDCHAR
STARTCHAR uni02C9
ENCODING 713
SWIDTH 600 0
DWIDTH 14 0
BBX 9 3 3 13
BITMAP
1888888700
7FFFFFFF20
5FFFFFFC00
ENDCHAR
STARTCHAR breve
ENCODING 728
SWIDTH 600 0
DWIDTH 14 0
BBX 11 6 2 13
BITMAP
055000002710
4FF40001DF70
4FFC0009FF50
0EFFD9CFFD10
04FFFFFFE300
003AEFD82000
ENDCHAR
STARTCHAR dotaccent
ENCODING 729
SWIDTH 600 0
DWIDTH 14 0
BBX 5 4 5 13
BITMAP
1AEC20
8FFF80
9FFF70
3DEA10
ENDCHAR
STARTCHAR ring
ENCODING 730
SWIDTH 600 0
DWIDTH 14 0
BBX 7 7 4 13
BITMAP
02AED600
1DFFFF60
6FF9DFC0
8F904FD0
7FE9DFB0
2EFFFF40
03CEC500
ENDCHAR
STARTCHAR ogonek
ENCODING 731
SWIDTH 600 0
DWIDTH 14 0
BBX 7 8 3 -6
BITMAP
00250000
04EF2000
1EF70000
8FD00000
AFC00000
9FFB8830
4FFFFF80
04CEEB20
ENDCHAR
STARTCHAR tilde
ENCODING 732
SWIDTH 600 0
DWIDTH 14 0
BBX 11 5 2 13
BITMAP
003730000630
06FFFA20AFB0
2FFBFFEAFF60
8FC03DFFFC00
2710019EB200
ENDCHAR
STARTCHAR hungarumlaut
ENCODING 733
SWIDTH 600 0
DWIDTH 14 0
BBX 10 7 4 13
BITMAP
00BE506EA0
05FFB0EFF1
09FF74FFC0
0EFC09FF30
4FF30EF800
9F903FD100
8C104E4000
ENDCHAR
STARTCHAR gravecomb
ENCODING 768
SWIDTH 0 0
DWIDTH 0 0
BBX 6 7 -12 13
BITMAP
2DD200
7FFA00
2FFF20
06FF90
009FE1
000BF7
0001D8
ENDCHAR
STARTCHAR acutecomb
ENCODING 769
SWIDTH 0 0
DWIDTH 0 0
BBX 6 7 -8 13
BITMAP
004EB0
00DFF3
05FFD0
0CFE30
4FF500
BF8000
BA0000
ENDCHAR
STARTCHAR uni0302
ENCODING 770
SWIDTH 0 0
DWIDTH 0 0
BBX 9 8 -12 13
BITMAP
0000166000
0001DFF700
0009FFFC00
003FF8FF10
00CFB2FF50
07FF40EF90
1EFB00CFC0
1DC2007E80
ENDCHAR
STARTCHAR tildecomb
ENCODING 771
SWIDTH 0 0
DWIDTH 0 0
BBX 11 5 -12 13
BITMAP
006610003710
0BFFE702EF50
8FEBFFCCFE10
EF607FFFF600
550003CE8000
ENDCHAR
STARTCHAR uni0304
ENCODING 772
SWIDTH 0 0
DWIDTH 0 0
BBX 8 3 -11 13
BITMAP
48888883
DFFFFFFB
BFFFFFF6
ENDCHAR
STARTCHAR uni0306
ENCODING 774
SWIDTH 0 0
DWIDTH 0 0
BBX 11 6 -12 13
BITMAP
172000005500
AFD00005FF10
AFF6002DFE00
5FFFB9EFF800
0AFFFFFFA000
006CEEC60000
ENDCHAR
STARTCHAR uni0307
ENCODING 775
SWIDTH 0 0
DWIDTH 0 0
BBX 6 4 -10 13
BITMAP
04DE80
0EFFF2
1FFFF1
07EE60
ENDCHAR
STARTCHAR uni0308
ENCODING 776
SWIDTH 0 0
DWIDTH 0 0
BBX 10 4 -12 13
BITMAP
07EC107EC1
1FFF51FFF5
2FFF42FFF4
0AEA00AEA0
ENDCHAR
STARTCHAR hookabovecomb
ENCODING 777
SWIDTH 0 0
DWIDTH 0 0
BBX 7 7 -10 13
BITMAP
19CC9200
2FFFFD10
0002EF50
0000CF60
0002EF30
03CFFB00
04FE9100
ENDCHAR
STARTCHAR uni030A
ENCODING 778
SWIDTH 0 0
DWIDTH 0 0
BBX 7 7 -10 13
BITMAP
05DEB300
5FFFFE10
CFDAFF50
EF30BF70
DFCAFF50
7FFFFC00
07DEA100
ENDCHAR
STARTCHAR uni030B
ENCODING 779
SWIDTH 0 0
DWIDTH 0 0
BBX 10 7 -11 13
BITMAP
003EC10BE5
00BFF56FFA
01FFE1AFF6
05FF61EFC0
0AFC05FF30
0EF30AF800
1D7009C000
ENDCHAR
STARTCHAR uni030C
ENCODING 780
SWIDTH 0 0
DWIDTH 0 0
BBX 9 8 -11 13
BITMAP
0CE3005EB0
2FF801EFC0
0EFA06FF40
0AFC0DFA00
07FE6FF200
03FFDF8000
00EFFE1000
006ED30000
ENDCHAR
STARTCHAR uni030F
ENCODING 783
SWIDTH 0 0
DWIDTH 0 0
BBX 9 7 -13 13
BITMAP
7E903DC100
DFF28FF800
9FF74FFC00
1EFC0AFF20
05FF21EF70
00BF706FC0
002D600AB0
ENDCHAR
STARTCHAR uni0311
ENCODING 785
SWIDTH 0 0
DWIDTH 0 0
BBX 11 6 -12 13
BITMAP
000378620000
01BFFFFF8000
1CFFFFFFF600
7FFB218FFD00
BFE1000BFF10
8E400003DB00
ENDCHAR
STARTCHAR uni0312
ENCODING 786
SWIDTH 0 0
DWIDTH 0 0
BBX 3 6 -8 13
BITMAP
6EA0
DFF0
EFC0
EF70
FF30
DA00
ENDCHAR
STARTCHAR uni031B
ENCODING 795
SWIDTH 0 0
DWIDTH 0 0
BBX 5 6 -8 9
BITMAP
001720
009FA0
01EFA0
3CFF50
8FFB00
AD7000
ENDCHAR
STARTCHAR dotbelowcomb
ENCODING 803
SWIDTH 0 0
DWIDTH 0 0
BBX 5 4 -12 -5
BITMAP
06EE60
2FFFE0
3FFFD0
0AED40
ENDCHAR
STARTCHAR uni0324
ENCODING 804
SWIDTH 0 0
DWIDTH 0 0
BBX 10 4 -14 -5
BITMAP
0AE900AE90
4FFF14FFF1
5FFF15FFF0
1CE701CE70
ENDCHAR
STARTCHAR uni0326
ENCODING 806
SWIDTH 0 0
DWIDTH 0 0
BBX 4 6 -11 -7
BITMAP
2DE2
7FF6
8FF3
8FE0
9F90
7E30
ENDCHAR
STARTCHAR uni0327
ENCODING 807
SWIDTH 0 0
DWIDTH 0 0
BBX 7 7 -13 -6
BITMAP
04CCA400
07FFFF50
0002BFC0
00008FD0
689BFF90
FFFFFE20
9EFD9200
ENDCHAR
STARTCHAR uni0328
ENCODING 808
SWIDTH 0 0
DWIDTH 0 0
BBX 8 8 -12 -6
BITMAP
00051000
009FA000
07FE2000
0EF60000
2FF60000
1FFE9880
0AFFFFF2
018DFD70
ENDCHAR
STARTCHAR uni032E
ENCODING 814
SWIDTH 0 0
DWIDTH 0 0
BBX 11 6 -15 -7
BITMAP
056000001720
2FF60000CF90
2FFD1007FF70
0CFFD9BFFE10
03EFFFFFE400
0029DFD92000
ENDCHAR
STARTCHAR uni0331
ENCODING 817
SWIDTH 0 0
DWIDTH 0 0
BBX 8 3 -13 -4
BITMAP
38888884
CFFFFFFC
AFFFFFF7
ENDCHAR
STARTCHAR uni0394
ENCODING 916
SWIDTH 700 0
DWIDTH 17 0
BBX 15 21 0 0
BITMAP
000000001CE30000
000000008FF90000
00000001EFFC0000
00000006FFFE0000
0000000CFFFF2000
0000004FFBFF5000
000000AFF2FF8000
000002FFB0DFB000
000008FF50AFE000
00001EFD008FF200
00006FF7006FF500
0000CFF1003FF700
0004FFA0001FFA00
000AFF40000EFD00
002FFD00000BFF10
008FF6000009FF40
01EFE1000007FF70
06FF90000004FFA0
0CFFDCCCCCCCFFD0
2FFFFFFFFFFFFFF0
1DFFFFFFFFFFFFB0
ENDCHAR
STARTCHAR uni03A9
ENCODING 937
SWIDTH 816 0
DWIDTH 20 0
BBX 21 21 -1 0
BITMAP
0000000017BEFDB6100000
00000006EFFFFFFFD30000
000000AFFFFEEFFFFE3000
000009FFFB30018FFFC000
00005FFFA0000008FFF600
0000DFFC00000001EFFB00
0005FFF400000000AFFF00
000BFFC0000000007FFF10
001FFF80000000006FFF20
003FFF40000000006FFF10
005FFF30000000007FFF00
006FFF20000000009FFD00
007FFF1000000000CFFA00
006FFF3000000002FFF600
004FFF5000000009FFE100
001FFF900000003FFF7000
000AFFF2000001DFFD1000
0003FFFB00001CFFE20000
19DEFFFFA000CFFFFED900
6FFFFFFFF005FFFFFFFF10
4EFFFFFF9003EFFFFFFB00
ENDCHAR
STARTCHAR uni03BC
ENCODING 956
SWIDTH 462 0
DWIDTH 11 0
BBX 15 18 0 -6
BITMAP
004EE100AF600000
00DFF103FF700000
02FFC008FF400000
05FF900CFF100000
08FF602FFD000000
0AFF407FFA000000
0CFF20DFF8003E10
0EFF17FFF501DF20
0FFFAFEFF51BFD00
1FFFFF9FFDDFE300
2FFFFC2FFFFE4000
3FFFB207ED920000
4FF9000000000000
4FF9000000000000
5FF9000000000000
5FF9000000000000
5FF9000000000000
2EE4000000000000
ENDCHAR
STARTCHAR pi
ENCODING 960
SWIDTH 496 0
DWIDTH 12 0
BBX 15 12 0 0
BITMAP
3EFFFFFFFFFFE200
6FFFFFFFFFFFE100
17FFF778FFE61000
03FFE004FFB00000
06FFB007FF800000
08FF800AFF500000
0BFF500CFF300150
0DFF300DFF101CE0
0EFF200CFF21CFC0
1FFF000AFFCDFE30
2FFD0005FFFFE400
1DE800008EEA2000
ENDCHAR
STARTCHAR uni0400
ENCODING 1024
SWIDTH 686 0
DWIDTH 16 0
BBX 20 28 0 0
BITMAP
00000371000000000000
00001FFE300000000000
00001FFFF50000000000
000004CFFF8000000000
00000005DFF900000000
0000000005DC00000000
00000000000000000000
00000000000000000000
00000016ADEFEB600000
000006EFFFFFFFFB1000
00008FFFFCA9CFFF9000
0005FFFB200007FFE000
000BFFE1000002FFF100
000DFFA0000003FFF000
000CFFC0000004FFB000
0007FFF6000001992000
0000AFFFD98200000000
000019FFFFF700000000
0018EFFFFFE300000000
01CFFFA5210000000000
09FFE400000000000000
1FFF8000000000000000
3FFF5000000000000000
2FFF8000000000000031
0DFFF710000000159EF6
04FFFFEBA99ABDFFFFF4
003CFFFFFFFFFFFFFC50
000048BDEFFEDB962000
ENDCHAR
STARTCHAR uni0401
ENCODING 1025
SWIDTH 686 0
DWIDTH 16 0
BBX 20 26 0 0
BITMAP
00000002CE602CE60000
00000008FFE09FFD0000
00000009FFD0AFFC0000
00000003DE403DE40000
00000000000000000000
00000000000000000000
00000016ADEFEB600000
000006EFFFFFFFFB1000
00008FFFFCA9CFFF9000
0005FFFB200007FFE000
000BFFE1000002FFF100
000DFFA0000003FFF000
000CFFC0000004FFB000
0007FFF6000001992000
0000AFFFD98200000000
000019FFFFF700000000
0018EFFFFFE300000000
01CFFFA5210000000000
09FFE400000000000000
1FFF8000000000000000
3FFF5000000000000000
2FFF8000000000000031
0DFFF710000000159EF6
04FFFFEBA99ABDFFFFF4
003CFFFFFFFFFFFFFC50
000048BDEFFEDB962000
ENDCHAR
STARTCHAR uni0402
ENCODING 1026
SWIDTH 974 0
DWIDTH 23 0
BBX 26 31 0 -11
BITMAP
0000037ABDEFFFFFFFFDB30000
0017EFFFFFFFFFFFFFFFF90000
01CFFFC989FFF9777889920000
09FFA10005FFF1000000000000
0FFD000008FFE0000000000000
2FFB00000BFFB0000000000000
1FFE00000EFF80000000000000
0CFF30002FFF50000000000000
03C800005FFF30000000000000
000000007FFF105ADFEA300000
00000000AFFD1AFFFFFFE20000
00000000CFFBBFEA8BFFF90000
00000000EFFFF71000AFFD0000
00000002FFFF5000008FFD0000
00000004FFF80000009FFC0089
00000007FFF2000000BFFA3DFE
00000009FFE0000000DFFDFFFB
0000000BFFC0000000FFFFFF91
0000000CFFA0000002FFFFE400
00000006ED40000008FFFA1000
0000000000000001BFFFC00000
000000000000002DFFFF800000
00000000000003EFFFFF500000
0000000000001DFF8FFF100000
000000000000BFF75FFB000000
000000000004FFA0AFF5000000
00000000000AFF21EFE1000000
00000000000CFD08FF70000000
00000000000DFF9FFD10000000
000000000009FFFFE300000000
0000000000019EEA2000000000
ENDCHAR
STARTCHAR uni0403
ENCODING 1027
SWIDTH 635 0
DWIDTH 15 0
BBX 21 28 0 0
BITMAP
0000000000000164000000
0000000000002CFF300000
000000000004EFFF300000
00000000006FFFD5000000
0000000007FFE600000000
0000000009D71000000000
0000000000000000000000
0000000000000000012200
0000269BDEFFFFFFFFFF70
002BFFFFFFFFFFFFFFFF60
02EFFFEDFFF87777765300
0BFFB307FFE00000000000
1FFD000AFFB00000000000
2FFB000DFF800000000000
0FFE101FFF500000000000
09FF304FFF200000000000
0042007FFE000000000000
000000AFFC000000000000
000000CFF9000000000000
000000EFF7000000000000
000002FFF4000000000000
000004FFF2000000000000
000007FFF0000000000000
000009FFD0000000000000
00000BFFB0000000000000
00000DFFA0000000000000
00000EFF80000000000000
000008ED20000000000000
ENDCHAR
STARTCHAR uni0404
ENCODING 1028
SWIDTH 687 0
DWIDTH 16 0
BBX 19 20 1 0
BITMAP
00000027BEFEC6000000
000008FFFFFFFFB00000
0001BFFFE98AFFF70000
000BFFF700008FFB0000
007FFF6000006FFC0000
01EFFA0000008FFA0000
07FFF20000007FF40000
0DFFB000000005300000
1FFF7000000000000000
4FFFFFFFFFFC00000000
6FFFFFFFFFFF10000000
6FFF8777777500000000
6FFF2000000000000000
4FFF5000000000000000
1EFFA000000000000000
09FFF500000000000200
01DFFF7000000027CF60
003EFFFEA878ADFFFF50
0002BFFFFFFFFFFFC500
0000038CEFFECA730000
ENDCHAR
STARTCHAR uni0405
ENCODING 1029
SWIDTH 693 0
DWIDTH 17 0
BBX 17 20 0 0
BITMAP
0000016ADEFEB71000
00004DFFFFFFFFE300
0005FFFFB99BFFFE10
000DFFA100002DFF70
005FFE10000008FF90
007FFD00000008FF80
006FFF30000008FF40
002FFFE40000017400
0008FFFFB500000000
00008FFFFFE8100000
000003BFFFFFE70000
000000028EFFFFA000
01630000006EFFF500
0CFE00000002EFFA00
2FFF000000009FFB00
2FFF00000000BFF900
1EFF70000007FFF400
08FFFEA99BEFFFA000
009FFFFFFFFFF80000
00038CEFFEB7200000
ENDCHAR
STARTCHAR uni0406
ENCODING 1030
SWIDTH 495 0
DWIDTH 12 0
BBX 15 20 -1 0
BITMAP
0002CFFFFFFFFD20
0008FFFFFFFFFF30
0002889FFFB88500
0000003FFF300000
0000005FFF100000
0000007FFD000000
000000AFFB000000
000000CFF8000000
000000EFF6000000
000002FFF4000000
000004FFF1000000
000007FFE0000000
000009FFC0000000
00000BFF90000000
00000EFF70000000
00001FFF50000000
00003FFF30000000
0378BFFF98710000
3FFFFFFFFFF80000
3EFFFFFFFFD30000
ENDCHAR
STARTCHAR uni0407
ENCODING 1031
SWIDTH 495 0
DWIDTH 12 0
BBX 15 26 -1 0
BITMAP
000003DE503DE500
00000AFFC0AFFC00
00000AFFB0BFFB00
000004ED404ED400
0000000000000000
0000000000000000
0002CFFFFFFFFD20
0008FFFFFFFFFF30
0002889FFFB88500
0000003FFF300000
0000005FFF100000
0000007FFD000000
000000AFFB000000
000000CFF8000000
000000EFF6000000
000002FFF4000000
000004FFF1000000
000007FFE0000000
000009FFC0000000
00000BFF90000000
00000EFF70000000
00001FFF50000000
00003FFF30000000
0378BFFF98710000
3FFFFFFFFFF80000
3EFFFFFFFFD30000
ENDCHAR
STARTCHAR uni0408
ENCODING 1032
SWIDTH 743 0
DWIDTH 18 0
BBX 18 22 1 -2
BITMAP
000027ACEEFFEDB850
003BFFFFFFFFFFFFF5
03FFFFDA999ACFFFE3
0DFF810000005FFF10
3FFB000000007FFE00
4FF9000000009FFC00
2FFE00000000BFF900
0CFE10000000DFF700
016300000000FFF400
00000000004AFFF200
000000005CFFFFE000
0000003CFFFEFFB000
000006FFFA3BFF7000
00007FFE500EFF3000
0004FFE2004FFD0000
000DFF40009FF80000
004FFC0001EFF20000
006FF90007FFA00000
007FFB004FFE200000
004FFFBAFFF6000000
000BFFFFFF60000000
00008DFDA300000000
ENDCHAR
ENDFONT
